<svg width="47" height="59" viewBox="0 0 47 59" fill="none" xmlns="http://www.w3.org/2000/svg">
<mask id="path-1-inside-1" fill="white">
<path fill-rule="evenodd" clip-rule="evenodd" d="M46.0653 33.5437L25.7565 57.88C24.5103 59.3734 22.4897 59.3734 21.2435 57.88L0.934683 33.5437C-0.311567 32.0503 -0.311567 29.629 0.934684 28.1356C2.18093 26.6422 4.2015 26.6422 5.44775 28.1356L20.3088 45.9438L20.3088 -1.16671e-06L26.6912 -8.87725e-07L26.6912 45.9438L41.5523 28.1356C42.7985 26.6422 44.8191 26.6422 46.0653 28.1356C47.3116 29.629 47.3116 32.0503 46.0653 33.5437Z"/>
</mask>
<path fill-rule="evenodd" clip-rule="evenodd" d="M46.0653 33.5437L25.7565 57.88C24.5103 59.3734 22.4897 59.3734 21.2435 57.88L0.934683 33.5437C-0.311567 32.0503 -0.311567 29.629 0.934684 28.1356C2.18093 26.6422 4.2015 26.6422 5.44775 28.1356L20.3088 45.9438L20.3088 -1.16671e-06L26.6912 -8.87725e-07L26.6912 45.9438L41.5523 28.1356C42.7985 26.6422 44.8191 26.6422 46.0653 28.1356C47.3116 29.629 47.3116 32.0503 46.0653 33.5437Z" fill="#0D47A1"/>
<path d="M25.7565 57.88L15.0076 48.9099L15.0076 48.9099L25.7565 57.88ZM46.0653 33.5437L56.8142 42.5137L46.0653 33.5437ZM21.2435 57.88L31.9924 48.9099L31.9924 48.9099L21.2435 57.88ZM0.934683 33.5437L-9.81421 42.5137L0.934683 33.5437ZM5.44775 28.1356L-5.30115 37.1057L-5.30115 37.1057L5.44775 28.1356ZM20.3088 45.9438L9.55989 54.9138L34.3088 84.5707L34.3088 45.9438L20.3088 45.9438ZM20.3088 -1.16671e-06L20.3088 -14L6.30879 -14L6.30878 -1.77867e-06L20.3088 -1.16671e-06ZM26.6912 -8.87725e-07L40.6912 -2.75766e-07L40.6912 -14L26.6912 -14L26.6912 -8.87725e-07ZM26.6912 45.9438L12.6912 45.9438L12.6912 84.5707L37.4401 54.9138L26.6912 45.9438ZM41.5523 28.1356L52.3011 37.1057L52.3011 37.1057L41.5523 28.1356ZM36.5054 66.85L56.8142 42.5137L35.3164 24.5737L15.0076 48.9099L36.5054 66.85ZM10.4946 66.85C13.5812 70.5487 18.2346 73 23.5 73C28.7654 73 33.4188 70.5487 36.5054 66.85L15.0076 48.9099C16.848 46.7046 19.868 45 23.5 45C27.132 45 30.152 46.7046 31.9924 48.9099L10.4946 66.85ZM-9.81421 42.5137L10.4946 66.85L31.9924 48.9099L11.6836 24.5737L-9.81421 42.5137ZM-9.81421 19.1656C-15.3953 25.8535 -15.3953 35.8259 -9.81421 42.5137L11.6836 24.5737C13.4252 26.6607 14 28.9774 14 30.8397C14 32.7019 13.4252 35.0186 11.6836 37.1057L-9.81421 19.1656ZM16.1966 19.1656C13.11 15.4669 8.45663 13.0156 3.19121 13.0156C-2.0742 13.0156 -6.7276 15.4669 -9.81421 19.1656L11.6836 37.1057C9.84321 39.311 6.82322 41.0156 3.19121 41.0156C-0.440794 41.0156 -3.46079 39.311 -5.30115 37.1057L16.1966 19.1656ZM31.0577 36.9738L16.1966 19.1656L-5.30115 37.1057L9.55989 54.9138L31.0577 36.9738ZM6.30878 -1.77867e-06L6.30878 45.9438L34.3088 45.9438L34.3088 -5.54751e-07L6.30878 -1.77867e-06ZM26.6912 -14L20.3088 -14L20.3088 14L26.6912 14L26.6912 -14ZM40.6912 45.9438L40.6912 -2.75766e-07L12.6912 -1.49968e-06L12.6912 45.9438L40.6912 45.9438ZM30.8034 19.1656L15.9423 36.9738L37.4401 54.9138L52.3011 37.1057L30.8034 19.1656ZM56.8142 19.1656C53.7276 15.4669 49.0742 13.0156 43.8088 13.0156C38.5434 13.0156 33.89 15.4669 30.8034 19.1656L52.3011 37.1057C50.4608 39.311 47.4408 41.0156 43.8088 41.0156C40.1768 41.0156 37.1568 39.311 35.3164 37.1057L56.8142 19.1656ZM56.8142 42.5137C62.3953 35.8259 62.3953 25.8535 56.8142 19.1656L35.3164 37.1057C33.5747 35.0186 33 32.7019 33 30.8397C33 28.9774 33.5747 26.6607 35.3164 24.5737L56.8142 42.5137Z" fill="#0097A7" mask="url(#path-1-inside-1)"/>
</svg>
