<svg width="43" height="45" viewBox="0 0 43 45" fill="none" xmlns="http://www.w3.org/2000/svg">
<path d="M1.43677 22.7586C1.43677 21.3503 2.09743 19.1337 5.84967 17.9705C6.1171 17.8876 6.18211 17.8291 6.10925 17.7726C4.81134 17.9705 1.95593 15.2479 3.77301 12.6191C5.29691 10.4145 7.65761 11.1153 9.82156 13.0602C8.07863 11.0972 6.57469 8.48055 8.4455 6.70442C10.5222 4.73285 11.8201 5.57781 12.8584 6.70442C12.9449 5.57782 13.7929 3.04294 16.4926 3.04294C19.1922 3.04294 20.0402 4.73285 20.1267 5.57781V36.8413C19.521 38.6251 17.3232 41.911 14.4159 41.911C11.5086 41.911 8.96466 38.2495 9.74341 36.2779C6.62842 37.6862 2.73468 35.79 3.77301 28.1206C1.43677 26.5473 1.43677 23.7741 1.43677 22.7586Z" fill="#0D47A1"/>
<path d="M12.8584 20.5054C13.2045 23.5097 12.6507 29.4619 7.66675 29.2366C5.92936 29.1581 4.67649 28.7291 3.77301 28.1206M3.77301 28.1206C1.43677 26.5473 1.43677 23.7741 1.43677 22.7586C1.43677 21.3503 2.09743 19.1337 5.84967 17.9705C6.1171 17.8876 6.18211 17.8291 6.10925 17.7726C4.81134 17.9705 1.95593 15.2479 3.77301 12.6191C5.59009 9.99037 8.59693 11.4925 11.0413 14.309C8.96466 12.3646 6.13798 8.89516 8.4455 6.70442C10.5222 4.73285 11.8201 5.57781 12.8584 6.70442C12.9449 5.57782 13.7929 3.04294 16.4926 3.04294C19.1922 3.04294 20.0402 4.73285 20.1267 5.57781V36.8413C19.521 38.6251 17.3232 41.911 14.4159 41.911C11.5086 41.911 8.96466 38.2495 9.74341 36.2779C6.62842 37.6862 2.73468 35.79 3.77301 28.1206Z" stroke="#0C3D89"/>
<path d="M35.2417 8.7963L29.9908 15.2038H23.5013" stroke="#0D47A1" stroke-width="4"/>
<path d="M35.2417 35.7253L29.9908 29.3178H23.5013" stroke="#0D47A1" stroke-width="4"/>
<path d="M37.1153 22.477H23.5013" stroke="#0D47A1" stroke-width="4"/>
<path d="M29.4909 4.73281C29.4909 6.6736 28.0501 8.17595 26.3567 8.17595C24.6634 8.17595 23.2226 6.6736 23.2226 4.73281C23.2226 2.79202 24.6634 1.28967 26.3567 1.28967C28.0501 1.28967 29.4909 2.79202 29.4909 4.73281Z" fill="#0D47A1" stroke="#0C3D89"/>
<path d="M39.0954 8.4441C39.0954 10.3849 37.6546 11.8872 35.9612 11.8872C34.2679 11.8872 32.8271 10.3849 32.8271 8.4441C32.8271 6.50331 34.2679 5.00096 35.9612 5.00096C37.6546 5.00096 39.0954 6.50331 39.0954 8.4441Z" fill="#0D47A1" stroke="#0C3D89"/>
<path d="M41.6913 22.1953C41.6913 24.1361 40.2504 25.6384 38.5571 25.6384C36.8638 25.6384 35.423 24.1361 35.423 22.1953C35.423 20.2545 36.8638 18.7521 38.5571 18.7521C40.2504 18.7521 41.6913 20.2545 41.6913 22.1953Z" fill="#0D47A1" stroke="#0C3D89"/>
<path d="M38.0917 35.9779C38.0917 37.9187 36.6508 39.421 34.9575 39.421C33.2642 39.421 31.8234 37.9187 31.8234 35.9779C31.8234 34.0371 33.2642 32.5348 34.9575 32.5348C36.6508 32.5348 38.0917 34.0371 38.0917 35.9779Z" fill="#0D47A1" stroke="#0C3D89"/>
<path d="M29.4909 40.221C29.4909 42.1618 28.0501 43.6642 26.3567 43.6642C24.6634 43.6642 23.2226 42.1618 23.2226 40.221C23.2226 38.2802 24.6634 36.7779 26.3567 36.7779C28.0501 36.7779 29.4909 38.2802 29.4909 40.221Z" fill="#0D47A1" stroke="#0C3D89"/>
</svg>
