<svg width="389" height="71" viewBox="0 0 389 71" fill="none" xmlns="http://www.w3.org/2000/svg">
<path fill-rule="evenodd" clip-rule="evenodd" d="M26 57.2857C38.3081 57.2857 48.2857 47.3081 48.2857 35C48.2857 22.6919 38.3081 12.7143 26 12.7143C13.6919 12.7143 3.71429 22.6919 3.71429 35C3.71429 47.3081 13.6919 57.2857 26 57.2857ZM26 61C40.3594 61 52 49.3594 52 35C52 20.6406 40.3594 9 26 9C11.6406 9 0 20.6406 0 35C0 49.3594 11.6406 61 26 61Z" fill="#333333"/>
<path fill-rule="evenodd" clip-rule="evenodd" d="M1.22879 35.2063C1.22578 34.1807 2.20802 33.195 3.42274 33.1914L7.82162 33.1786C9.03633 33.175 10.0235 34.1549 10.0265 35.1805C10.0296 36.2062 9.04726 37.1414 7.83255 37.145L3.43367 37.1578C2.21895 37.1614 1.23179 36.232 1.22879 35.2063Z" fill="#333333"/>
<path fill-rule="evenodd" clip-rule="evenodd" d="M42.3797 35.2394C42.3767 34.2138 43.3589 33.2281 44.5736 33.2246L48.9725 33.2117C50.1872 33.2081 51.1744 34.188 51.1774 35.2137C51.1804 36.2393 50.1981 37.1745 48.9834 37.1781L44.5845 37.191C43.3698 37.1945 42.3827 36.2651 42.3797 35.2394Z" fill="#333333"/>
<path fill-rule="evenodd" clip-rule="evenodd" d="M25.9736 51.64C27.0494 51.64 28.0801 52.5716 28.0801 53.7204L28.0801 57.8804C28.0801 59.0291 27.0494 59.96 25.9736 59.96C24.8979 59.96 23.9201 59.0285 23.9201 57.8797L23.9201 53.7197C23.9201 52.571 24.8979 51.64 25.9736 51.64Z" fill="#333333"/>
<path fill-rule="evenodd" clip-rule="evenodd" d="M25.9736 11.08C27.0494 11.08 28.0801 12.0116 28.0801 13.1604L28.0801 17.3204C28.0801 18.4691 27.0494 19.4 25.9736 19.4C24.8979 19.4 23.9201 18.4685 23.9201 17.3197L23.9201 13.1597C23.9201 12.011 24.8979 11.08 25.9736 11.08Z" fill="#333333"/>
<path fill-rule="evenodd" clip-rule="evenodd" d="M43.6775 17.4334C44.4027 18.1586 44.4011 19.5501 43.5421 20.4091L40.4316 23.5195C39.5727 24.3785 38.1818 24.3796 37.4565 23.6543C36.7312 22.9291 36.7685 21.5733 37.6274 20.7144L40.7379 17.6039C41.5969 16.7449 42.9522 16.7081 43.6775 17.4334Z" fill="#333333"/>
<path fill-rule="evenodd" clip-rule="evenodd" d="M8.49242 17.3697C9.21768 16.6444 10.6092 16.6461 11.4681 17.505L14.5786 20.6155C15.4376 21.4744 15.4387 22.8654 14.7134 23.5906C13.9881 24.3159 12.6324 24.2786 11.7734 23.4197L8.66295 20.3092C7.80401 19.4503 7.76716 18.0949 8.49242 17.3697Z" fill="#333333"/>
<path fill-rule="evenodd" clip-rule="evenodd" d="M43.542 52.963C42.8167 53.6883 41.4252 53.6866 40.5663 52.8277L37.4558 49.7172C36.5969 48.8582 36.5958 47.4673 37.321 46.742C38.0463 46.0168 39.402 46.054 40.261 46.913L43.3715 50.0235C44.2304 50.8824 44.2673 52.2377 43.542 52.963Z" fill="#333333"/>
<path fill-rule="evenodd" clip-rule="evenodd" d="M8.52736 52.9986C7.8021 52.2734 7.80376 50.8819 8.6627 50.0229L11.7732 46.9124C12.6321 46.0535 14.0231 46.0524 14.7483 46.7777C15.4736 47.5029 15.4363 48.8587 14.5774 49.7176L11.4669 52.8281C10.608 53.687 9.25261 53.7239 8.52736 52.9986Z" fill="#333333"/>
<path fill-rule="evenodd" clip-rule="evenodd" d="M26.0001 41.0775C29.231 41.0775 31.8501 38.5893 31.8501 35.52C31.8501 32.4507 29.231 29.9625 26.0001 29.9625C22.7692 29.9625 20.1501 32.4507 20.1501 35.52C20.1501 38.5893 22.7692 41.0775 26.0001 41.0775ZM26.0001 45.4C31.7439 45.4 36.4001 40.9766 36.4001 35.52C36.4001 30.0634 31.7439 25.64 26.0001 25.64C20.2563 25.64 15.6001 30.0634 15.6001 35.52C15.6001 40.9766 20.2563 45.4 26.0001 45.4Z" fill="#333333"/>
<path d="M61.34 56V13.4H75.8C79.2 13.4 82.16 13.96 84.68 15.08C87.24 16.2 89.36 17.72 91.04 19.64C92.76 21.56 94.04 23.82 94.88 26.42C95.76 28.98 96.2 31.72 96.2 34.64C96.2 37.88 95.72 40.82 94.76 43.46C93.8 46.06 92.42 48.3 90.62 50.18C88.86 52.02 86.72 53.46 84.2 54.5C81.72 55.5 78.92 56 75.8 56H61.34ZM92 34.64C92 32.08 91.64 29.74 90.92 27.62C90.2 25.46 89.14 23.6 87.74 22.04C86.38 20.48 84.7 19.28 82.7 18.44C80.7 17.56 78.4 17.12 75.8 17.12H65.54V52.28H75.8C78.44 52.28 80.76 51.84 82.76 50.96C84.8 50.04 86.5 48.8 87.86 47.24C89.22 45.64 90.24 43.78 90.92 41.66C91.64 39.5 92 37.16 92 34.64ZM116.711 56.6C114.431 56.6 112.351 56.18 110.471 55.34C108.591 54.46 106.951 53.28 105.551 51.8C104.191 50.32 103.131 48.6 102.371 46.64C101.611 44.68 101.231 42.62 101.231 40.46C101.231 38.26 101.611 36.18 102.371 34.22C103.171 32.26 104.251 30.54 105.611 29.06C107.011 27.58 108.651 26.4 110.531 25.52C112.411 24.64 114.471 24.2 116.711 24.2C118.951 24.2 121.011 24.64 122.891 25.52C124.811 26.4 126.451 27.58 127.811 29.06C129.211 30.54 130.291 32.26 131.051 34.22C131.851 36.18 132.251 38.26 132.251 40.46C132.251 42.62 131.871 44.68 131.111 46.64C130.351 48.6 129.271 50.32 127.871 51.8C126.511 53.28 124.871 54.46 122.951 55.34C121.071 56.18 118.991 56.6 116.711 56.6ZM105.371 40.52C105.371 42.28 105.671 43.92 106.271 45.44C106.871 46.92 107.671 48.24 108.671 49.4C109.711 50.52 110.911 51.4 112.271 52.04C113.671 52.68 115.151 53 116.711 53C118.271 53 119.731 52.68 121.091 52.04C122.491 51.36 123.711 50.46 124.751 49.34C125.791 48.18 126.611 46.84 127.211 45.32C127.811 43.8 128.111 42.16 128.111 40.4C128.111 38.68 127.811 37.06 127.211 35.54C126.611 33.98 125.791 32.64 124.751 31.52C123.711 30.36 122.491 29.46 121.091 28.82C119.731 28.14 118.271 27.8 116.711 27.8C115.151 27.8 113.691 28.14 112.331 28.82C110.971 29.46 109.771 30.36 108.731 31.52C107.691 32.68 106.871 34.04 106.271 35.6C105.671 37.12 105.371 38.76 105.371 40.52ZM136.914 40.28C136.914 38.08 137.294 36 138.054 34.04C138.814 32.08 139.874 30.38 141.234 28.94C142.634 27.46 144.294 26.3 146.214 25.46C148.134 24.62 150.254 24.2 152.574 24.2C155.534 24.2 158.114 24.88 160.314 26.24C162.514 27.56 164.174 29.36 165.294 31.64L161.334 32.9C160.454 31.3 159.214 30.06 157.614 29.18C156.054 28.26 154.314 27.8 152.394 27.8C150.794 27.8 149.294 28.12 147.894 28.76C146.534 29.4 145.334 30.28 144.294 31.4C143.294 32.48 142.494 33.78 141.894 35.3C141.334 36.82 141.054 38.48 141.054 40.28C141.054 42.04 141.354 43.7 141.954 45.26C142.554 46.82 143.374 48.18 144.414 49.34C145.454 50.46 146.654 51.36 148.014 52.04C149.414 52.68 150.894 53 152.454 53C153.454 53 154.434 52.86 155.394 52.58C156.394 52.3 157.314 51.92 158.154 51.44C158.994 50.92 159.714 50.34 160.314 49.7C160.914 49.06 161.334 48.38 161.574 47.66L165.594 48.86C165.154 49.98 164.514 51.02 163.674 51.98C162.834 52.9 161.834 53.72 160.674 54.44C159.554 55.12 158.294 55.64 156.894 56C155.534 56.4 154.114 56.6 152.634 56.6C150.354 56.6 148.254 56.18 146.334 55.34C144.414 54.46 142.754 53.28 141.354 51.8C139.954 50.28 138.854 48.54 138.054 46.58C137.294 44.62 136.914 42.52 136.914 40.28ZM181.784 56.6C178.384 56.6 175.844 55.48 174.164 53.24C172.524 50.96 171.704 47.58 171.704 43.1V24.74H175.784V42.38C175.784 49.46 178.204 53 183.044 53C184.244 53 185.424 52.8 186.584 52.4C187.744 52 188.804 51.42 189.764 50.66C190.764 49.9 191.644 49 192.404 47.96C193.204 46.92 193.844 45.74 194.324 44.42V24.74H198.404V50.72C198.404 51.84 198.884 52.4 199.844 52.4V56C199.364 56.08 198.964 56.12 198.644 56.12C198.364 56.12 198.164 56.12 198.044 56.12C197.084 56.08 196.304 55.74 195.704 55.1C195.104 54.46 194.804 53.6 194.804 52.52V48.92C193.444 51.36 191.584 53.26 189.224 54.62C186.904 55.94 184.424 56.6 181.784 56.6ZM213.389 13.4L223.409 43.64L233.309 13.4H243.689L227.549 56H219.269L202.949 13.4H213.389ZM255.586 13.4H264.466L280.006 56H269.926L266.626 46.46H253.366L250.126 56H240.046L255.586 13.4ZM265.006 39.68L260.026 24.62L254.926 39.68H265.006ZM300.626 47.6C302.306 47.6 303.726 47.26 304.886 46.58C306.046 45.86 306.986 44.92 307.706 43.76C308.426 42.6 308.926 41.28 309.206 39.8C309.526 38.28 309.686 36.74 309.686 35.18V13.4H319.526V35.18C319.526 38.14 319.146 40.9 318.386 43.46C317.666 46.02 316.526 48.26 314.966 50.18C313.446 52.1 311.486 53.62 309.086 54.74C306.726 55.82 303.906 56.36 300.626 56.36C297.226 56.36 294.326 55.78 291.926 54.62C289.526 53.46 287.566 51.92 286.046 50C284.566 48.04 283.466 45.78 282.746 43.22C282.066 40.66 281.726 37.98 281.726 35.18V13.4H291.566V35.18C291.566 36.82 291.726 38.38 292.046 39.86C292.366 41.34 292.886 42.66 293.606 43.82C294.326 44.98 295.246 45.9 296.366 46.58C297.526 47.26 298.946 47.6 300.626 47.6ZM327.15 56V13.4H336.99V47.36H357.63V56H327.15ZM387.618 22.04H374.658V56H364.818V22.04H351.798V13.4H387.618V22.04Z" fill="#1B5499"/>
</svg>
