<svg width="127" height="37" viewBox="0 0 127 37" fill="none" xmlns="http://www.w3.org/2000/svg">
<rect x="0.5" y="0.5" width="126" height="36" rx="2.5" fill="white" stroke="#0097A7"/>
<path d="M25.3445 12.5433L19.6925 25.2333H17.8025L12.1505 12.5433H14.5445L18.7565 22.3533L22.9865 12.5433H25.3445ZM26.3321 16.4313H28.5821V25.2333H26.3321V16.4313ZM28.6901 12.3453V14.5593H26.2061V12.3453H28.6901ZM38.6244 21.2373H32.6304C32.7024 22.0533 32.9484 22.6593 33.3684 23.0553C33.7884 23.4513 34.3884 23.6493 35.1684 23.6493C36.1404 23.6493 37.0284 23.3373 37.8324 22.7133L38.4804 24.2613C38.0724 24.5973 37.5564 24.8673 36.9324 25.0713C36.3204 25.2753 35.7024 25.3773 35.0784 25.3773C33.6384 25.3773 32.4984 24.9693 31.6584 24.1533C30.8304 23.3373 30.4164 22.2213 30.4164 20.8053C30.4164 19.9053 30.5964 19.1073 30.9564 18.4113C31.3164 17.7153 31.8204 17.1753 32.4684 16.7913C33.1284 16.4073 33.8724 16.2153 34.7004 16.2153C35.9124 16.2153 36.8664 16.6053 37.5624 17.3853C38.2704 18.1653 38.6244 19.2393 38.6244 20.6073V21.2373ZM34.7544 17.7993C34.1544 17.7993 33.6684 17.9913 33.2964 18.3753C32.9364 18.7593 32.7144 19.3113 32.6304 20.0313H36.6984C36.6744 19.2993 36.4944 18.7473 36.1584 18.3753C35.8224 17.9913 35.3544 17.7993 34.7544 17.7993ZM54.4003 16.4313L50.9443 25.2333H48.9823L46.8223 19.5633L44.7163 25.2333H42.7723L39.2983 16.4313H41.6023L43.8523 22.5513L46.1023 16.4313H47.7223L49.9723 22.5873L52.2043 16.4313H54.4003ZM65.127 25.3953C64.155 25.3953 63.243 25.2633 62.391 24.9993C61.539 24.7353 60.819 24.3633 60.231 23.8833L61.005 22.1913C61.617 22.6593 62.259 23.0013 62.931 23.2173C63.615 23.4333 64.353 23.5413 65.145 23.5413C66.021 23.5413 66.693 23.3913 67.161 23.0913C67.641 22.7793 67.881 22.3473 67.881 21.7953C67.881 21.3153 67.659 20.9493 67.215 20.6973C66.783 20.4453 66.057 20.2053 65.037 19.9773C63.981 19.7493 63.123 19.4853 62.463 19.1853C61.803 18.8853 61.305 18.5013 60.969 18.0333C60.633 17.5653 60.465 16.9713 60.465 16.2513C60.465 15.5073 60.669 14.8413 61.077 14.2533C61.485 13.6653 62.061 13.2093 62.805 12.8853C63.549 12.5493 64.407 12.3813 65.379 12.3813C66.267 12.3813 67.113 12.5193 67.917 12.7953C68.721 13.0593 69.381 13.4253 69.897 13.8933L69.123 15.5853C67.995 14.6853 66.747 14.2353 65.379 14.2353C64.563 14.2353 63.915 14.4033 63.435 14.7393C62.967 15.0633 62.733 15.5193 62.733 16.1073C62.733 16.5993 62.943 16.9773 63.363 17.2413C63.783 17.5053 64.497 17.7513 65.505 17.9793C66.573 18.2193 67.437 18.4893 68.097 18.7893C68.769 19.0773 69.279 19.4493 69.627 19.9053C69.987 20.3613 70.167 20.9373 70.167 21.6333C70.167 22.3893 69.963 23.0553 69.555 23.6313C69.159 24.1953 68.577 24.6333 67.809 24.9453C67.053 25.2453 66.159 25.3953 65.127 25.3953ZM90.255 12.5433L85.773 25.2333H83.883L80.697 16.1073L77.493 25.2333H75.603L71.139 12.5433H73.479L76.629 21.9933L79.941 12.5433H81.579L84.801 22.0473L88.041 12.5433H90.255ZM97.397 25.3953C96.161 25.3953 95.087 25.1313 94.175 24.6033C93.275 24.0753 92.579 23.3193 92.087 22.3353C91.595 21.3513 91.349 20.1993 91.349 18.8793C91.349 17.5593 91.589 16.4133 92.069 15.4413C92.561 14.4573 93.263 13.7013 94.175 13.1733C95.087 12.6453 96.161 12.3813 97.397 12.3813C98.633 12.3813 99.701 12.6453 100.601 13.1733C101.513 13.7013 102.209 14.4573 102.689 15.4413C103.181 16.4133 103.427 17.5593 103.427 18.8793C103.427 20.1993 103.181 21.3513 102.689 22.3353C102.197 23.3193 101.495 24.0753 100.583 24.6033C99.683 25.1313 98.621 25.3953 97.397 25.3953ZM97.397 23.5413C98.561 23.5413 99.467 23.1393 100.115 22.3353C100.775 21.5313 101.105 20.3793 101.105 18.8793C101.105 17.3793 100.775 16.2333 100.115 15.4413C99.467 14.6373 98.561 14.2353 97.397 14.2353C96.221 14.2353 95.303 14.6373 94.643 15.4413C93.995 16.2333 93.671 17.3793 93.671 18.8793C93.671 20.3793 93.995 21.5313 94.643 22.3353C95.303 23.1393 96.221 23.5413 97.397 23.5413ZM108.004 14.4513H103.864V12.5433H114.466V14.4513H110.326V25.2333H108.004V14.4513Z" fill="#0D47A1"/>
</svg>
