<svg width="157" height="30" viewBox="0 0 157 30" fill="none" xmlns="http://www.w3.org/2000/svg">
<rect width="157" height="30" rx="3" fill="#0097A7"/>
<path d="M10.1691 8.72H14.3291C16.1745 8.72 17.6038 9.216 18.6171 10.208C19.6411 11.1893 20.1531 12.5707 20.1531 14.352C20.1531 16.1333 19.6411 17.52 18.6171 18.512C17.6038 19.504 16.1745 20 14.3291 20H10.1691V8.72ZM14.2011 18.32C16.7931 18.32 18.0891 16.9973 18.0891 14.352C18.0891 11.7173 16.7931 10.4 14.2011 10.4H12.2331V18.32H14.2011ZM28.9196 16.448H23.5916C23.6556 17.1733 23.8743 17.712 24.2476 18.064C24.621 18.416 25.1543 18.592 25.8476 18.592C26.7116 18.592 27.501 18.3147 28.2156 17.76L28.7916 19.136C28.429 19.4347 27.9703 19.6747 27.4156 19.856C26.8716 20.0373 26.3223 20.128 25.7676 20.128C24.4876 20.128 23.4743 19.7653 22.7276 19.04C21.9916 18.3147 21.6236 17.3227 21.6236 16.064C21.6236 15.264 21.7836 14.5547 22.1036 13.936C22.4236 13.3173 22.8716 12.8373 23.4476 12.496C24.0343 12.1547 24.6956 11.984 25.4316 11.984C26.509 11.984 27.357 12.3307 27.9756 13.024C28.605 13.7173 28.9196 14.672 28.9196 15.888V16.448ZM25.4796 13.392C24.9463 13.392 24.5143 13.5627 24.1836 13.904C23.8636 14.2453 23.6663 14.736 23.5916 15.376H27.2076C27.1863 14.7253 27.0263 14.2347 26.7276 13.904C26.429 13.5627 26.013 13.392 25.4796 13.392ZM33.4356 20.128C32.7423 20.128 32.1023 20.0427 31.5156 19.872C30.9396 19.7013 30.449 19.456 30.0436 19.136L30.6036 17.744C31.4356 18.352 32.3903 18.656 33.4676 18.656C33.9263 18.656 34.273 18.5813 34.5076 18.432C34.753 18.2827 34.8756 18.0693 34.8756 17.792C34.8756 17.5573 34.7903 17.376 34.6196 17.248C34.4596 17.12 34.1663 17.0027 33.7396 16.896L32.4596 16.608C31.7343 16.448 31.1956 16.1867 30.8436 15.824C30.4916 15.4613 30.3156 14.992 30.3156 14.416C30.3156 13.936 30.449 13.5147 30.7156 13.152C30.993 12.7787 31.3716 12.4907 31.8516 12.288C32.3423 12.0853 32.9076 11.984 33.5476 11.984C34.1023 11.984 34.6356 12.0693 35.1476 12.24C35.6703 12.4107 36.129 12.6507 36.5236 12.96L35.9636 14.32C35.153 13.7333 34.3423 13.44 33.5316 13.44C33.0943 13.44 32.753 13.52 32.5076 13.68C32.2623 13.84 32.1396 14.064 32.1396 14.352C32.1396 14.5653 32.2143 14.7413 32.3636 14.88C32.5236 15.0187 32.7743 15.1253 33.1156 15.2L34.4436 15.504C35.2223 15.6747 35.793 15.9467 36.1556 16.32C36.5183 16.6827 36.6996 17.1627 36.6996 17.76C36.6996 18.4853 36.4063 19.0613 35.8196 19.488C35.233 19.9147 34.4383 20.128 33.4356 20.128ZM43.6813 20L40.3213 16.432V20H38.3213V8.72H40.3213V15.6L43.4733 12.192H45.9053L42.3853 15.936L46.1613 20H43.6813ZM50.8681 18.624C51.1028 18.624 51.3481 18.608 51.6041 18.576L51.5081 20.064C51.1881 20.096 50.8948 20.112 50.6281 20.112C49.5295 20.112 48.7188 19.8613 48.1961 19.36C47.6735 18.848 47.4121 18.0907 47.4121 17.088V13.68H45.9081V12.176H47.4121V9.84H49.4121V12.176H51.4761V13.68H49.4121V17.056C49.4121 18.1013 49.8975 18.624 50.8681 18.624ZM56.3424 20.128C55.5424 20.128 54.8384 19.9627 54.2304 19.632C53.633 19.3013 53.169 18.8267 52.8384 18.208C52.5077 17.5893 52.3424 16.8693 52.3424 16.048C52.3424 15.2267 52.5077 14.512 52.8384 13.904C53.169 13.2853 53.633 12.8107 54.2304 12.48C54.8384 12.1493 55.5424 11.984 56.3424 11.984C57.1424 11.984 57.841 12.1493 58.4384 12.48C59.0464 12.8107 59.5104 13.2853 59.8304 13.904C60.161 14.512 60.3264 15.2267 60.3264 16.048C60.3264 16.8693 60.161 17.5893 59.8304 18.208C59.5104 18.8267 59.0464 19.3013 58.4384 19.632C57.841 19.9627 57.1424 20.128 56.3424 20.128ZM56.3264 18.576C56.977 18.576 57.473 18.3627 57.8144 17.936C58.1557 17.5093 58.3264 16.88 58.3264 16.048C58.3264 15.2267 58.1557 14.6027 57.8144 14.176C57.473 13.7387 56.9824 13.52 56.3424 13.52C55.7024 13.52 55.2064 13.7387 54.8544 14.176C54.513 14.6027 54.3424 15.2267 54.3424 16.048C54.3424 16.88 54.513 17.5093 54.8544 17.936C55.1957 18.3627 55.6864 18.576 56.3264 18.576ZM66.4735 11.984C67.1455 11.984 67.7428 12.1547 68.2655 12.496C68.7988 12.8373 69.2095 13.3227 69.4975 13.952C69.7962 14.5707 69.9455 15.2853 69.9455 16.096C69.9455 16.9067 69.7962 17.616 69.4975 18.224C69.2095 18.832 68.8042 19.3013 68.2815 19.632C67.7588 19.9627 67.1562 20.128 66.4735 20.128C65.9188 20.128 65.4228 20.0107 64.9855 19.776C64.5482 19.5413 64.2122 19.216 63.9775 18.8V22.88H61.9775V12.176H63.9455V13.36C64.1802 12.9227 64.5162 12.5867 64.9535 12.352C65.4015 12.1067 65.9082 11.984 66.4735 11.984ZM65.9455 18.576C66.5748 18.576 67.0655 18.3627 67.4175 17.936C67.7695 17.4987 67.9455 16.8853 67.9455 16.096C67.9455 15.2853 67.7695 14.656 67.4175 14.208C67.0655 13.76 66.5748 13.536 65.9455 13.536C65.3055 13.536 64.8095 13.7547 64.4575 14.192C64.1162 14.6293 63.9455 15.2533 63.9455 16.064C63.9455 16.864 64.1162 17.4827 64.4575 17.92C64.8095 18.3573 65.3055 18.576 65.9455 18.576ZM76.1066 8.72H81.0346C82.24 8.72 83.1786 9.024 83.8506 9.632C84.5226 10.2293 84.8586 11.072 84.8586 12.16C84.8586 13.248 84.5226 14.096 83.8506 14.704C83.1786 15.312 82.24 15.616 81.0346 15.616H78.1706V20H76.1066V8.72ZM80.7786 14.032C82.1973 14.032 82.9066 13.4133 82.9066 12.176C82.9066 11.5467 82.7306 11.0827 82.3786 10.784C82.0266 10.4747 81.4933 10.32 80.7786 10.32H78.1706V14.032H80.7786ZM91.4889 13.648L90.3209 13.76C88.9982 13.8987 88.3369 14.5707 88.3369 15.776V20H86.3369V12.176H88.2409V13.552C88.6462 12.6133 89.4835 12.1013 90.7529 12.016L91.3609 11.968L91.4889 13.648ZM95.8736 20.128C95.0736 20.128 94.3696 19.9627 93.7616 19.632C93.1643 19.3013 92.7003 18.8267 92.3696 18.208C92.039 17.5893 91.8736 16.8693 91.8736 16.048C91.8736 15.2267 92.039 14.512 92.3696 13.904C92.7003 13.2853 93.1643 12.8107 93.7616 12.48C94.3696 12.1493 95.0736 11.984 95.8736 11.984C96.6736 11.984 97.3723 12.1493 97.9696 12.48C98.5776 12.8107 99.0416 13.2853 99.3616 13.904C99.6923 14.512 99.8576 15.2267 99.8576 16.048C99.8576 16.8693 99.6923 17.5893 99.3616 18.208C99.0416 18.8267 98.5776 19.3013 97.9696 19.632C97.3723 19.9627 96.6736 20.128 95.8736 20.128ZM95.8576 18.576C96.5083 18.576 97.0043 18.3627 97.3456 17.936C97.687 17.5093 97.8576 16.88 97.8576 16.048C97.8576 15.2267 97.687 14.6027 97.3456 14.176C97.0043 13.7387 96.5136 13.52 95.8736 13.52C95.2336 13.52 94.7376 13.7387 94.3856 14.176C94.0443 14.6027 93.8736 15.2267 93.8736 16.048C93.8736 16.88 94.0443 17.5093 94.3856 17.936C94.727 18.3627 95.2176 18.576 95.8576 18.576ZM105.462 18.624C105.697 18.624 105.942 18.608 106.198 18.576L106.102 20.064C105.782 20.096 105.489 20.112 105.222 20.112C104.123 20.112 103.313 19.8613 102.79 19.36C102.267 18.848 102.006 18.0907 102.006 17.088V13.68H100.502V12.176H102.006V9.84H104.006V12.176H106.07V13.68H104.006V17.056C104.006 18.1013 104.491 18.624 105.462 18.624ZM110.936 20.128C110.136 20.128 109.432 19.9627 108.824 19.632C108.227 19.3013 107.763 18.8267 107.432 18.208C107.101 17.5893 106.936 16.8693 106.936 16.048C106.936 15.2267 107.101 14.512 107.432 13.904C107.763 13.2853 108.227 12.8107 108.824 12.48C109.432 12.1493 110.136 11.984 110.936 11.984C111.736 11.984 112.435 12.1493 113.032 12.48C113.64 12.8107 114.104 13.2853 114.424 13.904C114.755 14.512 114.92 15.2267 114.92 16.048C114.92 16.8693 114.755 17.5893 114.424 18.208C114.104 18.8267 113.64 19.3013 113.032 19.632C112.435 19.9627 111.736 20.128 110.936 20.128ZM110.92 18.576C111.571 18.576 112.067 18.3627 112.408 17.936C112.749 17.5093 112.92 16.88 112.92 16.048C112.92 15.2267 112.749 14.6027 112.408 14.176C112.067 13.7387 111.576 13.52 110.936 13.52C110.296 13.52 109.8 13.7387 109.448 14.176C109.107 14.6027 108.936 15.2267 108.936 16.048C108.936 16.88 109.107 17.5093 109.448 17.936C109.789 18.3627 110.28 18.576 110.92 18.576ZM120.524 18.624C120.759 18.624 121.004 18.608 121.26 18.576L121.164 20.064C120.844 20.096 120.551 20.112 120.284 20.112C119.186 20.112 118.375 19.8613 117.852 19.36C117.33 18.848 117.068 18.0907 117.068 17.088V13.68H115.564V12.176H117.068V9.84H119.068V12.176H121.132V13.68H119.068V17.056C119.068 18.1013 119.554 18.624 120.524 18.624ZM130.012 12.192L125.308 22.88H123.292L124.716 19.696L121.452 12.192H123.564L125.772 17.712L128.044 12.192H130.012ZM135.474 11.984C136.146 11.984 136.743 12.1547 137.266 12.496C137.799 12.8373 138.21 13.3227 138.498 13.952C138.796 14.5707 138.946 15.2853 138.946 16.096C138.946 16.9067 138.796 17.616 138.498 18.224C138.21 18.832 137.804 19.3013 137.282 19.632C136.759 19.9627 136.156 20.128 135.474 20.128C134.919 20.128 134.423 20.0107 133.986 19.776C133.548 19.5413 133.212 19.216 132.978 18.8V22.88H130.978V12.176H132.946V13.36C133.18 12.9227 133.516 12.5867 133.954 12.352C134.402 12.1067 134.908 11.984 135.474 11.984ZM134.946 18.576C135.575 18.576 136.066 18.3627 136.418 17.936C136.77 17.4987 136.946 16.8853 136.946 16.096C136.946 15.2853 136.77 14.656 136.418 14.208C136.066 13.76 135.575 13.536 134.946 13.536C134.306 13.536 133.81 13.7547 133.458 14.192C133.116 14.6293 132.946 15.2533 132.946 16.064C132.946 16.864 133.116 17.4827 133.458 17.92C133.81 18.3573 134.306 18.576 134.946 18.576ZM147.451 16.448H142.123C142.187 17.1733 142.406 17.712 142.779 18.064C143.152 18.416 143.686 18.592 144.379 18.592C145.243 18.592 146.032 18.3147 146.747 17.76L147.323 19.136C146.96 19.4347 146.502 19.6747 145.947 19.856C145.403 20.0373 144.854 20.128 144.299 20.128C143.019 20.128 142.006 19.7653 141.259 19.04C140.523 18.3147 140.155 17.3227 140.155 16.064C140.155 15.264 140.315 14.5547 140.635 13.936C140.955 13.3173 141.403 12.8373 141.979 12.496C142.566 12.1547 143.227 11.984 143.963 11.984C145.04 11.984 145.888 12.3307 146.507 13.024C147.136 13.7173 147.451 14.672 147.451 15.888V16.448ZM144.011 13.392C143.478 13.392 143.046 13.5627 142.715 13.904C142.395 14.2453 142.198 14.736 142.123 15.376H145.739C145.718 14.7253 145.558 14.2347 145.259 13.904C144.96 13.5627 144.544 13.392 144.011 13.392Z" fill="white"/>
</svg>
