<svg width="83" height="36" viewBox="0 0 83 36" fill="none" xmlns="http://www.w3.org/2000/svg">
<rect width="83" height="36" rx="3" fill="#0097A7"/>
<path d="M12.4191 12.72H16.5791C18.4245 12.72 19.8538 13.216 20.8671 14.208C21.8911 15.1893 22.4031 16.5707 22.4031 18.352C22.4031 20.1333 21.8911 21.52 20.8671 22.512C19.8538 23.504 18.4245 24 16.5791 24H12.4191V12.72ZM16.4511 22.32C19.0431 22.32 20.3391 20.9973 20.3391 18.352C20.3391 15.7173 19.0431 14.4 16.4511 14.4H14.4831V22.32H16.4511ZM31.1696 20.448H25.8416C25.9056 21.1733 26.1243 21.712 26.4976 22.064C26.871 22.416 27.4043 22.592 28.0976 22.592C28.9616 22.592 29.751 22.3147 30.4656 21.76L31.0416 23.136C30.679 23.4347 30.2203 23.6747 29.6656 23.856C29.1216 24.0373 28.5723 24.128 28.0176 24.128C26.7376 24.128 25.7243 23.7653 24.9776 23.04C24.2416 22.3147 23.8736 21.3227 23.8736 20.064C23.8736 19.264 24.0336 18.5547 24.3536 17.936C24.6736 17.3173 25.1216 16.8373 25.6976 16.496C26.2843 16.1547 26.9456 15.984 27.6816 15.984C28.759 15.984 29.607 16.3307 30.2256 17.024C30.855 17.7173 31.1696 18.672 31.1696 19.888V20.448ZM27.7296 17.392C27.1963 17.392 26.7643 17.5627 26.4336 17.904C26.1136 18.2453 25.9163 18.736 25.8416 19.376H29.4576C29.4363 18.7253 29.2763 18.2347 28.9776 17.904C28.679 17.5627 28.263 17.392 27.7296 17.392ZM35.6856 24.128C34.9923 24.128 34.3523 24.0427 33.7656 23.872C33.1896 23.7013 32.699 23.456 32.2936 23.136L32.8536 21.744C33.6856 22.352 34.6403 22.656 35.7176 22.656C36.1763 22.656 36.523 22.5813 36.7576 22.432C37.003 22.2827 37.1256 22.0693 37.1256 21.792C37.1256 21.5573 37.0403 21.376 36.8696 21.248C36.7096 21.12 36.4163 21.0027 35.9896 20.896L34.7096 20.608C33.9843 20.448 33.4456 20.1867 33.0936 19.824C32.7416 19.4613 32.5656 18.992 32.5656 18.416C32.5656 17.936 32.699 17.5147 32.9656 17.152C33.243 16.7787 33.6216 16.4907 34.1016 16.288C34.5923 16.0853 35.1576 15.984 35.7976 15.984C36.3523 15.984 36.8856 16.0693 37.3976 16.24C37.9203 16.4107 38.379 16.6507 38.7736 16.96L38.2136 18.32C37.403 17.7333 36.5923 17.44 35.7816 17.44C35.3443 17.44 35.003 17.52 34.7576 17.68C34.5123 17.84 34.3896 18.064 34.3896 18.352C34.3896 18.5653 34.4643 18.7413 34.6136 18.88C34.7736 19.0187 35.0243 19.1253 35.3656 19.2L36.6936 19.504C37.4723 19.6747 38.043 19.9467 38.4056 20.32C38.7683 20.6827 38.9496 21.1627 38.9496 21.76C38.9496 22.4853 38.6563 23.0613 38.0696 23.488C37.483 23.9147 36.6883 24.128 35.6856 24.128ZM45.9313 24L42.5713 20.432V24H40.5713V12.72H42.5713V19.6L45.7233 16.192H48.1553L44.6353 19.936L48.4113 24H45.9313ZM53.1181 22.624C53.3528 22.624 53.5981 22.608 53.8541 22.576L53.7581 24.064C53.4381 24.096 53.1448 24.112 52.8781 24.112C51.7795 24.112 50.9688 23.8613 50.4461 23.36C49.9235 22.848 49.6621 22.0907 49.6621 21.088V17.68H48.1581V16.176H49.6621V13.84H51.6621V16.176H53.7261V17.68H51.6621V21.056C51.6621 22.1013 52.1475 22.624 53.1181 22.624ZM58.5924 24.128C57.7924 24.128 57.0884 23.9627 56.4804 23.632C55.883 23.3013 55.419 22.8267 55.0884 22.208C54.7577 21.5893 54.5924 20.8693 54.5924 20.048C54.5924 19.2267 54.7577 18.512 55.0884 17.904C55.419 17.2853 55.883 16.8107 56.4804 16.48C57.0884 16.1493 57.7924 15.984 58.5924 15.984C59.3924 15.984 60.091 16.1493 60.6884 16.48C61.2964 16.8107 61.7604 17.2853 62.0804 17.904C62.411 18.512 62.5764 19.2267 62.5764 20.048C62.5764 20.8693 62.411 21.5893 62.0804 22.208C61.7604 22.8267 61.2964 23.3013 60.6884 23.632C60.091 23.9627 59.3924 24.128 58.5924 24.128ZM58.5764 22.576C59.227 22.576 59.723 22.3627 60.0644 21.936C60.4057 21.5093 60.5764 20.88 60.5764 20.048C60.5764 19.2267 60.4057 18.6027 60.0644 18.176C59.723 17.7387 59.2324 17.52 58.5924 17.52C57.9524 17.52 57.4564 17.7387 57.1044 18.176C56.763 18.6027 56.5924 19.2267 56.5924 20.048C56.5924 20.88 56.763 21.5093 57.1044 21.936C57.4457 22.3627 57.9364 22.576 58.5764 22.576ZM68.7235 15.984C69.3955 15.984 69.9928 16.1547 70.5155 16.496C71.0488 16.8373 71.4595 17.3227 71.7475 17.952C72.0462 18.5707 72.1955 19.2853 72.1955 20.096C72.1955 20.9067 72.0462 21.616 71.7475 22.224C71.4595 22.832 71.0542 23.3013 70.5315 23.632C70.0088 23.9627 69.4062 24.128 68.7235 24.128C68.1688 24.128 67.6728 24.0107 67.2355 23.776C66.7982 23.5413 66.4622 23.216 66.2275 22.8V26.88H64.2275V16.176H66.1955V17.36C66.4302 16.9227 66.7662 16.5867 67.2035 16.352C67.6515 16.1067 68.1582 15.984 68.7235 15.984ZM68.1955 22.576C68.8248 22.576 69.3155 22.3627 69.6675 21.936C70.0195 21.4987 70.1955 20.8853 70.1955 20.096C70.1955 19.2853 70.0195 18.656 69.6675 18.208C69.3155 17.76 68.8248 17.536 68.1955 17.536C67.5555 17.536 67.0595 17.7547 66.7075 18.192C66.3662 18.6293 66.1955 19.2533 66.1955 20.064C66.1955 20.864 66.3662 21.4827 66.7075 21.92C67.0595 22.3573 67.5555 22.576 68.1955 22.576Z" fill="white"/>
</svg>
