<svg width="611" height="595" viewBox="0 0 611 595" fill="none" xmlns="http://www.w3.org/2000/svg">
<path opacity="0.4" d="M24.5 45C12.5002 63.5 19.3999 131.126 24.5 155C59.0002 316.5 609.5 96.4997 609.5 402.499C609.5 708.499 254 455 254 593.5" stroke="#0097A7" stroke-opacity="0.5" stroke-width="1.5" stroke-linecap="round" stroke-linejoin="round" stroke-dasharray="8 8"/>
<mask id="path-2-outside-1" maskUnits="userSpaceOnUse" x="0" y="0" width="47" height="56" fill="black">
<rect fill="white" width="47" height="56"/>
<path fill-rule="evenodd" clip-rule="evenodd" d="M46 54.4944L40.4977 1L1 37.5082L15.6339 35.0646L20.7567 42.1823L35.5973 13.9075L28.035 44.9501L36.6448 42.9627L46 54.4944Z"/>
</mask>
<path fill-rule="evenodd" clip-rule="evenodd" d="M46 54.4944L40.4977 1L1 37.5082L15.6339 35.0646L20.7567 42.1823L35.5973 13.9075L28.035 44.9501L36.6448 42.9627L46 54.4944Z" fill="#0097A7"/>
<path d="M40.4977 1L41.4925 0.897683L39.819 0.265649L40.4977 1ZM46 54.4944L45.2234 55.1244L46.9948 54.3921L46 54.4944ZM1 37.5082L0.321231 36.7739L1.1647 38.4946L1 37.5082ZM15.6339 35.0646L16.4456 34.4804L15.4692 34.0782L15.6339 35.0646ZM20.7567 42.1823L19.945 42.7664L21.6421 42.647L20.7567 42.1823ZM35.5973 13.9075L36.5689 14.1442L34.7119 13.4427L35.5973 13.9075ZM28.035 44.9501L27.0634 44.7134L28.2599 45.9245L28.035 44.9501ZM36.6448 42.9627L37.4214 42.3327L36.4199 41.9883L36.6448 42.9627ZM39.503 1.10232L45.0052 54.5967L46.9948 54.3921L41.4925 0.897683L39.503 1.10232ZM1.67877 38.2426L41.1765 1.73435L39.819 0.265649L0.321231 36.7739L1.67877 38.2426ZM15.4692 34.0782L0.835296 36.5219L1.1647 38.4946L15.7986 36.0509L15.4692 34.0782ZM21.5683 41.5981L16.4456 34.4804L14.8223 35.6487L19.945 42.7664L21.5683 41.5981ZM21.6421 42.647L36.4828 14.3722L34.7119 13.4427L19.8712 41.7175L21.6421 42.647ZM34.6257 13.6708L27.0634 44.7134L29.0065 45.1868L36.5689 14.1442L34.6257 13.6708ZM36.4199 41.9883L27.81 43.9757L28.2599 45.9245L36.8697 43.9371L36.4199 41.9883ZM46.7766 53.8644L37.4214 42.3327L35.8682 43.5927L45.2234 55.1244L46.7766 53.8644Z" fill="#0097A7" mask="url(#path-2-outside-1)"/>
</svg>
