<svg width="170" height="37" viewBox="0 0 170 37" fill="none" xmlns="http://www.w3.org/2000/svg">
<rect x="0.5" y="0.5" width="169" height="36" rx="2.5" fill="white" stroke="#0097A7"/>
<path d="M25.6101 12.5433L19.9581 25.2333H18.0681L12.4161 12.5433H14.8101L19.0221 22.3533L23.2521 12.5433H25.6101ZM26.5977 16.4313H28.8477V25.2333H26.5977V16.4313ZM28.9557 12.3453V14.5593H26.4717V12.3453H28.9557ZM38.89 21.2373H32.896C32.968 22.0533 33.214 22.6593 33.634 23.0553C34.054 23.4513 34.654 23.6493 35.434 23.6493C36.406 23.6493 37.294 23.3373 38.098 22.7133L38.746 24.2613C38.338 24.5973 37.822 24.8673 37.198 25.0713C36.586 25.2753 35.968 25.3773 35.344 25.3773C33.904 25.3773 32.764 24.9693 31.924 24.1533C31.096 23.3373 30.682 22.2213 30.682 20.8053C30.682 19.9053 30.862 19.1073 31.222 18.4113C31.582 17.7153 32.086 17.1753 32.734 16.7913C33.394 16.4073 34.138 16.2153 34.966 16.2153C36.178 16.2153 37.132 16.6053 37.828 17.3853C38.536 18.1653 38.89 19.2393 38.89 20.6073V21.2373ZM35.02 17.7993C34.42 17.7993 33.934 17.9913 33.562 18.3753C33.202 18.7593 32.98 19.3113 32.896 20.0313H36.964C36.94 19.2993 36.76 18.7473 36.424 18.3753C36.088 17.9913 35.62 17.7993 35.02 17.7993ZM54.6659 16.4313L51.2099 25.2333H49.2479L47.0879 19.5633L44.9819 25.2333H43.0379L39.5639 16.4313H41.8679L44.1179 22.5513L46.3679 16.4313H47.9879L50.2379 22.5873L52.4699 16.4313H54.6659ZM72.1427 12.5433V25.2333H69.8747V19.7253H63.3767V25.2333H61.0907V12.5433H63.3767V17.8533H69.8747V12.5433H72.1427ZM74.6739 16.4313H76.9239V25.2333H74.6739V16.4313ZM77.0319 12.3453V14.5593H74.5479V12.3453H77.0319ZM79.4422 12.5433H87.7582V14.3973H81.7282V17.8533H87.3982V19.7073H81.7282V25.2333H79.4422V12.5433ZM89.4395 16.4313H91.6895V25.2333H89.4395V16.4313ZM91.7975 12.3453V14.5593H89.3135V12.3453H91.7975ZM99.0946 12.5433H101.417V25.2333H99.0946V12.5433ZM114.417 16.2153C115.413 16.2153 116.157 16.5153 116.649 17.1153C117.141 17.7033 117.387 18.6093 117.387 19.8333V25.2333H115.137V19.9233C115.137 19.2513 115.023 18.7653 114.795 18.4653C114.567 18.1533 114.201 17.9973 113.697 17.9973C113.097 17.9973 112.629 18.2013 112.293 18.6093C111.957 19.0173 111.789 19.5873 111.789 20.3193V25.2333H109.539V19.9233C109.539 19.2513 109.425 18.7653 109.197 18.4653C108.981 18.1533 108.615 17.9973 108.099 17.9973C107.511 17.9973 107.049 18.2013 106.713 18.6093C106.377 19.0173 106.209 19.5873 106.209 20.3193V25.2333H103.959V16.4313H106.155V17.6733C106.419 17.1933 106.785 16.8333 107.253 16.5933C107.721 16.3413 108.255 16.2153 108.855 16.2153C110.187 16.2153 111.069 16.7673 111.501 17.8713C111.777 17.3553 112.173 16.9533 112.689 16.6653C113.205 16.3653 113.781 16.2153 114.417 16.2153ZM123.454 16.2153C124.69 16.2153 125.608 16.5153 126.208 17.1153C126.808 17.7153 127.108 18.6393 127.108 19.8873V25.2333H124.966V23.8833C124.762 24.3513 124.438 24.7173 123.994 24.9813C123.562 25.2453 123.058 25.3773 122.482 25.3773C121.894 25.3773 121.36 25.2573 120.88 25.0173C120.4 24.7773 120.022 24.4473 119.746 24.0273C119.47 23.6073 119.332 23.1393 119.332 22.6233C119.332 21.9753 119.494 21.4653 119.818 21.0933C120.154 20.7213 120.694 20.4513 121.438 20.2833C122.182 20.1153 123.208 20.0313 124.516 20.0313H124.966V19.6173C124.966 19.0173 124.834 18.5853 124.57 18.3213C124.318 18.0573 123.892 17.9253 123.292 17.9253C122.824 17.9253 122.332 18.0093 121.816 18.1773C121.312 18.3333 120.814 18.5553 120.322 18.8433L119.692 17.2953C120.184 16.9833 120.778 16.7253 121.474 16.5213C122.17 16.3173 122.83 16.2153 123.454 16.2153ZM122.932 23.7573C123.532 23.7573 124.018 23.5593 124.39 23.1633C124.774 22.7553 124.966 22.2333 124.966 21.5973V21.2193H124.642C123.838 21.2193 123.214 21.2553 122.77 21.3273C122.326 21.3993 122.008 21.5253 121.816 21.7053C121.624 21.8853 121.528 22.1313 121.528 22.4433C121.528 22.8273 121.66 23.1453 121.924 23.3973C122.188 23.6373 122.524 23.7573 122.932 23.7573ZM137.963 16.4313V24.4233C137.963 25.8033 137.579 26.8473 136.811 27.5553C136.055 28.2633 134.933 28.6173 133.445 28.6173C132.677 28.6173 131.939 28.5153 131.231 28.3113C130.523 28.1193 129.905 27.8433 129.377 27.4833L130.007 25.8993C131.099 26.5593 132.227 26.8893 133.391 26.8893C134.951 26.8893 135.731 26.1213 135.731 24.5853V23.4333C135.467 23.9253 135.083 24.3093 134.579 24.5853C134.075 24.8493 133.499 24.9813 132.851 24.9813C132.083 24.9813 131.399 24.8013 130.799 24.4413C130.211 24.0693 129.749 23.5533 129.413 22.8933C129.077 22.2333 128.909 21.4713 128.909 20.6073C128.909 19.7433 129.071 18.9813 129.395 18.3213C129.731 17.6493 130.199 17.1333 130.799 16.7733C131.399 16.4013 132.083 16.2153 132.851 16.2153C133.499 16.2153 134.075 16.3533 134.579 16.6293C135.083 16.8933 135.467 17.2713 135.731 17.7633V16.4313H137.963ZM133.445 23.2353C134.165 23.2353 134.723 23.0013 135.119 22.5333C135.527 22.0653 135.731 21.4233 135.731 20.6073C135.731 19.7793 135.527 19.1313 135.119 18.6633C134.723 18.1953 134.165 17.9613 133.445 17.9613C132.737 17.9613 132.179 18.1953 131.771 18.6633C131.363 19.1313 131.159 19.7793 131.159 20.6073C131.159 21.4113 131.363 22.0533 131.771 22.5333C132.179 23.0013 132.737 23.2353 133.445 23.2353ZM148.015 21.2373H142.021C142.093 22.0533 142.339 22.6593 142.759 23.0553C143.179 23.4513 143.779 23.6493 144.559 23.6493C145.531 23.6493 146.419 23.3373 147.223 22.7133L147.871 24.2613C147.463 24.5973 146.947 24.8673 146.323 25.0713C145.711 25.2753 145.093 25.3773 144.469 25.3773C143.029 25.3773 141.889 24.9693 141.049 24.1533C140.221 23.3373 139.807 22.2213 139.807 20.8053C139.807 19.9053 139.987 19.1073 140.347 18.4113C140.707 17.7153 141.211 17.1753 141.859 16.7913C142.519 16.4073 143.263 16.2153 144.091 16.2153C145.303 16.2153 146.257 16.6053 146.953 17.3853C147.661 18.1653 148.015 19.2393 148.015 20.6073V21.2373ZM144.145 17.7993C143.545 17.7993 143.059 17.9913 142.687 18.3753C142.327 18.7593 142.105 19.3113 142.021 20.0313H146.089C146.065 19.2993 145.885 18.7473 145.549 18.3753C145.213 17.9913 144.745 17.7993 144.145 17.7993ZM153.096 25.3773C152.316 25.3773 151.596 25.2813 150.936 25.0893C150.288 24.8973 149.736 24.6213 149.28 24.2613L149.91 22.6953C150.846 23.3793 151.92 23.7213 153.132 23.7213C153.648 23.7213 154.038 23.6373 154.302 23.4693C154.578 23.3013 154.716 23.0613 154.716 22.7493C154.716 22.4853 154.62 22.2813 154.428 22.1373C154.248 21.9933 153.918 21.8613 153.438 21.7413L151.998 21.4173C151.182 21.2373 150.576 20.9433 150.18 20.5353C149.784 20.1273 149.586 19.5993 149.586 18.9513C149.586 18.4113 149.736 17.9373 150.036 17.5293C150.348 17.1093 150.774 16.7853 151.314 16.5573C151.866 16.3293 152.502 16.2153 153.222 16.2153C153.846 16.2153 154.446 16.3113 155.022 16.5033C155.61 16.6953 156.126 16.9653 156.57 17.3133L155.94 18.8433C155.028 18.1833 154.116 17.8533 153.204 17.8533C152.712 17.8533 152.328 17.9433 152.052 18.1233C151.776 18.3033 151.638 18.5553 151.638 18.8793C151.638 19.1193 151.722 19.3173 151.89 19.4733C152.07 19.6293 152.352 19.7493 152.736 19.8333L154.23 20.1753C155.106 20.3673 155.748 20.6733 156.156 21.0933C156.564 21.5013 156.768 22.0413 156.768 22.7133C156.768 23.5293 156.438 24.1773 155.778 24.6573C155.118 25.1373 154.224 25.3773 153.096 25.3773Z" fill="#0D47A1"/>
</svg>
