<svg width="144" height="30" viewBox="0 0 144 30" fill="none" xmlns="http://www.w3.org/2000/svg">
<rect width="144" height="30" rx="3" fill="#0097A7"/>
<path d="M21.0287 8.72V20H19.2047V12.544L16.2287 18.176H14.8527L11.8607 12.624L11.8767 20H10.0527V8.72H11.6847L15.5567 16.096L19.4127 8.72H21.0287ZM26.8658 20.128C26.0658 20.128 25.3618 19.9627 24.7538 19.632C24.1565 19.3013 23.6925 18.8267 23.3618 18.208C23.0311 17.5893 22.8658 16.8693 22.8658 16.048C22.8658 15.2267 23.0311 14.512 23.3618 13.904C23.6925 13.2853 24.1565 12.8107 24.7538 12.48C25.3618 12.1493 26.0658 11.984 26.8658 11.984C27.6658 11.984 28.3645 12.1493 28.9618 12.48C29.5698 12.8107 30.0338 13.2853 30.3538 13.904C30.6845 14.512 30.8498 15.2267 30.8498 16.048C30.8498 16.8693 30.6845 17.5893 30.3538 18.208C30.0338 18.8267 29.5698 19.3013 28.9618 19.632C28.3645 19.9627 27.6658 20.128 26.8658 20.128ZM26.8498 18.576C27.5005 18.576 27.9965 18.3627 28.3378 17.936C28.6791 17.5093 28.8498 16.88 28.8498 16.048C28.8498 15.2267 28.6791 14.6027 28.3378 14.176C27.9965 13.7387 27.5058 13.52 26.8658 13.52C26.2258 13.52 25.7298 13.7387 25.3778 14.176C25.0365 14.6027 24.8658 15.2267 24.8658 16.048C24.8658 16.88 25.0365 17.5093 25.3778 17.936C25.7191 18.3627 26.2098 18.576 26.8498 18.576ZM36.9969 11.984C37.6796 11.984 38.2823 12.1493 38.8049 12.48C39.3276 12.8107 39.7329 13.28 40.0209 13.888C40.3196 14.496 40.4689 15.2053 40.4689 16.016C40.4689 16.8267 40.3196 17.5467 40.0209 18.176C39.7329 18.7947 39.3223 19.2747 38.7889 19.616C38.2663 19.9573 37.6689 20.128 36.9969 20.128C36.4316 20.128 35.9249 20.0053 35.4769 19.76C35.0396 19.5147 34.7036 19.1733 34.4689 18.736V20H32.5009V8.72H34.5009V13.312C34.7356 12.8853 35.0716 12.56 35.5089 12.336C35.9463 12.1013 36.4423 11.984 36.9969 11.984ZM36.4689 18.576C37.0983 18.576 37.5889 18.352 37.9409 17.904C38.2929 17.456 38.4689 16.8267 38.4689 16.016C38.4689 15.216 38.2929 14.6027 37.9409 14.176C37.5996 13.7493 37.1089 13.536 36.4689 13.536C35.8289 13.536 35.3329 13.7547 34.9809 14.192C34.6396 14.6187 34.4689 15.2373 34.4689 16.048C34.4689 16.8587 34.6396 17.4827 34.9809 17.92C35.3329 18.3573 35.8289 18.576 36.4689 18.576ZM42.1103 12.176H44.1103V20H42.1103V12.176ZM44.2063 8.544V10.512H41.9983V8.544H44.2063ZM46.1728 8.72H48.1728V20H46.1728V8.72ZM57.0993 16.448H51.7713C51.8353 17.1733 52.054 17.712 52.4273 18.064C52.8006 18.416 53.334 18.592 54.0273 18.592C54.8913 18.592 55.6806 18.3147 56.3953 17.76L56.9713 19.136C56.6086 19.4347 56.15 19.6747 55.5953 19.856C55.0513 20.0373 54.502 20.128 53.9473 20.128C52.6673 20.128 51.654 19.7653 50.9073 19.04C50.1713 18.3147 49.8033 17.3227 49.8033 16.064C49.8033 15.264 49.9633 14.5547 50.2833 13.936C50.6033 13.3173 51.0513 12.8373 51.6273 12.496C52.214 12.1547 52.8753 11.984 53.6113 11.984C54.6886 11.984 55.5366 12.3307 56.1553 13.024C56.7846 13.7173 57.0993 14.672 57.0993 15.888V16.448ZM53.6593 13.392C53.126 13.392 52.694 13.5627 52.3633 13.904C52.0433 14.2453 51.846 14.736 51.7713 15.376H55.3873C55.366 14.7253 55.206 14.2347 54.9073 13.904C54.6086 13.5627 54.1926 13.392 53.6593 13.392ZM63.2551 8.72H68.1831C69.3884 8.72 70.3271 9.024 70.9991 9.632C71.6711 10.2293 72.0071 11.072 72.0071 12.16C72.0071 13.248 71.6711 14.096 70.9991 14.704C70.3271 15.312 69.3884 15.616 68.1831 15.616H65.3191V20H63.2551V8.72ZM67.9271 14.032C69.3457 14.032 70.0551 13.4133 70.0551 12.176C70.0551 11.5467 69.8791 11.0827 69.5271 10.784C69.1751 10.4747 68.6417 10.32 67.9271 10.32H65.3191V14.032H67.9271ZM78.6373 13.648L77.4693 13.76C76.1466 13.8987 75.4853 14.5707 75.4853 15.776V20H73.4853V12.176H75.3893V13.552C75.7946 12.6133 76.632 12.1013 77.9013 12.016L78.5093 11.968L78.6373 13.648ZM83.0221 20.128C82.2221 20.128 81.5181 19.9627 80.9101 19.632C80.3127 19.3013 79.8487 18.8267 79.5181 18.208C79.1874 17.5893 79.0221 16.8693 79.0221 16.048C79.0221 15.2267 79.1874 14.512 79.5181 13.904C79.8487 13.2853 80.3127 12.8107 80.9101 12.48C81.5181 12.1493 82.2221 11.984 83.0221 11.984C83.8221 11.984 84.5207 12.1493 85.1181 12.48C85.7261 12.8107 86.1901 13.2853 86.5101 13.904C86.8407 14.512 87.0061 15.2267 87.0061 16.048C87.0061 16.8693 86.8407 17.5893 86.5101 18.208C86.1901 18.8267 85.7261 19.3013 85.1181 19.632C84.5207 19.9627 83.8221 20.128 83.0221 20.128ZM83.0061 18.576C83.6567 18.576 84.1527 18.3627 84.4941 17.936C84.8354 17.5093 85.0061 16.88 85.0061 16.048C85.0061 15.2267 84.8354 14.6027 84.4941 14.176C84.1527 13.7387 83.6621 13.52 83.0221 13.52C82.3821 13.52 81.8861 13.7387 81.5341 14.176C81.1927 14.6027 81.0221 15.2267 81.0221 16.048C81.0221 16.88 81.1927 17.5093 81.5341 17.936C81.8754 18.3627 82.3661 18.576 83.0061 18.576ZM92.6103 18.624C92.845 18.624 93.0903 18.608 93.3463 18.576L93.2503 20.064C92.9303 20.096 92.637 20.112 92.3703 20.112C91.2716 20.112 90.461 19.8613 89.9383 19.36C89.4156 18.848 89.1543 18.0907 89.1543 17.088V13.68H87.6503V12.176H89.1543V9.84H91.1543V12.176H93.2183V13.68H91.1543V17.056C91.1543 18.1013 91.6396 18.624 92.6103 18.624ZM98.0846 20.128C97.2846 20.128 96.5806 19.9627 95.9726 19.632C95.3752 19.3013 94.9112 18.8267 94.5806 18.208C94.2499 17.5893 94.0846 16.8693 94.0846 16.048C94.0846 15.2267 94.2499 14.512 94.5806 13.904C94.9112 13.2853 95.3752 12.8107 95.9726 12.48C96.5806 12.1493 97.2846 11.984 98.0846 11.984C98.8846 11.984 99.5832 12.1493 100.181 12.48C100.789 12.8107 101.253 13.2853 101.573 13.904C101.903 14.512 102.069 15.2267 102.069 16.048C102.069 16.8693 101.903 17.5893 101.573 18.208C101.253 18.8267 100.789 19.3013 100.181 19.632C99.5832 19.9627 98.8846 20.128 98.0846 20.128ZM98.0686 18.576C98.7192 18.576 99.2152 18.3627 99.5566 17.936C99.8979 17.5093 100.069 16.88 100.069 16.048C100.069 15.2267 99.8979 14.6027 99.5566 14.176C99.2152 13.7387 98.7246 13.52 98.0846 13.52C97.4446 13.52 96.9486 13.7387 96.5966 14.176C96.2552 14.6027 96.0846 15.2267 96.0846 16.048C96.0846 16.88 96.2552 17.5093 96.5966 17.936C96.9379 18.3627 97.4286 18.576 98.0686 18.576ZM107.673 18.624C107.907 18.624 108.153 18.608 108.409 18.576L108.313 20.064C107.993 20.096 107.699 20.112 107.433 20.112C106.334 20.112 105.523 19.8613 105.001 19.36C104.478 18.848 104.217 18.0907 104.217 17.088V13.68H102.713V12.176H104.217V9.84H106.217V12.176H108.281V13.68H106.217V17.056C106.217 18.1013 106.702 18.624 107.673 18.624ZM117.16 12.192L112.456 22.88H110.44L111.864 19.696L108.6 12.192H110.712L112.92 17.712L115.192 12.192H117.16ZM122.622 11.984C123.294 11.984 123.891 12.1547 124.414 12.496C124.947 12.8373 125.358 13.3227 125.646 13.952C125.945 14.5707 126.094 15.2853 126.094 16.096C126.094 16.9067 125.945 17.616 125.646 18.224C125.358 18.832 124.953 19.3013 124.43 19.632C123.907 19.9627 123.305 20.128 122.622 20.128C122.067 20.128 121.571 20.0107 121.134 19.776C120.697 19.5413 120.361 19.216 120.126 18.8V22.88H118.126V12.176H120.094V13.36C120.329 12.9227 120.665 12.5867 121.102 12.352C121.55 12.1067 122.057 11.984 122.622 11.984ZM122.094 18.576C122.723 18.576 123.214 18.3627 123.566 17.936C123.918 17.4987 124.094 16.8853 124.094 16.096C124.094 15.2853 123.918 14.656 123.566 14.208C123.214 13.76 122.723 13.536 122.094 13.536C121.454 13.536 120.958 13.7547 120.606 14.192C120.265 14.6293 120.094 15.2533 120.094 16.064C120.094 16.864 120.265 17.4827 120.606 17.92C120.958 18.3573 121.454 18.576 122.094 18.576ZM134.599 16.448H129.271C129.335 17.1733 129.554 17.712 129.927 18.064C130.301 18.416 130.834 18.592 131.527 18.592C132.391 18.592 133.181 18.3147 133.895 17.76L134.471 19.136C134.109 19.4347 133.65 19.6747 133.095 19.856C132.551 20.0373 132.002 20.128 131.447 20.128C130.167 20.128 129.154 19.7653 128.407 19.04C127.671 18.3147 127.303 17.3227 127.303 16.064C127.303 15.264 127.463 14.5547 127.783 13.936C128.103 13.3173 128.551 12.8373 129.127 12.496C129.714 12.1547 130.375 11.984 131.111 11.984C132.189 11.984 133.037 12.3307 133.655 13.024C134.285 13.7173 134.599 14.672 134.599 15.888V16.448ZM131.159 13.392C130.626 13.392 130.194 13.5627 129.863 13.904C129.543 14.2453 129.346 14.736 129.271 15.376H132.887C132.866 14.7253 132.706 14.2347 132.407 13.904C132.109 13.5627 131.693 13.392 131.159 13.392Z" fill="white"/>
</svg>
