<svg width="64" height="36" viewBox="0 0 64 36" fill="none" xmlns="http://www.w3.org/2000/svg">
<rect width="64" height="36" rx="3" fill="#0097A7"/>
<path d="M21.2787 12.72V24H19.4547V16.544L16.4787 22.176H15.1027L12.1107 16.624L12.1267 24H10.3027V12.72H11.9347L15.8067 20.096L19.6627 12.72H21.2787ZM27.1158 24.128C26.3158 24.128 25.6118 23.9627 25.0038 23.632C24.4065 23.3013 23.9425 22.8267 23.6118 22.208C23.2811 21.5893 23.1158 20.8693 23.1158 20.048C23.1158 19.2267 23.2811 18.512 23.6118 17.904C23.9425 17.2853 24.4065 16.8107 25.0038 16.48C25.6118 16.1493 26.3158 15.984 27.1158 15.984C27.9158 15.984 28.6145 16.1493 29.2118 16.48C29.8198 16.8107 30.2838 17.2853 30.6038 17.904C30.9345 18.512 31.0998 19.2267 31.0998 20.048C31.0998 20.8693 30.9345 21.5893 30.6038 22.208C30.2838 22.8267 29.8198 23.3013 29.2118 23.632C28.6145 23.9627 27.9158 24.128 27.1158 24.128ZM27.0998 22.576C27.7505 22.576 28.2465 22.3627 28.5878 21.936C28.9291 21.5093 29.0998 20.88 29.0998 20.048C29.0998 19.2267 28.9291 18.6027 28.5878 18.176C28.2465 17.7387 27.7558 17.52 27.1158 17.52C26.4758 17.52 25.9798 17.7387 25.6278 18.176C25.2865 18.6027 25.1158 19.2267 25.1158 20.048C25.1158 20.88 25.2865 21.5093 25.6278 21.936C25.9691 22.3627 26.4598 22.576 27.0998 22.576ZM37.2469 15.984C37.9296 15.984 38.5323 16.1493 39.0549 16.48C39.5776 16.8107 39.9829 17.28 40.2709 17.888C40.5696 18.496 40.7189 19.2053 40.7189 20.016C40.7189 20.8267 40.5696 21.5467 40.2709 22.176C39.9829 22.7947 39.5723 23.2747 39.0389 23.616C38.5163 23.9573 37.9189 24.128 37.2469 24.128C36.6816 24.128 36.1749 24.0053 35.7269 23.76C35.2896 23.5147 34.9536 23.1733 34.7189 22.736V24H32.7509V12.72H34.7509V17.312C34.9856 16.8853 35.3216 16.56 35.7589 16.336C36.1963 16.1013 36.6923 15.984 37.2469 15.984ZM36.7189 22.576C37.3483 22.576 37.8389 22.352 38.1909 21.904C38.5429 21.456 38.7189 20.8267 38.7189 20.016C38.7189 19.216 38.5429 18.6027 38.1909 18.176C37.8496 17.7493 37.3589 17.536 36.7189 17.536C36.0789 17.536 35.5829 17.7547 35.2309 18.192C34.8896 18.6187 34.7189 19.2373 34.7189 20.048C34.7189 20.8587 34.8896 21.4827 35.2309 21.92C35.5829 22.3573 36.0789 22.576 36.7189 22.576ZM42.3603 16.176H44.3603V24H42.3603V16.176ZM44.4563 12.544V14.512H42.2483V12.544H44.4563ZM46.4228 12.72H48.4228V24H46.4228V12.72ZM57.3493 20.448H52.0213C52.0853 21.1733 52.304 21.712 52.6773 22.064C53.0506 22.416 53.584 22.592 54.2773 22.592C55.1413 22.592 55.9306 22.3147 56.6453 21.76L57.2213 23.136C56.8586 23.4347 56.4 23.6747 55.8453 23.856C55.3013 24.0373 54.752 24.128 54.1973 24.128C52.9173 24.128 51.904 23.7653 51.1573 23.04C50.4213 22.3147 50.0533 21.3227 50.0533 20.064C50.0533 19.264 50.2133 18.5547 50.5333 17.936C50.8533 17.3173 51.3013 16.8373 51.8773 16.496C52.464 16.1547 53.1253 15.984 53.8613 15.984C54.9386 15.984 55.7866 16.3307 56.4053 17.024C57.0346 17.7173 57.3493 18.672 57.3493 19.888V20.448ZM53.9093 17.392C53.376 17.392 52.944 17.5627 52.6133 17.904C52.2933 18.2453 52.096 18.736 52.0213 19.376H55.6373C55.616 18.7253 55.456 18.2347 55.1573 17.904C54.8586 17.5627 54.4426 17.392 53.9093 17.392Z" fill="white"/>
</svg>
