<svg width="166" height="37" viewBox="0 0 166 37" fill="none" xmlns="http://www.w3.org/2000/svg">
<rect x="0.5" y="0.5" width="165" height="36" rx="2.5" fill="white" stroke="#0097A7"/>
<path d="M24.8582 12.5433L19.2062 25.2333H17.3162L11.6642 12.5433H14.0582L18.2702 22.3533L22.5002 12.5433H24.8582ZM25.8458 16.4313H28.0958V25.2333H25.8458V16.4313ZM28.2038 12.3453V14.5593H25.7198V12.3453H28.2038ZM38.1381 21.2373H32.1441C32.2161 22.0533 32.4621 22.6593 32.8821 23.0553C33.3021 23.4513 33.9021 23.6493 34.6821 23.6493C35.6541 23.6493 36.5421 23.3373 37.3461 22.7133L37.9941 24.2613C37.5861 24.5973 37.0701 24.8673 36.4461 25.0713C35.8341 25.2753 35.2161 25.3773 34.5921 25.3773C33.1521 25.3773 32.0121 24.9693 31.1721 24.1533C30.3441 23.3373 29.9301 22.2213 29.9301 20.8053C29.9301 19.9053 30.1101 19.1073 30.4701 18.4113C30.8301 17.7153 31.3341 17.1753 31.9821 16.7913C32.6421 16.4073 33.3861 16.2153 34.2141 16.2153C35.4261 16.2153 36.3801 16.6053 37.0761 17.3853C37.7841 18.1653 38.1381 19.2393 38.1381 20.6073V21.2373ZM34.2681 17.7993C33.6681 17.7993 33.1821 17.9913 32.8101 18.3753C32.4501 18.7593 32.2281 19.3113 32.1441 20.0313H36.2121C36.1881 19.2993 36.0081 18.7473 35.6721 18.3753C35.3361 17.9913 34.8681 17.7993 34.2681 17.7993ZM53.914 16.4313L50.458 25.2333H48.496L46.336 19.5633L44.23 25.2333H42.286L38.812 16.4313H41.116L43.366 22.5513L45.616 16.4313H47.236L49.486 22.5873L51.718 16.4313H53.914ZM64.6407 25.3953C63.6687 25.3953 62.7567 25.2633 61.9047 24.9993C61.0527 24.7353 60.3327 24.3633 59.7447 23.8833L60.5187 22.1913C61.1307 22.6593 61.7727 23.0013 62.4447 23.2173C63.1287 23.4333 63.8667 23.5413 64.6587 23.5413C65.5347 23.5413 66.2067 23.3913 66.6747 23.0913C67.1547 22.7793 67.3947 22.3473 67.3947 21.7953C67.3947 21.3153 67.1727 20.9493 66.7287 20.6973C66.2967 20.4453 65.5707 20.2053 64.5507 19.9773C63.4947 19.7493 62.6367 19.4853 61.9767 19.1853C61.3167 18.8853 60.8187 18.5013 60.4827 18.0333C60.1467 17.5653 59.9787 16.9713 59.9787 16.2513C59.9787 15.5073 60.1827 14.8413 60.5907 14.2533C60.9987 13.6653 61.5747 13.2093 62.3187 12.8853C63.0627 12.5493 63.9207 12.3813 64.8927 12.3813C65.7807 12.3813 66.6267 12.5193 67.4307 12.7953C68.2347 13.0593 68.8947 13.4253 69.4107 13.8933L68.6367 15.5853C67.5087 14.6853 66.2607 14.2353 64.8927 14.2353C64.0767 14.2353 63.4287 14.4033 62.9487 14.7393C62.4807 15.0633 62.2467 15.5193 62.2467 16.1073C62.2467 16.5993 62.4567 16.9773 62.8767 17.2413C63.2967 17.5053 64.0107 17.7513 65.0187 17.9793C66.0867 18.2193 66.9507 18.4893 67.6107 18.7893C68.2827 19.0773 68.7927 19.4493 69.1407 19.9053C69.5007 20.3613 69.6807 20.9373 69.6807 21.6333C69.6807 22.3893 69.4767 23.0553 69.0687 23.6313C68.6727 24.1953 68.0907 24.6333 67.3227 24.9453C66.5667 25.2453 65.6727 25.3953 64.6407 25.3953ZM75.9962 23.6853C76.2602 23.6853 76.5362 23.6673 76.8242 23.6313L76.7162 25.3053C76.3562 25.3413 76.0262 25.3593 75.7262 25.3593C74.4902 25.3593 73.5782 25.0773 72.9902 24.5133C72.4022 23.9373 72.1082 23.0853 72.1082 21.9573V18.1233H70.4162V16.4313H72.1082V13.8033H74.3582V16.4313H76.6802V18.1233H74.3582V21.9213C74.3582 23.0973 74.9042 23.6853 75.9962 23.6853ZM86.6693 16.4493L81.3773 28.4733H79.1093L80.7113 24.8913L77.0393 16.4493H79.4153L81.8993 22.6593L84.4553 16.4493H86.6693ZM87.7559 12.5433H90.0059V25.2333H87.7559V12.5433ZM100.048 21.2373H94.0543C94.1263 22.0533 94.3723 22.6593 94.7923 23.0553C95.2123 23.4513 95.8123 23.6493 96.5923 23.6493C97.5643 23.6493 98.4523 23.3373 99.2563 22.7133L99.9043 24.2613C99.4963 24.5973 98.9803 24.8673 98.3563 25.0713C97.7443 25.2753 97.1263 25.3773 96.5023 25.3773C95.0623 25.3773 93.9223 24.9693 93.0823 24.1533C92.2543 23.3373 91.8403 22.2213 91.8403 20.8053C91.8403 19.9053 92.0203 19.1073 92.3803 18.4113C92.7403 17.7153 93.2443 17.1753 93.8923 16.7913C94.5523 16.4073 95.2963 16.2153 96.1243 16.2153C97.3363 16.2153 98.2903 16.6053 98.9863 17.3853C99.6943 18.1653 100.048 19.2393 100.048 20.6073V21.2373ZM96.1783 17.7993C95.5783 17.7993 95.0923 17.9913 94.7203 18.3753C94.3603 18.7593 94.1383 19.3113 94.0543 20.0313H98.1223C98.0983 19.2993 97.9183 18.7473 97.5823 18.3753C97.2463 17.9913 96.7783 17.7993 96.1783 17.7993ZM117.557 18.3753V24.4593C116.981 24.7473 116.279 24.9753 115.451 25.1433C114.635 25.3113 113.801 25.3953 112.949 25.3953C111.641 25.3953 110.507 25.1373 109.547 24.6213C108.587 24.0933 107.849 23.3433 107.333 22.3713C106.829 21.3873 106.577 20.2233 106.577 18.8793C106.577 17.5473 106.829 16.3953 107.333 15.4233C107.849 14.4393 108.575 13.6893 109.511 13.1733C110.459 12.6453 111.569 12.3813 112.841 12.3813C113.729 12.3813 114.563 12.5133 115.343 12.7773C116.123 13.0293 116.771 13.3953 117.287 13.8753L116.513 15.5493C115.925 15.0933 115.343 14.7693 114.767 14.5773C114.203 14.3733 113.579 14.2713 112.895 14.2713C111.587 14.2713 110.597 14.6613 109.925 15.4413C109.265 16.2093 108.935 17.3553 108.935 18.8793C108.935 21.9993 110.303 23.5593 113.039 23.5593C113.855 23.5593 114.671 23.4453 115.487 23.2173V20.0313H112.751V18.3753H117.557ZM128.059 16.4313V25.2333H125.863V23.8833C125.587 24.3633 125.215 24.7353 124.747 24.9993C124.279 25.2513 123.751 25.3773 123.163 25.3773C121.003 25.3773 119.923 24.1653 119.923 21.7413V16.4313H122.173V21.7593C122.173 22.3833 122.299 22.8453 122.551 23.1453C122.803 23.4453 123.199 23.5953 123.739 23.5953C124.363 23.5953 124.861 23.3913 125.233 22.9833C125.617 22.5633 125.809 22.0113 125.809 21.3273V16.4313H128.059ZM130.4 16.4313H132.65V25.2333H130.4V16.4313ZM132.758 12.3453V14.5593H130.274V12.3453H132.758ZM143.467 12.5433V25.2333H141.235V23.8113C140.971 24.3033 140.587 24.6873 140.083 24.9633C139.591 25.2393 139.027 25.3773 138.391 25.3773C137.635 25.3773 136.957 25.1853 136.357 24.8013C135.769 24.4173 135.307 23.8773 134.971 23.1813C134.647 22.4733 134.485 21.6633 134.485 20.7513C134.485 19.8393 134.647 19.0413 134.971 18.3573C135.307 17.6733 135.769 17.1453 136.357 16.7733C136.945 16.4013 137.623 16.2153 138.391 16.2153C139.027 16.2153 139.591 16.3473 140.083 16.6113C140.575 16.8753 140.953 17.2473 141.217 17.7273V12.5433H143.467ZM138.985 23.6313C139.705 23.6313 140.257 23.3853 140.641 22.8933C141.037 22.4013 141.235 21.6993 141.235 20.7873C141.235 19.8753 141.037 19.1793 140.641 18.6993C140.257 18.2073 139.711 17.9613 139.003 17.9613C138.283 17.9613 137.725 18.2013 137.329 18.6813C136.933 19.1613 136.735 19.8513 136.735 20.7513C136.735 21.6633 136.933 22.3713 137.329 22.8753C137.725 23.3793 138.277 23.6313 138.985 23.6313ZM153.503 21.2373H147.509C147.581 22.0533 147.827 22.6593 148.247 23.0553C148.667 23.4513 149.267 23.6493 150.047 23.6493C151.019 23.6493 151.907 23.3373 152.711 22.7133L153.359 24.2613C152.951 24.5973 152.435 24.8673 151.811 25.0713C151.199 25.2753 150.581 25.3773 149.957 25.3773C148.517 25.3773 147.377 24.9693 146.537 24.1533C145.709 23.3373 145.295 22.2213 145.295 20.8053C145.295 19.9053 145.475 19.1073 145.835 18.4113C146.195 17.7153 146.699 17.1753 147.347 16.7913C148.007 16.4073 148.751 16.2153 149.579 16.2153C150.791 16.2153 151.745 16.6053 152.441 17.3853C153.149 18.1653 153.503 19.2393 153.503 20.6073V21.2373ZM149.633 17.7993C149.033 17.7993 148.547 17.9913 148.175 18.3753C147.815 18.7593 147.593 19.3113 147.509 20.0313H151.577C151.553 19.2993 151.373 18.7473 151.037 18.3753C150.701 17.9913 150.233 17.7993 149.633 17.7993Z" fill="#0D47A1"/>
</svg>
