<svg width="38" height="43" viewBox="0 0 38 43" fill="none" xmlns="http://www.w3.org/2000/svg">
<path d="M17.1525 16.7044C13.74 20.415 12.5294 23.3945 13.5837 24.3354C14.6381 25.2762 19.7822 19.5301 19.7822 19.5301C19.7822 21.0761 19.4717 24.2079 20.0405 25.4448C20.7514 26.9909 26.0446 31.7303 26.7555 32.5034C27.3732 33.175 29.3382 41.5162 29.8107 41.893C30.2832 42.2698 31.4044 41.7979 31.6626 41.5162C31.9209 41.2346 30.6296 31.94 30.3713 31.3767L30.3713 31.3767C30.113 30.8133 28.5634 27.4336 27.5303 25.7437C26.7555 20.0934 30.0416 14.3487 26.7555 11.661C24.6894 9.97109 21.4182 12.0661 17.1525 16.7044Z" fill="#0D47A1"/>
<path d="M13.3255 25.1804C11.8538 23.7997 11.279 28.6032 9.33213 28.3C7.38525 27.9969 7.28828 27.2467 5.57736 27.4163C2.73639 27.698 0.670227 34.1932 0.153687 36.7281C0.670227 37.573 3.5112 39.263 3.5112 39.263C3.5112 39.263 4.02774 36.9925 6.0939 36.7281C8.16006 36.4637 8.93487 37.573 8.93487 37.573C10.5937 33.7078 14.7971 26.5611 13.3255 25.1804Z" fill="#0D47A1"/>
<path d="M22.8815 31.9228C23.1397 31.6239 20.2988 29.1062 20.0405 29.1062C19.7822 29.1062 13.7543 39.6613 13.842 40.3723C13.9297 41.0834 14.8751 41.7979 15.3916 41.7979C15.9082 41.7979 22.6232 32.2216 22.8815 31.9228Z" fill="#0D47A1"/>
<path d="M37.7062 22.7449C38.3777 20.9555 32.6985 18.2529 29.8548 16.4491L29.5965 20.3922C31.9663 21.9383 37.0977 24.3662 37.7062 22.7449Z" fill="#0D47A1"/>
<path d="M8.16009 39.5274C8.16009 40.4608 7.46631 41.2174 6.61047 41.2174C5.75464 41.2174 5.06085 40.4608 5.06085 39.5274C5.06085 38.5941 5.75464 37.8375 6.61047 37.8375C7.46631 37.8375 8.16009 38.5941 8.16009 39.5274Z" fill="#0D47A1"/>
<ellipse cx="28.3051" cy="5.16583" rx="3.87405" ry="4.22479" fill="#0D47A1"/>
</svg>
