<svg width="181" height="37" viewBox="0 0 181 37" fill="none" xmlns="http://www.w3.org/2000/svg">
<rect x="0.5" y="0.5" width="180" height="36" rx="2.5" fill="white" stroke="#0097A7"/>
<path d="M25.2302 12.5433L19.5782 25.2333H17.6882L12.0362 12.5433H14.4302L18.6422 22.3533L22.8722 12.5433H25.2302ZM26.2179 16.4313H28.4679V25.2333H26.2179V16.4313ZM28.5759 12.3453V14.5593H26.0919V12.3453H28.5759ZM38.5102 21.2373H32.5162C32.5882 22.0533 32.8342 22.6593 33.2542 23.0553C33.6742 23.4513 34.2742 23.6493 35.0542 23.6493C36.0262 23.6493 36.9142 23.3373 37.7182 22.7133L38.3662 24.2613C37.9582 24.5973 37.4422 24.8673 36.8182 25.0713C36.2062 25.2753 35.5882 25.3773 34.9642 25.3773C33.5242 25.3773 32.3842 24.9693 31.5442 24.1533C30.7162 23.3373 30.3022 22.2213 30.3022 20.8053C30.3022 19.9053 30.4822 19.1073 30.8422 18.4113C31.2022 17.7153 31.7062 17.1753 32.3542 16.7913C33.0142 16.4073 33.7582 16.2153 34.5862 16.2153C35.7982 16.2153 36.7522 16.6053 37.4482 17.3853C38.1562 18.1653 38.5102 19.2393 38.5102 20.6073V21.2373ZM34.6402 17.7993C34.0402 17.7993 33.5542 17.9913 33.1822 18.3753C32.8222 18.7593 32.6002 19.3113 32.5162 20.0313H36.5842C36.5602 19.2993 36.3802 18.7473 36.0442 18.3753C35.7082 17.9913 35.2402 17.7993 34.6402 17.7993ZM54.286 16.4313L50.83 25.2333H48.868L46.708 19.5633L44.602 25.2333H42.658L39.184 16.4313H41.488L43.738 22.5513L45.988 16.4313H47.608L49.858 22.5873L52.09 16.4313H54.286ZM65.9488 25.3953C64.2088 25.3953 62.8888 24.9453 61.9888 24.0453C61.0888 23.1453 60.6388 21.8313 60.6388 20.1033V12.5433H62.9068V20.2293C62.9068 21.3213 63.1648 22.1493 63.6808 22.7133C64.1968 23.2653 64.9528 23.5413 65.9488 23.5413C66.9328 23.5413 67.6828 23.2593 68.1988 22.6953C68.7148 22.1313 68.9728 21.3093 68.9728 20.2293V12.5433H71.2408V20.1033C71.2408 21.8193 70.7908 23.1333 69.8908 24.0453C68.9908 24.9453 67.6768 25.3953 65.9488 25.3953ZM76.9539 25.3773C76.1739 25.3773 75.4539 25.2813 74.7939 25.0893C74.1459 24.8973 73.5939 24.6213 73.1379 24.2613L73.7679 22.6953C74.7039 23.3793 75.7779 23.7213 76.9899 23.7213C77.5059 23.7213 77.8959 23.6373 78.1599 23.4693C78.4359 23.3013 78.5739 23.0613 78.5739 22.7493C78.5739 22.4853 78.4779 22.2813 78.2859 22.1373C78.1059 21.9933 77.7759 21.8613 77.2959 21.7413L75.8559 21.4173C75.0399 21.2373 74.4339 20.9433 74.0379 20.5353C73.6419 20.1273 73.4439 19.5993 73.4439 18.9513C73.4439 18.4113 73.5939 17.9373 73.8939 17.5293C74.2059 17.1093 74.6319 16.7853 75.1719 16.5573C75.7239 16.3293 76.3599 16.2153 77.0799 16.2153C77.7039 16.2153 78.3039 16.3113 78.8799 16.5033C79.4679 16.6953 79.9839 16.9653 80.4279 17.3133L79.7979 18.8433C78.8859 18.1833 77.9739 17.8533 77.0619 17.8533C76.5699 17.8533 76.1859 17.9433 75.9099 18.1233C75.6339 18.3033 75.4959 18.5553 75.4959 18.8793C75.4959 19.1193 75.5799 19.3173 75.7479 19.4733C75.9279 19.6293 76.2099 19.7493 76.5939 19.8333L78.0879 20.1753C78.9639 20.3673 79.6059 20.6733 80.0139 21.0933C80.4219 21.5013 80.6259 22.0413 80.6259 22.7133C80.6259 23.5293 80.2959 24.1773 79.6359 24.6573C78.9759 25.1373 78.0819 25.3773 76.9539 25.3773ZM90.1723 21.2373H84.1783C84.2503 22.0533 84.4963 22.6593 84.9163 23.0553C85.3363 23.4513 85.9363 23.6493 86.7163 23.6493C87.6883 23.6493 88.5763 23.3373 89.3803 22.7133L90.0283 24.2613C89.6203 24.5973 89.1043 24.8673 88.4803 25.0713C87.8683 25.2753 87.2503 25.3773 86.6263 25.3773C85.1863 25.3773 84.0463 24.9693 83.2063 24.1533C82.3783 23.3373 81.9643 22.2213 81.9643 20.8053C81.9643 19.9053 82.1443 19.1073 82.5043 18.4113C82.8643 17.7153 83.3683 17.1753 84.0163 16.7913C84.6763 16.4073 85.4203 16.2153 86.2483 16.2153C87.4603 16.2153 88.4143 16.6053 89.1103 17.3853C89.8183 18.1653 90.1723 19.2393 90.1723 20.6073V21.2373ZM86.3023 17.7993C85.7023 17.7993 85.2163 17.9913 84.8443 18.3753C84.4843 18.7593 84.2623 19.3113 84.1783 20.0313H88.2463C88.2223 19.2993 88.0423 18.7473 87.7063 18.3753C87.3703 17.9913 86.9023 17.7993 86.3023 17.7993ZM97.8088 18.0873L96.4948 18.2133C95.0068 18.3693 94.2628 19.1253 94.2628 20.4813V25.2333H92.0128V16.4313H94.1548V17.9793C94.6108 16.9233 95.5528 16.3473 96.9808 16.2513L97.6648 16.1973L97.8088 18.0873ZM108.29 25.3953C107.318 25.3953 106.406 25.2633 105.554 24.9993C104.702 24.7353 103.982 24.3633 103.394 23.8833L104.168 22.1913C104.78 22.6593 105.422 23.0013 106.094 23.2173C106.778 23.4333 107.516 23.5413 108.308 23.5413C109.184 23.5413 109.856 23.3913 110.324 23.0913C110.804 22.7793 111.044 22.3473 111.044 21.7953C111.044 21.3153 110.822 20.9493 110.378 20.6973C109.946 20.4453 109.22 20.2053 108.2 19.9773C107.144 19.7493 106.286 19.4853 105.626 19.1853C104.966 18.8853 104.468 18.5013 104.132 18.0333C103.796 17.5653 103.628 16.9713 103.628 16.2513C103.628 15.5073 103.832 14.8413 104.24 14.2533C104.648 13.6653 105.224 13.2093 105.968 12.8853C106.712 12.5493 107.57 12.3813 108.542 12.3813C109.43 12.3813 110.276 12.5193 111.08 12.7953C111.884 13.0593 112.544 13.4253 113.06 13.8933L112.286 15.5853C111.158 14.6853 109.91 14.2353 108.542 14.2353C107.726 14.2353 107.078 14.4033 106.598 14.7393C106.13 15.0633 105.896 15.5193 105.896 16.1073C105.896 16.5993 106.106 16.9773 106.526 17.2413C106.946 17.5053 107.66 17.7513 108.668 17.9793C109.736 18.2193 110.6 18.4893 111.26 18.7893C111.932 19.0773 112.442 19.4493 112.79 19.9053C113.15 20.3613 113.33 20.9373 113.33 21.6333C113.33 22.3893 113.126 23.0553 112.718 23.6313C112.322 24.1953 111.74 24.6333 110.972 24.9453C110.216 25.2453 109.322 25.3953 108.29 25.3953ZM123.351 16.4313V25.2333H121.155V23.8833C120.879 24.3633 120.507 24.7353 120.039 24.9993C119.571 25.2513 119.043 25.3773 118.455 25.3773C116.295 25.3773 115.215 24.1653 115.215 21.7413V16.4313H117.465V21.7593C117.465 22.3833 117.591 22.8453 117.843 23.1453C118.095 23.4453 118.491 23.5953 119.031 23.5953C119.655 23.5953 120.153 23.3913 120.525 22.9833C120.909 22.5633 121.101 22.0113 121.101 21.3273V16.4313H123.351ZM131.488 18.0873L130.174 18.2133C128.686 18.3693 127.942 19.1253 127.942 20.4813V25.2333H125.692V16.4313H127.834V17.9793C128.29 16.9233 129.232 16.3473 130.66 16.2513L131.344 16.1973L131.488 18.0873ZM141.516 16.4493L137.664 25.2333H135.702L131.886 16.4493H134.262L136.746 22.6593L139.302 16.4493H141.516ZM150.184 21.2373H144.19C144.262 22.0533 144.508 22.6593 144.928 23.0553C145.348 23.4513 145.948 23.6493 146.728 23.6493C147.7 23.6493 148.588 23.3373 149.392 22.7133L150.04 24.2613C149.632 24.5973 149.116 24.8673 148.492 25.0713C147.88 25.2753 147.262 25.3773 146.638 25.3773C145.198 25.3773 144.058 24.9693 143.218 24.1533C142.39 23.3373 141.976 22.2213 141.976 20.8053C141.976 19.9053 142.156 19.1073 142.516 18.4113C142.876 17.7153 143.38 17.1753 144.028 16.7913C144.688 16.4073 145.432 16.2153 146.26 16.2153C147.472 16.2153 148.426 16.6053 149.122 17.3853C149.83 18.1653 150.184 19.2393 150.184 20.6073V21.2373ZM146.314 17.7993C145.714 17.7993 145.228 17.9913 144.856 18.3753C144.496 18.7593 144.274 19.3113 144.19 20.0313H148.258C148.234 19.2993 148.054 18.7473 147.718 18.3753C147.382 17.9913 146.914 17.7993 146.314 17.7993ZM160.272 16.4493L154.98 28.4733H152.712L154.314 24.8913L150.642 16.4493H153.018L155.502 22.6593L158.058 16.4493H160.272ZM164.475 25.3773C163.695 25.3773 162.975 25.2813 162.315 25.0893C161.667 24.8973 161.115 24.6213 160.659 24.2613L161.289 22.6953C162.225 23.3793 163.299 23.7213 164.511 23.7213C165.027 23.7213 165.417 23.6373 165.681 23.4693C165.957 23.3013 166.095 23.0613 166.095 22.7493C166.095 22.4853 165.999 22.2813 165.807 22.1373C165.627 21.9933 165.297 21.8613 164.817 21.7413L163.377 21.4173C162.561 21.2373 161.955 20.9433 161.559 20.5353C161.163 20.1273 160.965 19.5993 160.965 18.9513C160.965 18.4113 161.115 17.9373 161.415 17.5293C161.727 17.1093 162.153 16.7853 162.693 16.5573C163.245 16.3293 163.881 16.2153 164.601 16.2153C165.225 16.2153 165.825 16.3113 166.401 16.5033C166.989 16.6953 167.505 16.9653 167.949 17.3133L167.319 18.8433C166.407 18.1833 165.495 17.8533 164.583 17.8533C164.091 17.8533 163.707 17.9433 163.431 18.1233C163.155 18.3033 163.017 18.5553 163.017 18.8793C163.017 19.1193 163.101 19.3173 163.269 19.4733C163.449 19.6293 163.731 19.7493 164.115 19.8333L165.609 20.1753C166.485 20.3673 167.127 20.6733 167.535 21.0933C167.943 21.5013 168.147 22.0413 168.147 22.7133C168.147 23.5293 167.817 24.1773 167.157 24.6573C166.497 25.1373 165.603 25.3773 164.475 25.3773Z" fill="#0D47A1"/>
</svg>
