<svg width="175" height="37" viewBox="0 0 175 37" fill="none" xmlns="http://www.w3.org/2000/svg">
<rect x="0.5" y="0.5" width="174" height="36" rx="2.5" fill="white" stroke="#0097A7"/>
<path d="M25.0779 12.5433L19.4259 25.2333H17.5359L11.8839 12.5433H14.2779L18.4899 22.3533L22.7199 12.5433H25.0779ZM26.0655 16.4313H28.3155V25.2333H26.0655V16.4313ZM28.4235 12.3453V14.5593H25.9395V12.3453H28.4235ZM38.3578 21.2373H32.3638C32.4358 22.0533 32.6818 22.6593 33.1018 23.0553C33.5218 23.4513 34.1218 23.6493 34.9018 23.6493C35.8738 23.6493 36.7618 23.3373 37.5658 22.7133L38.2138 24.2613C37.8058 24.5973 37.2898 24.8673 36.6658 25.0713C36.0538 25.2753 35.4358 25.3773 34.8118 25.3773C33.3718 25.3773 32.2318 24.9693 31.3918 24.1533C30.5638 23.3373 30.1498 22.2213 30.1498 20.8053C30.1498 19.9053 30.3298 19.1073 30.6898 18.4113C31.0498 17.7153 31.5538 17.1753 32.2018 16.7913C32.8618 16.4073 33.6058 16.2153 34.4338 16.2153C35.6458 16.2153 36.5998 16.6053 37.2958 17.3853C38.0038 18.1653 38.3578 19.2393 38.3578 20.6073V21.2373ZM34.4878 17.7993C33.8878 17.7993 33.4018 17.9913 33.0298 18.3753C32.6698 18.7593 32.4478 19.3113 32.3638 20.0313H36.4318C36.4078 19.2993 36.2278 18.7473 35.8918 18.3753C35.5558 17.9913 35.0878 17.7993 34.4878 17.7993ZM54.1337 16.4313L50.6777 25.2333H48.7157L46.5557 19.5633L44.4497 25.2333H42.5057L39.0317 16.4313H41.3357L43.5857 22.5513L45.8357 16.4313H47.4557L49.7057 22.5873L51.9377 16.4313H54.1337ZM65.7964 25.3953C64.0564 25.3953 62.7364 24.9453 61.8364 24.0453C60.9364 23.1453 60.4864 21.8313 60.4864 20.1033V12.5433H62.7544V20.2293C62.7544 21.3213 63.0124 22.1493 63.5284 22.7133C64.0444 23.2653 64.8004 23.5413 65.7964 23.5413C66.7804 23.5413 67.5304 23.2593 68.0464 22.6953C68.5624 22.1313 68.8204 21.3093 68.8204 20.2293V12.5433H71.0884V20.1033C71.0884 21.8193 70.6384 23.1333 69.7384 24.0453C68.8384 24.9453 67.5244 25.3953 65.7964 25.3953ZM76.8016 25.3773C76.0216 25.3773 75.3016 25.2813 74.6416 25.0893C73.9936 24.8973 73.4416 24.6213 72.9856 24.2613L73.6156 22.6953C74.5516 23.3793 75.6256 23.7213 76.8376 23.7213C77.3536 23.7213 77.7436 23.6373 78.0076 23.4693C78.2836 23.3013 78.4216 23.0613 78.4216 22.7493C78.4216 22.4853 78.3256 22.2813 78.1336 22.1373C77.9536 21.9933 77.6236 21.8613 77.1436 21.7413L75.7036 21.4173C74.8876 21.2373 74.2816 20.9433 73.8856 20.5353C73.4896 20.1273 73.2916 19.5993 73.2916 18.9513C73.2916 18.4113 73.4416 17.9373 73.7416 17.5293C74.0536 17.1093 74.4796 16.7853 75.0196 16.5573C75.5716 16.3293 76.2076 16.2153 76.9276 16.2153C77.5516 16.2153 78.1516 16.3113 78.7276 16.5033C79.3156 16.6953 79.8316 16.9653 80.2756 17.3133L79.6456 18.8433C78.7336 18.1833 77.8216 17.8533 76.9096 17.8533C76.4176 17.8533 76.0336 17.9433 75.7576 18.1233C75.4816 18.3033 75.3436 18.5553 75.3436 18.8793C75.3436 19.1193 75.4276 19.3173 75.5956 19.4733C75.7756 19.6293 76.0576 19.7493 76.4416 19.8333L77.9356 20.1753C78.8116 20.3673 79.4536 20.6733 79.8616 21.0933C80.2696 21.5013 80.4736 22.0413 80.4736 22.7133C80.4736 23.5293 80.1436 24.1773 79.4836 24.6573C78.8236 25.1373 77.9296 25.3773 76.8016 25.3773ZM90.0199 21.2373H84.0259C84.0979 22.0533 84.3439 22.6593 84.7639 23.0553C85.1839 23.4513 85.7839 23.6493 86.5639 23.6493C87.5359 23.6493 88.4239 23.3373 89.2279 22.7133L89.8759 24.2613C89.4679 24.5973 88.9519 24.8673 88.3279 25.0713C87.7159 25.2753 87.0979 25.3773 86.4739 25.3773C85.0339 25.3773 83.8939 24.9693 83.0539 24.1533C82.2259 23.3373 81.8119 22.2213 81.8119 20.8053C81.8119 19.9053 81.9919 19.1073 82.3519 18.4113C82.7119 17.7153 83.2159 17.1753 83.8639 16.7913C84.5239 16.4073 85.2679 16.2153 86.0959 16.2153C87.3079 16.2153 88.2619 16.6053 88.9579 17.3853C89.6659 18.1653 90.0199 19.2393 90.0199 20.6073V21.2373ZM86.1499 17.7993C85.5499 17.7993 85.0639 17.9913 84.6919 18.3753C84.3319 18.7593 84.1099 19.3113 84.0259 20.0313H88.0939C88.0699 19.2993 87.8899 18.7473 87.5539 18.3753C87.2179 17.9913 86.7499 17.7993 86.1499 17.7993ZM97.6564 18.0873L96.3424 18.2133C94.8544 18.3693 94.1104 19.1253 94.1104 20.4813V25.2333H91.8604V16.4313H94.0024V17.9793C94.4584 16.9233 95.4004 16.3473 96.8284 16.2513L97.5124 16.1973L97.6564 18.0873ZM106.824 14.4513H102.684V12.5433H113.286V14.4513H109.146V25.2333H106.824V14.4513ZM120.993 21.2373H114.999C115.071 22.0533 115.317 22.6593 115.737 23.0553C116.157 23.4513 116.757 23.6493 117.537 23.6493C118.509 23.6493 119.397 23.3373 120.201 22.7133L120.849 24.2613C120.441 24.5973 119.925 24.8673 119.301 25.0713C118.689 25.2753 118.071 25.3773 117.447 25.3773C116.007 25.3773 114.867 24.9693 114.027 24.1533C113.199 23.3373 112.785 22.2213 112.785 20.8053C112.785 19.9053 112.965 19.1073 113.325 18.4113C113.685 17.7153 114.189 17.1753 114.837 16.7913C115.497 16.4073 116.241 16.2153 117.069 16.2153C118.281 16.2153 119.235 16.6053 119.931 17.3853C120.639 18.1653 120.993 19.2393 120.993 20.6073V21.2373ZM117.123 17.7993C116.523 17.7993 116.037 17.9913 115.665 18.3753C115.305 18.7593 115.083 19.3113 114.999 20.0313H119.067C119.043 19.2993 118.863 18.7473 118.527 18.3753C118.191 17.9913 117.723 17.7993 117.123 17.7993ZM126.073 25.3773C125.293 25.3773 124.573 25.2813 123.913 25.0893C123.265 24.8973 122.713 24.6213 122.257 24.2613L122.887 22.6953C123.823 23.3793 124.897 23.7213 126.109 23.7213C126.625 23.7213 127.015 23.6373 127.279 23.4693C127.555 23.3013 127.693 23.0613 127.693 22.7493C127.693 22.4853 127.597 22.2813 127.405 22.1373C127.225 21.9933 126.895 21.8613 126.415 21.7413L124.975 21.4173C124.159 21.2373 123.553 20.9433 123.157 20.5353C122.761 20.1273 122.563 19.5993 122.563 18.9513C122.563 18.4113 122.713 17.9373 123.013 17.5293C123.325 17.1093 123.751 16.7853 124.291 16.5573C124.843 16.3293 125.479 16.2153 126.199 16.2153C126.823 16.2153 127.423 16.3113 127.999 16.5033C128.587 16.6953 129.103 16.9653 129.547 17.3133L128.917 18.8433C128.005 18.1833 127.093 17.8533 126.181 17.8533C125.689 17.8533 125.305 17.9433 125.029 18.1233C124.753 18.3033 124.615 18.5553 124.615 18.8793C124.615 19.1193 124.699 19.3173 124.867 19.4733C125.047 19.6293 125.329 19.7493 125.713 19.8333L127.207 20.1753C128.083 20.3673 128.725 20.6733 129.133 21.0933C129.541 21.5013 129.745 22.0413 129.745 22.7133C129.745 23.5293 129.415 24.1773 128.755 24.6573C128.095 25.1373 127.201 25.3773 126.073 25.3773ZM135.982 23.6853C136.246 23.6853 136.522 23.6673 136.81 23.6313L136.702 25.3053C136.342 25.3413 136.012 25.3593 135.712 25.3593C134.476 25.3593 133.564 25.0773 132.976 24.5133C132.388 23.9373 132.094 23.0853 132.094 21.9573V18.1233H130.402V16.4313H132.094V13.8033H134.344V16.4313H136.666V18.1233H134.344V21.9213C134.344 23.0973 134.89 23.6853 135.982 23.6853ZM138.126 16.4313H140.376V25.2333H138.126V16.4313ZM140.484 12.3453V14.5593H138V12.3453H140.484ZM147.808 16.2153C148.864 16.2153 149.65 16.5153 150.166 17.1153C150.682 17.7153 150.94 18.6213 150.94 19.8333V25.2333H148.69V19.9593C148.69 19.2753 148.558 18.7773 148.294 18.4653C148.042 18.1533 147.64 17.9973 147.088 17.9973C146.44 17.9973 145.918 18.2013 145.522 18.6093C145.138 19.0173 144.946 19.5633 144.946 20.2473V25.2333H142.696V16.4313H144.892V17.7453C145.192 17.2533 145.594 16.8753 146.098 16.6113C146.602 16.3473 147.172 16.2153 147.808 16.2153ZM161.794 16.4313V24.4233C161.794 25.8033 161.41 26.8473 160.642 27.5553C159.886 28.2633 158.764 28.6173 157.276 28.6173C156.508 28.6173 155.77 28.5153 155.062 28.3113C154.354 28.1193 153.736 27.8433 153.208 27.4833L153.838 25.8993C154.93 26.5593 156.058 26.8893 157.222 26.8893C158.782 26.8893 159.562 26.1213 159.562 24.5853V23.4333C159.298 23.9253 158.914 24.3093 158.41 24.5853C157.906 24.8493 157.33 24.9813 156.682 24.9813C155.914 24.9813 155.23 24.8013 154.63 24.4413C154.042 24.0693 153.58 23.5533 153.244 22.8933C152.908 22.2333 152.74 21.4713 152.74 20.6073C152.74 19.7433 152.902 18.9813 153.226 18.3213C153.562 17.6493 154.03 17.1333 154.63 16.7733C155.23 16.4013 155.914 16.2153 156.682 16.2153C157.33 16.2153 157.906 16.3533 158.41 16.6293C158.914 16.8933 159.298 17.2713 159.562 17.7633V16.4313H161.794ZM157.276 23.2353C157.996 23.2353 158.554 23.0013 158.95 22.5333C159.358 22.0653 159.562 21.4233 159.562 20.6073C159.562 19.7793 159.358 19.1313 158.95 18.6633C158.554 18.1953 157.996 17.9613 157.276 17.9613C156.568 17.9613 156.01 18.1953 155.602 18.6633C155.194 19.1313 154.99 19.7793 154.99 20.6073C154.99 21.4113 155.194 22.0533 155.602 22.5333C156.01 23.0013 156.568 23.2353 157.276 23.2353Z" fill="#0D47A1"/>
</svg>
