<svg width="164" height="37" viewBox="0 0 164 37" fill="none" xmlns="http://www.w3.org/2000/svg">
<rect x="0.5" y="0.5" width="163" height="36" rx="2.5" fill="white" stroke="#0097A7"/>
<path d="M25.3172 12.5433L19.6652 25.2333H17.7752L12.1232 12.5433H14.5172L18.7292 22.3533L22.9592 12.5433H25.3172ZM26.3048 16.4313H28.5548V25.2333H26.3048V16.4313ZM28.6628 12.3453V14.5593H26.1788V12.3453H28.6628ZM38.5971 21.2373H32.6031C32.6751 22.0533 32.9211 22.6593 33.3411 23.0553C33.7611 23.4513 34.3611 23.6493 35.1411 23.6493C36.1131 23.6493 37.0011 23.3373 37.8051 22.7133L38.4531 24.2613C38.0451 24.5973 37.5291 24.8673 36.9051 25.0713C36.2931 25.2753 35.6751 25.3773 35.0511 25.3773C33.6111 25.3773 32.4711 24.9693 31.6311 24.1533C30.8031 23.3373 30.3891 22.2213 30.3891 20.8053C30.3891 19.9053 30.5691 19.1073 30.9291 18.4113C31.2891 17.7153 31.7931 17.1753 32.4411 16.7913C33.1011 16.4073 33.8451 16.2153 34.6731 16.2153C35.8851 16.2153 36.8391 16.6053 37.5351 17.3853C38.2431 18.1653 38.5971 19.2393 38.5971 20.6073V21.2373ZM34.7271 17.7993C34.1271 17.7993 33.6411 17.9913 33.2691 18.3753C32.9091 18.7593 32.6871 19.3113 32.6031 20.0313H36.6711C36.6471 19.2993 36.4671 18.7473 36.1311 18.3753C35.7951 17.9913 35.3271 17.7993 34.7271 17.7993ZM54.373 16.4313L50.917 25.2333H48.955L46.795 19.5633L44.689 25.2333H42.745L39.271 16.4313H41.575L43.825 22.5513L46.075 16.4313H47.695L49.945 22.5873L52.177 16.4313H54.373ZM66.0357 25.3953C64.2957 25.3953 62.9757 24.9453 62.0757 24.0453C61.1757 23.1453 60.7257 21.8313 60.7257 20.1033V12.5433H62.9937V20.2293C62.9937 21.3213 63.2517 22.1493 63.7677 22.7133C64.2837 23.2653 65.0397 23.5413 66.0357 23.5413C67.0197 23.5413 67.7697 23.2593 68.2857 22.6953C68.8017 22.1313 69.0597 21.3093 69.0597 20.2293V12.5433H71.3277V20.1033C71.3277 21.8193 70.8777 23.1333 69.9777 24.0453C69.0777 24.9453 67.7637 25.3953 66.0357 25.3953ZM77.0409 25.3773C76.2609 25.3773 75.5409 25.2813 74.8809 25.0893C74.2329 24.8973 73.6809 24.6213 73.2249 24.2613L73.8549 22.6953C74.7909 23.3793 75.8649 23.7213 77.0769 23.7213C77.5929 23.7213 77.9829 23.6373 78.2469 23.4693C78.5229 23.3013 78.6609 23.0613 78.6609 22.7493C78.6609 22.4853 78.5649 22.2813 78.3729 22.1373C78.1929 21.9933 77.8629 21.8613 77.3829 21.7413L75.9429 21.4173C75.1269 21.2373 74.5209 20.9433 74.1249 20.5353C73.7289 20.1273 73.5309 19.5993 73.5309 18.9513C73.5309 18.4113 73.6809 17.9373 73.9809 17.5293C74.2929 17.1093 74.7189 16.7853 75.2589 16.5573C75.8109 16.3293 76.4469 16.2153 77.1669 16.2153C77.7909 16.2153 78.3909 16.3113 78.9669 16.5033C79.5549 16.6953 80.0709 16.9653 80.5149 17.3133L79.8849 18.8433C78.9729 18.1833 78.0609 17.8533 77.1489 17.8533C76.6569 17.8533 76.2729 17.9433 75.9969 18.1233C75.7209 18.3033 75.5829 18.5553 75.5829 18.8793C75.5829 19.1193 75.6669 19.3173 75.8349 19.4733C76.0149 19.6293 76.2969 19.7493 76.6809 19.8333L78.1749 20.1753C79.0509 20.3673 79.6929 20.6733 80.1009 21.0933C80.5089 21.5013 80.7129 22.0413 80.7129 22.7133C80.7129 23.5293 80.3829 24.1773 79.7229 24.6573C79.0629 25.1373 78.1689 25.3773 77.0409 25.3773ZM90.2592 21.2373H84.2652C84.3372 22.0533 84.5832 22.6593 85.0032 23.0553C85.4232 23.4513 86.0232 23.6493 86.8032 23.6493C87.7752 23.6493 88.6632 23.3373 89.4672 22.7133L90.1152 24.2613C89.7072 24.5973 89.1912 24.8673 88.5672 25.0713C87.9552 25.2753 87.3372 25.3773 86.7132 25.3773C85.2732 25.3773 84.1332 24.9693 83.2932 24.1533C82.4652 23.3373 82.0512 22.2213 82.0512 20.8053C82.0512 19.9053 82.2312 19.1073 82.5912 18.4113C82.9512 17.7153 83.4552 17.1753 84.1032 16.7913C84.7632 16.4073 85.5072 16.2153 86.3352 16.2153C87.5472 16.2153 88.5012 16.6053 89.1972 17.3853C89.9052 18.1653 90.2592 19.2393 90.2592 20.6073V21.2373ZM86.3892 17.7993C85.7892 17.7993 85.3032 17.9913 84.9312 18.3753C84.5712 18.7593 84.3492 19.3113 84.2652 20.0313H88.3332C88.3092 19.2993 88.1292 18.7473 87.7932 18.3753C87.4572 17.9913 86.9892 17.7993 86.3892 17.7993ZM97.8957 18.0873L96.5817 18.2133C95.0937 18.3693 94.3497 19.1253 94.3497 20.4813V25.2333H92.0997V16.4313H94.2417V17.9793C94.6977 16.9233 95.6397 16.3473 97.0677 16.2513L97.7517 16.1973L97.8957 18.0873ZM104.075 12.5433H112.391V14.3973H106.361V17.8533H112.031V19.7073H106.361V25.2333H104.075V12.5433ZM114.072 12.5433H116.322V25.2333H114.072V12.5433ZM122.657 25.3773C121.757 25.3773 120.965 25.1913 120.281 24.8193C119.609 24.4473 119.087 23.9133 118.715 23.2173C118.343 22.5213 118.157 21.7113 118.157 20.7873C118.157 19.8633 118.343 19.0593 118.715 18.3753C119.087 17.6793 119.609 17.1453 120.281 16.7733C120.965 16.4013 121.757 16.2153 122.657 16.2153C123.557 16.2153 124.343 16.4013 125.015 16.7733C125.699 17.1453 126.221 17.6793 126.581 18.3753C126.953 19.0593 127.139 19.8633 127.139 20.7873C127.139 21.7113 126.953 22.5213 126.581 23.2173C126.221 23.9133 125.699 24.4473 125.015 24.8193C124.343 25.1913 123.557 25.3773 122.657 25.3773ZM122.639 23.6313C123.371 23.6313 123.929 23.3913 124.313 22.9113C124.697 22.4313 124.889 21.7233 124.889 20.7873C124.889 19.8633 124.697 19.1613 124.313 18.6813C123.929 18.1893 123.377 17.9433 122.657 17.9433C121.937 17.9433 121.379 18.1893 120.983 18.6813C120.599 19.1613 120.407 19.8633 120.407 20.7873C120.407 21.7233 120.599 22.4313 120.983 22.9113C121.367 23.3913 121.919 23.6313 122.639 23.6313ZM142.932 16.4313L139.476 25.2333H137.514L135.354 19.5633L133.248 25.2333H131.304L127.83 16.4313H130.134L132.384 22.5513L134.634 16.4313H136.254L138.504 22.5873L140.736 16.4313H142.932ZM147.389 25.3773C146.609 25.3773 145.889 25.2813 145.229 25.0893C144.581 24.8973 144.029 24.6213 143.573 24.2613L144.203 22.6953C145.139 23.3793 146.213 23.7213 147.425 23.7213C147.941 23.7213 148.331 23.6373 148.595 23.4693C148.871 23.3013 149.009 23.0613 149.009 22.7493C149.009 22.4853 148.913 22.2813 148.721 22.1373C148.541 21.9933 148.211 21.8613 147.731 21.7413L146.291 21.4173C145.475 21.2373 144.869 20.9433 144.473 20.5353C144.077 20.1273 143.879 19.5993 143.879 18.9513C143.879 18.4113 144.029 17.9373 144.329 17.5293C144.641 17.1093 145.067 16.7853 145.607 16.5573C146.159 16.3293 146.795 16.2153 147.515 16.2153C148.139 16.2153 148.739 16.3113 149.315 16.5033C149.903 16.6953 150.419 16.9653 150.863 17.3133L150.233 18.8433C149.321 18.1833 148.409 17.8533 147.497 17.8533C147.005 17.8533 146.621 17.9433 146.345 18.1233C146.069 18.3033 145.931 18.5553 145.931 18.8793C145.931 19.1193 146.015 19.3173 146.183 19.4733C146.363 19.6293 146.645 19.7493 147.029 19.8333L148.523 20.1753C149.399 20.3673 150.041 20.6733 150.449 21.0933C150.857 21.5013 151.061 22.0413 151.061 22.7133C151.061 23.5293 150.731 24.1773 150.071 24.6573C149.411 25.1373 148.517 25.3773 147.389 25.3773Z" fill="#0D47A1"/>
</svg>
