<svg width="166" height="37" viewBox="0 0 166 37" fill="none" xmlns="http://www.w3.org/2000/svg">
<rect x="0.5" y="0.5" width="165" height="36" rx="2.5" fill="white" stroke="#0097A7"/>
<path d="M21.7644 12.5433L16.1124 25.2333H14.2224L8.57042 12.5433H10.9644L15.1764 22.3533L19.4064 12.5433H21.7644ZM22.752 16.4313H25.002V25.2333H22.752V16.4313ZM25.11 12.3453V14.5593H22.626V12.3453H25.11ZM35.0443 21.2373H29.0503C29.1223 22.0533 29.3683 22.6593 29.7883 23.0553C30.2083 23.4513 30.8083 23.6493 31.5883 23.6493C32.5603 23.6493 33.4483 23.3373 34.2523 22.7133L34.9003 24.2613C34.4923 24.5973 33.9763 24.8673 33.3523 25.0713C32.7403 25.2753 32.1223 25.3773 31.4983 25.3773C30.0583 25.3773 28.9183 24.9693 28.0783 24.1533C27.2503 23.3373 26.8363 22.2213 26.8363 20.8053C26.8363 19.9053 27.0163 19.1073 27.3763 18.4113C27.7363 17.7153 28.2403 17.1753 28.8883 16.7913C29.5483 16.4073 30.2923 16.2153 31.1203 16.2153C32.3323 16.2153 33.2863 16.6053 33.9823 17.3853C34.6903 18.1653 35.0443 19.2393 35.0443 20.6073V21.2373ZM31.1743 17.7993C30.5743 17.7993 30.0883 17.9913 29.7163 18.3753C29.3563 18.7593 29.1343 19.3113 29.0503 20.0313H33.1183C33.0943 19.2993 32.9143 18.7473 32.5783 18.3753C32.2423 17.9913 31.7743 17.7993 31.1743 17.7993ZM50.8202 16.4313L47.3642 25.2333H45.4022L43.2422 19.5633L41.1362 25.2333H39.1922L35.7182 16.4313H38.0222L40.2722 22.5513L42.5222 16.4313H44.1422L46.3922 22.5873L48.6242 16.4313H50.8202ZM62.483 25.3953C60.743 25.3953 59.423 24.9453 58.523 24.0453C57.623 23.1453 57.173 21.8313 57.173 20.1033V12.5433H59.441V20.2293C59.441 21.3213 59.699 22.1493 60.215 22.7133C60.731 23.2653 61.487 23.5413 62.483 23.5413C63.467 23.5413 64.217 23.2593 64.733 22.6953C65.249 22.1313 65.507 21.3093 65.507 20.2293V12.5433H67.775V20.1033C67.775 21.8193 67.325 23.1333 66.425 24.0453C65.525 24.9453 64.211 25.3953 62.483 25.3953ZM73.4881 25.3773C72.7081 25.3773 71.9881 25.2813 71.3281 25.0893C70.6801 24.8973 70.1281 24.6213 69.6721 24.2613L70.3021 22.6953C71.2381 23.3793 72.3121 23.7213 73.5241 23.7213C74.0401 23.7213 74.4301 23.6373 74.6941 23.4693C74.9701 23.3013 75.1081 23.0613 75.1081 22.7493C75.1081 22.4853 75.0121 22.2813 74.8201 22.1373C74.6401 21.9933 74.3101 21.8613 73.8301 21.7413L72.3901 21.4173C71.5741 21.2373 70.9681 20.9433 70.5721 20.5353C70.1761 20.1273 69.9781 19.5993 69.9781 18.9513C69.9781 18.4113 70.1281 17.9373 70.4281 17.5293C70.7401 17.1093 71.1661 16.7853 71.7061 16.5573C72.2581 16.3293 72.8941 16.2153 73.6141 16.2153C74.2381 16.2153 74.8381 16.3113 75.4141 16.5033C76.0021 16.6953 76.5181 16.9653 76.9621 17.3133L76.3321 18.8433C75.4201 18.1833 74.5081 17.8533 73.5961 17.8533C73.1041 17.8533 72.7201 17.9433 72.4441 18.1233C72.1681 18.3033 72.0301 18.5553 72.0301 18.8793C72.0301 19.1193 72.1141 19.3173 72.2821 19.4733C72.4621 19.6293 72.7441 19.7493 73.1281 19.8333L74.6221 20.1753C75.4981 20.3673 76.1401 20.6733 76.5481 21.0933C76.9561 21.5013 77.1601 22.0413 77.1601 22.7133C77.1601 23.5293 76.8301 24.1773 76.1701 24.6573C75.5101 25.1373 74.6161 25.3773 73.4881 25.3773ZM86.7065 21.2373H80.7125C80.7845 22.0533 81.0305 22.6593 81.4505 23.0553C81.8705 23.4513 82.4705 23.6493 83.2505 23.6493C84.2225 23.6493 85.1105 23.3373 85.9145 22.7133L86.5625 24.2613C86.1545 24.5973 85.6385 24.8673 85.0145 25.0713C84.4025 25.2753 83.7845 25.3773 83.1605 25.3773C81.7205 25.3773 80.5805 24.9693 79.7405 24.1533C78.9125 23.3373 78.4985 22.2213 78.4985 20.8053C78.4985 19.9053 78.6785 19.1073 79.0385 18.4113C79.3985 17.7153 79.9025 17.1753 80.5505 16.7913C81.2105 16.4073 81.9545 16.2153 82.7825 16.2153C83.9945 16.2153 84.9485 16.6053 85.6445 17.3853C86.3525 18.1653 86.7065 19.2393 86.7065 20.6073V21.2373ZM82.8365 17.7993C82.2365 17.7993 81.7505 17.9913 81.3785 18.3753C81.0185 18.7593 80.7965 19.3113 80.7125 20.0313H84.7805C84.7565 19.2993 84.5765 18.7473 84.2405 18.3753C83.9045 17.9913 83.4365 17.7993 82.8365 17.7993ZM94.343 18.0873L93.029 18.2133C91.541 18.3693 90.797 19.1253 90.797 20.4813V25.2333H88.547V16.4313H90.689V17.9793C91.145 16.9233 92.087 16.3473 93.515 16.2513L94.199 16.1973L94.343 18.0873ZM104.824 25.3953C103.852 25.3953 102.94 25.2633 102.088 24.9993C101.236 24.7353 100.516 24.3633 99.9283 23.8833L100.702 22.1913C101.314 22.6593 101.956 23.0013 102.628 23.2173C103.312 23.4333 104.05 23.5413 104.842 23.5413C105.718 23.5413 106.39 23.3913 106.858 23.0913C107.338 22.7793 107.578 22.3473 107.578 21.7953C107.578 21.3153 107.356 20.9493 106.912 20.6973C106.48 20.4453 105.754 20.2053 104.734 19.9773C103.678 19.7493 102.82 19.4853 102.16 19.1853C101.5 18.8853 101.002 18.5013 100.666 18.0333C100.33 17.5653 100.162 16.9713 100.162 16.2513C100.162 15.5073 100.366 14.8413 100.774 14.2533C101.182 13.6653 101.758 13.2093 102.502 12.8853C103.246 12.5493 104.104 12.3813 105.076 12.3813C105.964 12.3813 106.81 12.5193 107.614 12.7953C108.418 13.0593 109.078 13.4253 109.594 13.8933L108.82 15.5853C107.692 14.6853 106.444 14.2353 105.076 14.2353C104.26 14.2353 103.612 14.4033 103.132 14.7393C102.664 15.0633 102.43 15.5193 102.43 16.1073C102.43 16.5993 102.64 16.9773 103.06 17.2413C103.48 17.5053 104.194 17.7513 105.202 17.9793C106.27 18.2193 107.134 18.4893 107.794 18.7893C108.466 19.0773 108.976 19.4493 109.324 19.9053C109.684 20.3613 109.864 20.9373 109.864 21.6333C109.864 22.3893 109.66 23.0553 109.252 23.6313C108.856 24.1953 108.274 24.6333 107.506 24.9453C106.75 25.2453 105.856 25.3953 104.824 25.3953ZM116.18 23.6853C116.444 23.6853 116.72 23.6673 117.008 23.6313L116.9 25.3053C116.54 25.3413 116.21 25.3593 115.91 25.3593C114.674 25.3593 113.762 25.0773 113.174 24.5133C112.586 23.9373 112.292 23.0853 112.292 21.9573V18.1233H110.6V16.4313H112.292V13.8033H114.542V16.4313H116.864V18.1233H114.542V21.9213C114.542 23.0973 115.088 23.6853 116.18 23.6853ZM122.338 25.3773C121.438 25.3773 120.646 25.1913 119.962 24.8193C119.29 24.4473 118.768 23.9133 118.396 23.2173C118.024 22.5213 117.838 21.7113 117.838 20.7873C117.838 19.8633 118.024 19.0593 118.396 18.3753C118.768 17.6793 119.29 17.1453 119.962 16.7733C120.646 16.4013 121.438 16.2153 122.338 16.2153C123.238 16.2153 124.024 16.4013 124.696 16.7733C125.38 17.1453 125.902 17.6793 126.262 18.3753C126.634 19.0593 126.82 19.8633 126.82 20.7873C126.82 21.7113 126.634 22.5213 126.262 23.2173C125.902 23.9133 125.38 24.4473 124.696 24.8193C124.024 25.1913 123.238 25.3773 122.338 25.3773ZM122.32 23.6313C123.052 23.6313 123.61 23.3913 123.994 22.9113C124.378 22.4313 124.57 21.7233 124.57 20.7873C124.57 19.8633 124.378 19.1613 123.994 18.6813C123.61 18.1893 123.058 17.9433 122.338 17.9433C121.618 17.9433 121.06 18.1893 120.664 18.6813C120.28 19.1613 120.088 19.8633 120.088 20.7873C120.088 21.7233 120.28 22.4313 120.664 22.9113C121.048 23.3913 121.6 23.6313 122.32 23.6313ZM134.474 18.0873L133.16 18.2133C131.672 18.3693 130.928 19.1253 130.928 20.4813V25.2333H128.678V16.4313H130.82V17.9793C131.276 16.9233 132.218 16.3473 133.646 16.2513L134.33 16.1973L134.474 18.0873ZM135.568 16.4313H137.818V25.2333H135.568V16.4313ZM137.926 12.3453V14.5593H135.442V12.3453H137.926ZM147.861 21.2373H141.867C141.939 22.0533 142.185 22.6593 142.605 23.0553C143.025 23.4513 143.625 23.6493 144.405 23.6493C145.377 23.6493 146.265 23.3373 147.069 22.7133L147.717 24.2613C147.309 24.5973 146.793 24.8673 146.169 25.0713C145.557 25.2753 144.939 25.3773 144.315 25.3773C142.875 25.3773 141.735 24.9693 140.895 24.1533C140.067 23.3373 139.653 22.2213 139.653 20.8053C139.653 19.9053 139.833 19.1073 140.193 18.4113C140.553 17.7153 141.057 17.1753 141.705 16.7913C142.365 16.4073 143.109 16.2153 143.937 16.2153C145.149 16.2153 146.103 16.6053 146.799 17.3853C147.507 18.1653 147.861 19.2393 147.861 20.6073V21.2373ZM143.991 17.7993C143.391 17.7993 142.905 17.9913 142.533 18.3753C142.173 18.7593 141.951 19.3113 141.867 20.0313H145.935C145.911 19.2993 145.731 18.7473 145.395 18.3753C145.059 17.9913 144.591 17.7993 143.991 17.7993ZM152.941 25.3773C152.161 25.3773 151.441 25.2813 150.781 25.0893C150.133 24.8973 149.581 24.6213 149.125 24.2613L149.755 22.6953C150.691 23.3793 151.765 23.7213 152.977 23.7213C153.493 23.7213 153.883 23.6373 154.147 23.4693C154.423 23.3013 154.561 23.0613 154.561 22.7493C154.561 22.4853 154.465 22.2813 154.273 22.1373C154.093 21.9933 153.763 21.8613 153.283 21.7413L151.843 21.4173C151.027 21.2373 150.421 20.9433 150.025 20.5353C149.629 20.1273 149.431 19.5993 149.431 18.9513C149.431 18.4113 149.581 17.9373 149.881 17.5293C150.193 17.1093 150.619 16.7853 151.159 16.5573C151.711 16.3293 152.347 16.2153 153.067 16.2153C153.691 16.2153 154.291 16.3113 154.867 16.5033C155.455 16.6953 155.971 16.9653 156.415 17.3133L155.785 18.8433C154.873 18.1833 153.961 17.8533 153.049 17.8533C152.557 17.8533 152.173 17.9433 151.897 18.1233C151.621 18.3033 151.483 18.5553 151.483 18.8793C151.483 19.1193 151.567 19.3173 151.735 19.4733C151.915 19.6293 152.197 19.7493 152.581 19.8333L154.075 20.1753C154.951 20.3673 155.593 20.6733 156.001 21.0933C156.409 21.5013 156.613 22.0413 156.613 22.7133C156.613 23.5293 156.283 24.1773 155.623 24.6573C154.963 25.1373 154.069 25.3773 152.941 25.3773Z" fill="#0D47A1"/>
</svg>
