<svg width="146" height="30" viewBox="0 0 146 30" fill="none" xmlns="http://www.w3.org/2000/svg">
<rect width="146" height="30" rx="3" fill="#0097A7"/>
<path d="M22.0137 8.72L16.9897 20H15.3097L10.2857 8.72H12.4137L16.1577 17.44L19.9177 8.72H22.0137ZM22.8916 12.176H24.8916V20H22.8916V12.176ZM24.9876 8.544V10.512H22.7796V8.544H24.9876ZM33.8181 16.448H28.4901C28.5541 17.1733 28.7727 17.712 29.1461 18.064C29.5194 18.416 30.0527 18.592 30.7461 18.592C31.6101 18.592 32.3994 18.3147 33.1141 17.76L33.6901 19.136C33.3274 19.4347 32.8687 19.6747 32.3141 19.856C31.7701 20.0373 31.2207 20.128 30.6661 20.128C29.3861 20.128 28.3727 19.7653 27.6261 19.04C26.8901 18.3147 26.5221 17.3227 26.5221 16.064C26.5221 15.264 26.6821 14.5547 27.0021 13.936C27.3221 13.3173 27.7701 12.8373 28.3461 12.496C28.9327 12.1547 29.5941 11.984 30.3301 11.984C31.4074 11.984 32.2554 12.3307 32.8741 13.024C33.5034 13.7173 33.8181 14.672 33.8181 15.888V16.448ZM30.3781 13.392C29.8447 13.392 29.4127 13.5627 29.0821 13.904C28.7621 14.2453 28.5647 14.736 28.4901 15.376H32.1061C32.0847 14.7253 31.9247 14.2347 31.6261 13.904C31.3274 13.5627 30.9114 13.392 30.3781 13.392ZM47.8411 12.176L44.7691 20H43.0251L41.1051 14.96L39.2331 20H37.5051L34.4171 12.176H36.4651L38.4651 17.616L40.4651 12.176H41.9051L43.9051 17.648L45.8891 12.176H47.8411ZM58.6719 20.144C57.5626 20.144 56.5919 19.9093 55.7599 19.44C54.9386 18.96 54.3039 18.2827 53.8559 17.408C53.4186 16.5333 53.1999 15.5147 53.1999 14.352C53.1999 13.1893 53.4186 12.176 53.8559 11.312C54.3039 10.4373 54.9386 9.76533 55.7599 9.296C56.5919 8.816 57.5626 8.576 58.6719 8.576C59.4293 8.576 60.1439 8.69333 60.8159 8.928C61.4879 9.16267 62.0533 9.49333 62.5119 9.92L61.8239 11.424C61.3119 11.0187 60.8053 10.7253 60.3039 10.544C59.8026 10.352 59.2693 10.256 58.7039 10.256C57.6159 10.256 56.7733 10.608 56.1759 11.312C55.5893 12.016 55.2959 13.0293 55.2959 14.352C55.2959 15.6853 55.5893 16.704 56.1759 17.408C56.7733 18.112 57.6159 18.464 58.7039 18.464C59.2693 18.464 59.8026 18.3733 60.3039 18.192C60.8053 18 61.3119 17.7013 61.8239 17.296L62.5119 18.8C62.0533 19.2267 61.4879 19.5573 60.8159 19.792C60.1439 20.0267 59.4293 20.144 58.6719 20.144ZM67.4234 11.984C68.5221 11.984 69.3381 12.2507 69.8714 12.784C70.4048 13.3173 70.6714 14.1387 70.6714 15.248V20H68.7674V18.8C68.5861 19.216 68.2981 19.5413 67.9034 19.776C67.5194 20.0107 67.0714 20.128 66.5594 20.128C66.0368 20.128 65.5621 20.0213 65.1354 19.808C64.7088 19.5947 64.3728 19.3013 64.1274 18.928C63.8821 18.5547 63.7594 18.1387 63.7594 17.68C63.7594 17.104 63.9034 16.6507 64.1914 16.32C64.4901 15.9893 64.9701 15.7493 65.6314 15.6C66.2928 15.4507 67.2048 15.376 68.3674 15.376H68.7674V15.008C68.7674 14.4747 68.6501 14.0907 68.4154 13.856C68.1914 13.6213 67.8128 13.504 67.2794 13.504C66.8634 13.504 66.4261 13.5787 65.9674 13.728C65.5194 13.8667 65.0768 14.064 64.6394 14.32L64.0794 12.944C64.5168 12.6667 65.0448 12.4373 65.6634 12.256C66.2821 12.0747 66.8688 11.984 67.4234 11.984ZM66.9594 18.688C67.4928 18.688 67.9248 18.512 68.2554 18.16C68.5968 17.7973 68.7674 17.3333 68.7674 16.768V16.432H68.4794C67.7648 16.432 67.2101 16.464 66.8154 16.528C66.4208 16.592 66.1381 16.704 65.9674 16.864C65.7968 17.024 65.7114 17.2427 65.7114 17.52C65.7114 17.8613 65.8288 18.144 66.0634 18.368C66.2981 18.5813 66.5968 18.688 66.9594 18.688ZM75.5841 20.128C74.8907 20.128 74.2507 20.0427 73.6641 19.872C73.0881 19.7013 72.5974 19.456 72.1921 19.136L72.7521 17.744C73.5841 18.352 74.5387 18.656 75.6161 18.656C76.0747 18.656 76.4214 18.5813 76.6561 18.432C76.9014 18.2827 77.0241 18.0693 77.0241 17.792C77.0241 17.5573 76.9387 17.376 76.7681 17.248C76.6081 17.12 76.3147 17.0027 75.8881 16.896L74.6081 16.608C73.8827 16.448 73.3441 16.1867 72.9921 15.824C72.6401 15.4613 72.4641 14.992 72.4641 14.416C72.4641 13.936 72.5974 13.5147 72.8641 13.152C73.1414 12.7787 73.5201 12.4907 74.0001 12.288C74.4907 12.0853 75.0561 11.984 75.6961 11.984C76.2507 11.984 76.7841 12.0693 77.2961 12.24C77.8187 12.4107 78.2774 12.6507 78.6721 12.96L78.1121 14.32C77.3014 13.7333 76.4907 13.44 75.6801 13.44C75.2427 13.44 74.9014 13.52 74.6561 13.68C74.4107 13.84 74.2881 14.064 74.2881 14.352C74.2881 14.5653 74.3627 14.7413 74.5121 14.88C74.6721 15.0187 74.9227 15.1253 75.2641 15.2L76.5921 15.504C77.3707 15.6747 77.9414 15.9467 78.3041 16.32C78.6667 16.6827 78.8481 17.1627 78.8481 17.76C78.8481 18.4853 78.5547 19.0613 77.9681 19.488C77.3814 19.9147 76.5867 20.128 75.5841 20.128ZM87.3337 16.448H82.0057C82.0697 17.1733 82.2884 17.712 82.6617 18.064C83.035 18.416 83.5684 18.592 84.2617 18.592C85.1257 18.592 85.915 18.3147 86.6297 17.76L87.2057 19.136C86.843 19.4347 86.3844 19.6747 85.8297 19.856C85.2857 20.0373 84.7364 20.128 84.1817 20.128C82.9017 20.128 81.8884 19.7653 81.1417 19.04C80.4057 18.3147 80.0377 17.3227 80.0377 16.064C80.0377 15.264 80.1977 14.5547 80.5177 13.936C80.8377 13.3173 81.2857 12.8373 81.8617 12.496C82.4484 12.1547 83.1097 11.984 83.8457 11.984C84.923 11.984 85.771 12.3307 86.3897 13.024C87.019 13.7173 87.3337 14.672 87.3337 15.888V16.448ZM83.8937 13.392C83.3604 13.392 82.9284 13.5627 82.5977 13.904C82.2777 14.2453 82.0804 14.736 82.0057 15.376H85.6217C85.6004 14.7253 85.4404 14.2347 85.1417 13.904C84.843 13.5627 84.427 13.392 83.8937 13.392ZM97.3134 20.144C96.4494 20.144 95.6388 20.0267 94.8814 19.792C94.1241 19.5573 93.4841 19.2267 92.9614 18.8L93.6494 17.296C94.1934 17.712 94.7641 18.016 95.3614 18.208C95.9694 18.4 96.6254 18.496 97.3294 18.496C98.1081 18.496 98.7054 18.3627 99.1214 18.096C99.5481 17.8187 99.7614 17.4347 99.7614 16.944C99.7614 16.5173 99.5641 16.192 99.1694 15.968C98.7854 15.744 98.1401 15.5307 97.2334 15.328C96.2948 15.1253 95.5321 14.8907 94.9454 14.624C94.3588 14.3573 93.9161 14.016 93.6174 13.6C93.3188 13.184 93.1694 12.656 93.1694 12.016C93.1694 11.3547 93.3508 10.7627 93.7134 10.24C94.0761 9.71733 94.5881 9.312 95.2494 9.024C95.9108 8.72533 96.6734 8.576 97.5374 8.576C98.3268 8.576 99.0788 8.69867 99.7934 8.944C100.508 9.17867 101.095 9.504 101.553 9.92L100.865 11.424C99.8628 10.624 98.7534 10.224 97.5374 10.224C96.8121 10.224 96.2361 10.3733 95.8094 10.672C95.3934 10.96 95.1854 11.3653 95.1854 11.888C95.1854 12.3253 95.3721 12.6613 95.7454 12.896C96.1188 13.1307 96.7534 13.3493 97.6494 13.552C98.5988 13.7653 99.3668 14.0053 99.9534 14.272C100.551 14.528 101.004 14.8587 101.313 15.264C101.633 15.6693 101.793 16.1813 101.793 16.8C101.793 17.472 101.612 18.064 101.249 18.576C100.897 19.0773 100.38 19.4667 99.6974 19.744C99.0254 20.0107 98.2308 20.144 97.3134 20.144ZM107.407 18.624C107.642 18.624 107.887 18.608 108.143 18.576L108.047 20.064C107.727 20.096 107.434 20.112 107.167 20.112C106.069 20.112 105.258 19.8613 104.735 19.36C104.213 18.848 103.951 18.0907 103.951 17.088V13.68H102.447V12.176H103.951V9.84H105.951V12.176H108.015V13.68H105.951V17.056C105.951 18.1013 106.437 18.624 107.407 18.624ZM116.497 12.176V20H114.545V18.8C114.3 19.2267 113.969 19.5573 113.553 19.792C113.137 20.016 112.668 20.128 112.145 20.128C110.225 20.128 109.265 19.0507 109.265 16.896V12.176H111.265V16.912C111.265 17.4667 111.377 17.8773 111.601 18.144C111.825 18.4107 112.177 18.544 112.657 18.544C113.212 18.544 113.655 18.3627 113.985 18C114.327 17.6267 114.497 17.136 114.497 16.528V12.176H116.497ZM126.131 8.72V20H124.147V18.736C123.912 19.1733 123.571 19.5147 123.123 19.76C122.686 20.0053 122.184 20.128 121.619 20.128C120.947 20.128 120.344 19.9573 119.811 19.616C119.288 19.2747 118.878 18.7947 118.579 18.176C118.291 17.5467 118.147 16.8267 118.147 16.016C118.147 15.2053 118.291 14.496 118.579 13.888C118.878 13.28 119.288 12.8107 119.811 12.48C120.334 12.1493 120.936 11.984 121.619 11.984C122.184 11.984 122.686 12.1013 123.123 12.336C123.56 12.5707 123.896 12.9013 124.131 13.328V8.72H126.131ZM122.147 18.576C122.787 18.576 123.278 18.3573 123.619 17.92C123.971 17.4827 124.147 16.8587 124.147 16.048C124.147 15.2373 123.971 14.6187 123.619 14.192C123.278 13.7547 122.792 13.536 122.163 13.536C121.523 13.536 121.027 13.7493 120.675 14.176C120.323 14.6027 120.147 15.216 120.147 16.016C120.147 16.8267 120.323 17.456 120.675 17.904C121.027 18.352 121.518 18.576 122.147 18.576ZM135.644 12.192L130.94 22.88H128.924L130.348 19.696L127.084 12.192H129.196L131.404 17.712L133.676 12.192H135.644Z" fill="white"/>
</svg>
