<svg width="246" height="37" viewBox="0 0 246 37" fill="none" xmlns="http://www.w3.org/2000/svg">
<rect x="0.5" y="0.5" width="245" height="36" rx="2.5" fill="white" stroke="#0097A7"/>
<path d="M24.3318 12.5433L18.6798 25.2333H16.7898L11.1378 12.5433H13.5318L17.7438 22.3533L21.9738 12.5433H24.3318ZM25.3194 16.4313H27.5694V25.2333H25.3194V16.4313ZM27.6774 12.3453V14.5593H25.1934V12.3453H27.6774ZM37.6117 21.2373H31.6177C31.6897 22.0533 31.9357 22.6593 32.3557 23.0553C32.7757 23.4513 33.3757 23.6493 34.1557 23.6493C35.1277 23.6493 36.0157 23.3373 36.8197 22.7133L37.4677 24.2613C37.0597 24.5973 36.5437 24.8673 35.9197 25.0713C35.3077 25.2753 34.6897 25.3773 34.0657 25.3773C32.6257 25.3773 31.4857 24.9693 30.6457 24.1533C29.8177 23.3373 29.4037 22.2213 29.4037 20.8053C29.4037 19.9053 29.5837 19.1073 29.9437 18.4113C30.3037 17.7153 30.8077 17.1753 31.4557 16.7913C32.1157 16.4073 32.8597 16.2153 33.6877 16.2153C34.8997 16.2153 35.8537 16.6053 36.5497 17.3853C37.2577 18.1653 37.6117 19.2393 37.6117 20.6073V21.2373ZM33.7417 17.7993C33.1417 17.7993 32.6557 17.9913 32.2837 18.3753C31.9237 18.7593 31.7017 19.3113 31.6177 20.0313H35.6857C35.6617 19.2993 35.4817 18.7473 35.1457 18.3753C34.8097 17.9913 34.3417 17.7993 33.7417 17.7993ZM53.3876 16.4313L49.9316 25.2333H47.9696L45.8096 19.5633L43.7036 25.2333H41.7596L38.2856 16.4313H40.5896L42.8396 22.5513L45.0896 16.4313H46.7096L48.9596 22.5873L51.1916 16.4313H53.3876ZM64.1143 25.3953C63.1423 25.3953 62.2303 25.2633 61.3783 24.9993C60.5263 24.7353 59.8063 24.3633 59.2183 23.8833L59.9923 22.1913C60.6043 22.6593 61.2463 23.0013 61.9183 23.2173C62.6023 23.4333 63.3403 23.5413 64.1323 23.5413C65.0083 23.5413 65.6803 23.3913 66.1483 23.0913C66.6283 22.7793 66.8683 22.3473 66.8683 21.7953C66.8683 21.3153 66.6463 20.9493 66.2023 20.6973C65.7703 20.4453 65.0443 20.2053 64.0243 19.9773C62.9683 19.7493 62.1103 19.4853 61.4503 19.1853C60.7903 18.8853 60.2923 18.5013 59.9563 18.0333C59.6203 17.5653 59.4523 16.9713 59.4523 16.2513C59.4523 15.5073 59.6563 14.8413 60.0643 14.2533C60.4723 13.6653 61.0483 13.2093 61.7923 12.8853C62.5363 12.5493 63.3943 12.3813 64.3663 12.3813C65.2543 12.3813 66.1003 12.5193 66.9043 12.7953C67.7083 13.0593 68.3683 13.4253 68.8843 13.8933L68.1103 15.5853C66.9823 14.6853 65.7343 14.2353 64.3663 14.2353C63.5503 14.2353 62.9023 14.4033 62.4223 14.7393C61.9543 15.0633 61.7203 15.5193 61.7203 16.1073C61.7203 16.5993 61.9303 16.9773 62.3503 17.2413C62.7703 17.5053 63.4843 17.7513 64.4923 17.9793C65.5603 18.2193 66.4243 18.4893 67.0843 18.7893C67.7563 19.0773 68.2663 19.4493 68.6143 19.9053C68.9743 20.3613 69.1543 20.9373 69.1543 21.6333C69.1543 22.3893 68.9503 23.0553 68.5423 23.6313C68.1463 24.1953 67.5643 24.6333 66.7963 24.9453C66.0403 25.2453 65.1463 25.3953 64.1143 25.3953ZM77.1229 25.2333L73.3429 21.2193V25.2333H71.0929V12.5433H73.3429V20.2833L76.8889 16.4493H79.6249L75.6649 20.6613L79.9129 25.2333H77.1229ZM88.3422 21.2373H82.3482C82.4202 22.0533 82.6662 22.6593 83.0862 23.0553C83.5062 23.4513 84.1062 23.6493 84.8862 23.6493C85.8582 23.6493 86.7462 23.3373 87.5502 22.7133L88.1982 24.2613C87.7902 24.5973 87.2742 24.8673 86.6502 25.0713C86.0382 25.2753 85.4202 25.3773 84.7962 25.3773C83.3562 25.3773 82.2162 24.9693 81.3762 24.1533C80.5482 23.3373 80.1342 22.2213 80.1342 20.8053C80.1342 19.9053 80.3142 19.1073 80.6742 18.4113C81.0342 17.7153 81.5382 17.1753 82.1862 16.7913C82.8462 16.4073 83.5902 16.2153 84.4182 16.2153C85.6302 16.2153 86.5842 16.6053 87.2802 17.3853C87.9882 18.1653 88.3422 19.2393 88.3422 20.6073V21.2373ZM84.4722 17.7993C83.8722 17.7993 83.3862 17.9913 83.0142 18.3753C82.6542 18.7593 82.4322 19.3113 82.3482 20.0313H86.4162C86.3922 19.2993 86.2122 18.7473 85.8762 18.3753C85.5402 17.9913 85.0722 17.7993 84.4722 17.7993ZM94.5596 23.6853C94.8236 23.6853 95.0996 23.6673 95.3876 23.6313L95.2796 25.3053C94.9196 25.3413 94.5896 25.3593 94.2896 25.3593C93.0536 25.3593 92.1416 25.0773 91.5536 24.5133C90.9656 23.9373 90.6716 23.0853 90.6716 21.9573V18.1233H88.9796V16.4313H90.6716V13.8033H92.9216V16.4313H95.2436V18.1233H92.9216V21.9213C92.9216 23.0973 93.4676 23.6853 94.5596 23.6853ZM100.718 25.3773C99.7942 25.3773 98.9902 25.1913 98.3062 24.8193C97.6342 24.4473 97.1182 23.9193 96.7582 23.2353C96.3982 22.5513 96.2182 21.7533 96.2182 20.8413C96.2182 19.9293 96.4042 19.1253 96.7762 18.4293C97.1602 17.7213 97.7002 17.1753 98.3962 16.7913C99.0922 16.4073 99.8962 16.2153 100.808 16.2153C101.432 16.2153 102.038 16.3173 102.626 16.5213C103.226 16.7133 103.706 16.9773 104.066 17.3133L103.418 18.8973C103.046 18.5973 102.65 18.3693 102.23 18.2133C101.822 18.0573 101.414 17.9793 101.006 17.9793C100.226 17.9793 99.6202 18.2253 99.1882 18.7173C98.7562 19.1973 98.5402 19.8933 98.5402 20.8053C98.5402 21.7053 98.7562 22.4013 99.1882 22.8933C99.6202 23.3733 100.226 23.6133 101.006 23.6133C101.414 23.6133 101.822 23.5353 102.23 23.3793C102.65 23.2233 103.046 22.9953 103.418 22.6953L104.066 24.2613C103.682 24.6093 103.19 24.8853 102.59 25.0893C101.99 25.2813 101.366 25.3773 100.718 25.3773ZM110.605 16.2153C111.661 16.2153 112.447 16.5153 112.963 17.1153C113.479 17.7153 113.737 18.6213 113.737 19.8333V25.2333H111.487V19.9593C111.487 19.2753 111.355 18.7773 111.091 18.4653C110.839 18.1533 110.437 17.9973 109.885 17.9973C109.237 17.9973 108.715 18.2013 108.319 18.6093C107.935 19.0173 107.743 19.5633 107.743 20.2473V25.2333H105.493V12.5433H107.743V17.6553C108.043 17.1873 108.439 16.8333 108.931 16.5933C109.435 16.3413 109.993 16.2153 110.605 16.2153ZM129.963 25.2333L128.631 23.8653C128.103 24.3453 127.509 24.7173 126.849 24.9813C126.201 25.2453 125.517 25.3773 124.797 25.3773C123.945 25.3773 123.189 25.2333 122.529 24.9453C121.869 24.6453 121.353 24.2373 120.981 23.7213C120.621 23.1933 120.441 22.5873 120.441 21.9033C120.441 21.1473 120.651 20.4693 121.071 19.8693C121.503 19.2693 122.187 18.7053 123.123 18.1773C122.655 17.6613 122.313 17.1873 122.097 16.7553C121.893 16.3233 121.791 15.8733 121.791 15.4053C121.791 14.5053 122.109 13.7853 122.745 13.2453C123.393 12.6933 124.233 12.4173 125.265 12.4173C126.225 12.4173 126.987 12.6693 127.551 13.1733C128.127 13.6653 128.415 14.3313 128.415 15.1713C128.415 15.8193 128.229 16.4013 127.857 16.9173C127.485 17.4213 126.873 17.9313 126.021 18.4473L128.523 21.0033C129.015 20.0313 129.285 18.8973 129.333 17.6013H131.205C131.133 19.4493 130.683 21.0393 129.855 22.3713L132.645 25.2333H129.963ZM125.283 13.9653C124.839 13.9653 124.485 14.0973 124.221 14.3613C123.957 14.6133 123.825 14.9553 123.825 15.3873C123.825 15.6753 123.897 15.9513 124.041 16.2153C124.185 16.4793 124.461 16.8273 124.869 17.2593C125.505 16.8993 125.949 16.5693 126.201 16.2693C126.453 15.9573 126.579 15.6213 126.579 15.2613C126.579 14.8653 126.459 14.5533 126.219 14.3253C125.979 14.0853 125.667 13.9653 125.283 13.9653ZM124.869 23.6313C125.817 23.6313 126.657 23.2833 127.389 22.5873L124.293 19.3833C123.705 19.7433 123.279 20.1153 123.015 20.4993C122.763 20.8713 122.637 21.3033 122.637 21.7953C122.637 22.3593 122.835 22.8093 123.231 23.1453C123.639 23.4693 124.185 23.6313 124.869 23.6313ZM156.426 12.5433L151.944 25.2333H150.054L146.868 16.1073L143.664 25.2333H141.774L137.31 12.5433H139.65L142.8 21.9933L146.112 12.5433H147.75L150.972 22.0473L154.212 12.5433H156.426ZM158.034 16.4313H160.284V25.2333H158.034V16.4313ZM160.392 12.3453V14.5593H157.908V12.3453H160.392ZM168.401 18.0873L167.087 18.2133C165.599 18.3693 164.855 19.1253 164.855 20.4813V25.2333H162.605V16.4313H164.747V17.9793C165.203 16.9233 166.145 16.3473 167.573 16.2513L168.257 16.1973L168.401 18.0873ZM177.041 21.2373H171.047C171.119 22.0533 171.365 22.6593 171.785 23.0553C172.205 23.4513 172.805 23.6493 173.585 23.6493C174.557 23.6493 175.445 23.3373 176.249 22.7133L176.897 24.2613C176.489 24.5973 175.973 24.8673 175.349 25.0713C174.737 25.2753 174.119 25.3773 173.495 25.3773C172.055 25.3773 170.915 24.9693 170.075 24.1533C169.247 23.3373 168.833 22.2213 168.833 20.8053C168.833 19.9053 169.013 19.1073 169.373 18.4113C169.733 17.7153 170.237 17.1753 170.885 16.7913C171.545 16.4073 172.289 16.2153 173.117 16.2153C174.329 16.2153 175.283 16.6053 175.979 17.3853C176.687 18.1653 177.041 19.2393 177.041 20.6073V21.2373ZM173.171 17.7993C172.571 17.7993 172.085 17.9913 171.713 18.3753C171.353 18.7593 171.131 19.3113 171.047 20.0313H175.115C175.091 19.2993 174.911 18.7473 174.575 18.3753C174.239 17.9913 173.771 17.7993 173.171 17.7993ZM181.691 16.4313H184.013V18.1233H181.691V25.2333H179.441V18.1233H177.749V16.4313H179.441C179.441 15.1713 179.765 14.2233 180.413 13.5873C181.073 12.9513 182.093 12.5973 183.473 12.5253L184.355 12.4713L184.499 14.1453L183.653 14.1813C182.945 14.2173 182.441 14.3793 182.141 14.6673C181.841 14.9433 181.691 15.3933 181.691 16.0173V16.4313ZM191.076 18.0873L189.762 18.2133C188.274 18.3693 187.53 19.1253 187.53 20.4813V25.2333H185.28V16.4313H187.422V17.9793C187.878 16.9233 188.82 16.3473 190.248 16.2513L190.932 16.1973L191.076 18.0873ZM195.916 16.2153C197.152 16.2153 198.07 16.5153 198.67 17.1153C199.27 17.7153 199.57 18.6393 199.57 19.8873V25.2333H197.428V23.8833C197.224 24.3513 196.9 24.7173 196.456 24.9813C196.024 25.2453 195.52 25.3773 194.944 25.3773C194.356 25.3773 193.822 25.2573 193.342 25.0173C192.862 24.7773 192.484 24.4473 192.208 24.0273C191.932 23.6073 191.794 23.1393 191.794 22.6233C191.794 21.9753 191.956 21.4653 192.28 21.0933C192.616 20.7213 193.156 20.4513 193.9 20.2833C194.644 20.1153 195.67 20.0313 196.978 20.0313H197.428V19.6173C197.428 19.0173 197.296 18.5853 197.032 18.3213C196.78 18.0573 196.354 17.9253 195.754 17.9253C195.286 17.9253 194.794 18.0093 194.278 18.1773C193.774 18.3333 193.276 18.5553 192.784 18.8433L192.154 17.2953C192.646 16.9833 193.24 16.7253 193.936 16.5213C194.632 16.3173 195.292 16.2153 195.916 16.2153ZM195.394 23.7573C195.994 23.7573 196.48 23.5593 196.852 23.1633C197.236 22.7553 197.428 22.2333 197.428 21.5973V21.2193H197.104C196.3 21.2193 195.676 21.2553 195.232 21.3273C194.788 21.3993 194.47 21.5253 194.278 21.7053C194.086 21.8853 193.99 22.1313 193.99 22.4433C193.99 22.8273 194.122 23.1453 194.386 23.3973C194.65 23.6373 194.986 23.7573 195.394 23.7573ZM212.315 16.2153C213.311 16.2153 214.055 16.5153 214.547 17.1153C215.039 17.7033 215.285 18.6093 215.285 19.8333V25.2333H213.035V19.9233C213.035 19.2513 212.921 18.7653 212.693 18.4653C212.465 18.1533 212.099 17.9973 211.595 17.9973C210.995 17.9973 210.527 18.2013 210.191 18.6093C209.855 19.0173 209.687 19.5873 209.687 20.3193V25.2333H207.437V19.9233C207.437 19.2513 207.323 18.7653 207.095 18.4653C206.879 18.1533 206.513 17.9973 205.997 17.9973C205.409 17.9973 204.947 18.2013 204.611 18.6093C204.275 19.0173 204.107 19.5873 204.107 20.3193V25.2333H201.857V16.4313H204.053V17.6733C204.317 17.1933 204.683 16.8333 205.151 16.5933C205.619 16.3413 206.153 16.2153 206.753 16.2153C208.085 16.2153 208.967 16.7673 209.399 17.8713C209.675 17.3553 210.071 16.9533 210.587 16.6653C211.103 16.3653 211.679 16.2153 212.315 16.2153ZM225.293 21.2373H219.299C219.371 22.0533 219.617 22.6593 220.037 23.0553C220.457 23.4513 221.057 23.6493 221.837 23.6493C222.809 23.6493 223.697 23.3373 224.501 22.7133L225.149 24.2613C224.741 24.5973 224.225 24.8673 223.601 25.0713C222.989 25.2753 222.371 25.3773 221.747 25.3773C220.307 25.3773 219.167 24.9693 218.327 24.1533C217.499 23.3373 217.085 22.2213 217.085 20.8053C217.085 19.9053 217.265 19.1073 217.625 18.4113C217.985 17.7153 218.489 17.1753 219.137 16.7913C219.797 16.4073 220.541 16.2153 221.369 16.2153C222.581 16.2153 223.535 16.6053 224.231 17.3853C224.939 18.1653 225.293 19.2393 225.293 20.6073V21.2373ZM221.423 17.7993C220.823 17.7993 220.337 17.9913 219.965 18.3753C219.605 18.7593 219.383 19.3113 219.299 20.0313H223.367C223.343 19.2993 223.163 18.7473 222.827 18.3753C222.491 17.9913 222.023 17.7993 221.423 17.7993ZM230.374 25.3773C229.594 25.3773 228.874 25.2813 228.214 25.0893C227.566 24.8973 227.014 24.6213 226.558 24.2613L227.188 22.6953C228.124 23.3793 229.198 23.7213 230.41 23.7213C230.926 23.7213 231.316 23.6373 231.58 23.4693C231.856 23.3013 231.994 23.0613 231.994 22.7493C231.994 22.4853 231.898 22.2813 231.706 22.1373C231.526 21.9933 231.196 21.8613 230.716 21.7413L229.276 21.4173C228.46 21.2373 227.854 20.9433 227.458 20.5353C227.062 20.1273 226.864 19.5993 226.864 18.9513C226.864 18.4113 227.014 17.9373 227.314 17.5293C227.626 17.1093 228.052 16.7853 228.592 16.5573C229.144 16.3293 229.78 16.2153 230.5 16.2153C231.124 16.2153 231.724 16.3113 232.3 16.5033C232.888 16.6953 233.404 16.9653 233.848 17.3133L233.218 18.8433C232.306 18.1833 231.394 17.8533 230.482 17.8533C229.99 17.8533 229.606 17.9433 229.33 18.1233C229.054 18.3033 228.916 18.5553 228.916 18.8793C228.916 19.1193 229 19.3173 229.168 19.4733C229.348 19.6293 229.63 19.7493 230.014 19.8333L231.508 20.1753C232.384 20.3673 233.026 20.6733 233.434 21.0933C233.842 21.5013 234.046 22.0413 234.046 22.7133C234.046 23.5293 233.716 24.1773 233.056 24.6573C232.396 25.1373 231.502 25.3773 230.374 25.3773Z" fill="#0D47A1"/>
</svg>
