<svg width="42" height="44" viewBox="0 0 42 44" fill="none" xmlns="http://www.w3.org/2000/svg">
<path d="M1.00003 21.9689C1.00003 20.5607 1.66069 18.344 5.41293 17.1808C5.68036 17.0979 5.74537 17.0394 5.67252 16.9829C4.3746 17.1808 1.5192 14.4582 3.33627 11.8295C4.86017 9.62484 7.22087 10.3256 9.38483 12.2705C7.64189 10.3075 6.13795 7.69088 8.00876 5.91475C10.0854 3.94318 11.3833 4.78814 12.4217 5.91475C12.5082 4.78814 13.3562 2.25327 16.0558 2.25327C18.7555 2.25327 19.6034 3.94318 19.69 4.78814V36.0516C19.0843 37.8354 16.8865 41.1213 13.9792 41.1213C11.0718 41.1213 8.52792 37.4598 9.30667 35.4883C6.19168 36.8965 2.29794 35.0004 3.33627 27.3309C1.00003 25.7576 1.00003 22.9845 1.00003 21.9689Z" fill="#01A7B9"/>
<path d="M12.4217 19.7157C12.7678 22.72 12.214 28.6723 7.23001 28.4469C5.49262 28.3684 4.23975 27.9394 3.33627 27.3309M3.33627 27.3309C1.00003 25.7576 1.00003 22.9845 1.00003 21.9689C1.00003 20.5607 1.66069 18.344 5.41293 17.1808C5.68036 17.0979 5.74537 17.0394 5.67252 16.9829C4.3746 17.1808 1.5192 14.4582 3.33627 11.8295C5.15335 9.2007 8.16019 10.7028 10.6046 13.5194C8.52792 11.5749 5.70124 8.10549 8.00876 5.91475C10.0854 3.94318 11.3833 4.78814 12.4217 5.91475C12.5082 4.78814 13.3562 2.25327 16.0558 2.25327C18.7555 2.25327 19.6034 3.94318 19.69 4.78814V36.0516C19.0843 37.8354 16.8865 41.1213 13.9792 41.1213C11.0718 41.1213 8.52792 37.4598 9.30667 35.4883C6.19168 36.8965 2.29794 35.0004 3.33627 27.3309Z" stroke="#01A7B9"/>
<path d="M34.8049 8.00662L29.554 14.4141H23.0645" stroke="#01A7B9" stroke-width="4"/>
<path d="M34.8049 34.9356L29.554 28.5281H23.0645" stroke="#01A7B9" stroke-width="4"/>
<path d="M36.6785 21.6873H23.0645" stroke="#01A7B9" stroke-width="4"/>
<path d="M29.0541 3.94314C29.0541 5.88392 27.6133 7.38627 25.92 7.38627C24.2267 7.38627 22.7858 5.88392 22.7858 3.94314C22.7858 2.00235 24.2267 0.5 25.92 0.5C27.6133 0.5 29.0541 2.00235 29.0541 3.94314Z" fill="#01A7B9" stroke="#01A7B9"/>
<path d="M38.6586 7.65441C38.6586 9.5952 37.2178 11.0975 35.5245 11.0975C33.8312 11.0975 32.3903 9.5952 32.3903 7.65441C32.3903 5.71362 33.8312 4.21127 35.5245 4.21127C37.2178 4.21127 38.6586 5.71362 38.6586 7.65441Z" fill="#01A7B9" stroke="#01A7B9"/>
<path d="M41.2545 21.4056C41.2545 23.3464 39.8137 24.8487 38.1204 24.8487C36.427 24.8487 34.9862 23.3464 34.9862 21.4056C34.9862 19.4648 36.427 17.9625 38.1204 17.9625C39.8137 17.9625 41.2545 19.4648 41.2545 21.4056Z" fill="#01A7B9" stroke="#01A7B9"/>
<path d="M37.6549 35.1882C37.6549 37.129 36.2141 38.6314 34.5208 38.6314C32.8275 38.6314 31.3866 37.129 31.3866 35.1882C31.3866 33.2474 32.8275 31.7451 34.5208 31.7451C36.2141 31.7451 37.6549 33.2474 37.6549 35.1882Z" fill="#01A7B9" stroke="#01A7B9"/>
<path d="M29.0541 39.4314C29.0541 41.3721 27.6133 42.8745 25.92 42.8745C24.2266 42.8745 22.7858 41.3721 22.7858 39.4314C22.7858 37.4906 24.2266 35.9882 25.92 35.9882C27.6133 35.9882 29.0541 37.4906 29.0541 39.4314Z" fill="#01A7B9" stroke="#01A7B9"/>
</svg>
