<svg width="38" height="42" viewBox="0 0 38 42" fill="none" xmlns="http://www.w3.org/2000/svg">
<path d="M17.1527 15.7634C13.7401 19.474 12.5295 22.4535 13.5839 23.3943C14.6382 24.3352 19.7823 18.589 19.7823 18.589C19.7823 20.1351 19.4719 23.2668 20.0406 24.5037C20.7516 26.0498 26.0447 30.7893 26.7556 31.5623C27.3734 32.234 29.3383 40.5752 29.8108 40.952C30.2833 41.3287 31.4045 40.8568 31.6628 40.5752C31.921 40.2935 30.6297 30.999 30.3714 30.4357L30.3714 30.4357C30.1131 29.8723 28.5635 26.4925 27.5304 24.8026C26.7556 19.1523 30.0417 13.4076 26.7556 10.7199C24.6895 9.03005 21.4184 11.1251 17.1527 15.7634Z" fill="#01A7B9"/>
<path d="M13.3256 24.2393C11.8539 22.8586 11.2791 27.6622 9.33225 27.359C7.38537 27.0558 7.2884 26.3057 5.57748 26.4753C2.73651 26.7569 0.670349 33.2522 0.153809 35.787C0.670349 36.632 3.51132 38.3219 3.51132 38.3219C3.51132 38.3219 4.02786 36.0515 6.09402 35.787C8.16018 35.5226 8.93499 36.632 8.93499 36.632C10.5939 32.7668 14.7973 25.6201 13.3256 24.2393Z" fill="#01A7B9"/>
<path d="M22.8816 30.9817C23.1399 30.6828 20.2989 28.1652 20.0406 28.1652C19.7823 28.1652 13.7544 38.7202 13.8421 39.4313C13.9298 40.1424 14.8752 40.8568 15.3917 40.8568C15.9083 40.8568 22.6233 31.2806 22.8816 30.9817Z" fill="#01A7B9"/>
<path d="M37.7063 21.8039C38.3778 20.0145 32.6987 17.3118 29.8549 15.5081L29.5966 19.4512C31.9664 20.9973 37.0978 23.4251 37.7063 21.8039Z" fill="#01A7B9"/>
<path d="M8.16022 38.5864C8.16022 39.5197 7.46643 40.2763 6.61059 40.2763C5.75476 40.2763 5.06097 39.5197 5.06097 38.5864C5.06097 37.6531 5.75476 36.8965 6.61059 36.8965C7.46643 36.8965 8.16022 37.6531 8.16022 38.5864Z" fill="#01A7B9"/>
<ellipse cx="28.3052" cy="4.22479" rx="3.87405" ry="4.22479" fill="#01A7B9"/>
</svg>
