<svg width="45" height="40" viewBox="0 0 45 40" fill="none" xmlns="http://www.w3.org/2000/svg">
<path d="M12.9208 9.16055C11.4394 7.55262 10.5817 6.36937 10.0592 5.4937C9.10895 3.90144 9.10895 3.90144 9.52957 3.57856C9.76087 3.4009 10.1862 3.15604 10.4748 3.03424C10.9299 2.84216 11.0249 2.85514 11.192 3.13153C11.2978 3.30685 11.7871 4.07262 12.2791 4.83316C13.1442 6.17045 13.1756 6.19766 13.2301 5.65496C13.2609 5.34631 13.151 4.5355 12.9859 3.85316C12.8205 3.17081 12.6751 2.46397 12.6624 2.28234C12.6459 2.04397 12.8874 1.85676 13.5298 1.60937C14.0193 1.4209 14.4803 1.32721 14.554 1.40126C14.6277 1.47532 14.8652 2.26469 15.082 3.15532C15.3615 4.30343 15.4869 5.42415 15.5127 7.00595C15.5493 9.2373 15.5493 9.2373 16.1429 9.48793C16.4694 9.62595 16.7882 9.67586 16.8513 9.5991C16.9146 9.52235 17.112 9.12019 17.2902 8.70559C17.4683 8.29082 17.8367 7.68361 18.1091 7.35568C18.6041 6.75982 18.6041 6.75982 17.659 5.84739C17.1249 5.33153 16.4592 4.43027 16.1277 3.77388C15.8051 3.13514 15.4374 2.26991 15.3106 1.85117C15.0799 1.08955 15.0799 1.08955 15.832 0.894415C16.2456 0.787027 16.7181 0.660361 16.8816 0.612973C17.0996 0.54973 17.238 0.70901 17.399 1.20919C17.5199 1.58469 17.7612 2.17712 17.9355 2.52577C18.1098 2.87442 18.4257 3.3609 18.6376 3.60685C19.0231 4.05406 19.0231 4.05406 18.9087 2.14379C18.7943 0.233334 18.7943 0.233333 19.8213 0.112072C20.3861 0.0454054 20.8785 0.0212613 20.9156 0.0585586C20.9525 0.0956757 21.0341 0.908649 21.0965 1.86487C21.1591 2.82108 21.2722 3.60361 21.348 3.60361C21.4239 3.60361 21.6105 3.21838 21.7627 2.74775C21.915 2.27694 22.0932 1.46613 22.1588 0.945947C22.278 0 22.278 0 23.3307 0C24.3835 0 24.3835 0 24.3808 0.675676C24.3794 1.04721 24.2587 1.86072 24.1126 2.48306C23.9667 3.10559 23.6762 3.95694 23.4673 4.37496C23.2584 4.79316 22.8868 5.40397 22.6415 5.73262C22.3964 6.06109 22.2395 6.37388 22.2931 6.42775C22.3465 6.48163 22.7783 6.1991 23.2523 5.80018C23.7266 5.40126 24.4163 4.9319 24.7851 4.75712C25.4559 4.43928 25.4559 4.43928 25.4127 2.35478C25.3696 0.270271 25.3696 0.27027 26.0868 0.311171C26.4813 0.333694 26.9855 0.396036 27.2074 0.44973C27.5811 0.540181 27.6108 0.646487 27.6108 1.89532C27.6108 2.63676 27.6856 3.24325 27.7771 3.24325C27.8685 3.24325 28.1218 3.02018 28.34 2.74775C28.5582 2.47514 28.8987 1.98198 29.0968 1.65153C29.4239 1.10595 29.5134 1.06162 30.0738 1.16721C30.4131 1.23135 30.8884 1.37405 31.1299 1.48469C31.4216 1.6182 31.5329 1.78108 31.4618 1.96901C31.4026 2.12469 31.1069 2.63982 30.805 3.1137C30.5029 3.58757 29.8436 4.33748 29.3398 4.78018C28.4241 5.58541 28.4241 5.58541 28.7205 6.07622C28.8835 6.34613 29.0838 6.58379 29.1655 6.60415C29.2473 6.62469 29.742 5.97802 30.265 5.16739C30.7881 4.35694 31.5277 3.32883 31.9087 2.88307C32.6015 2.07243 32.6015 2.07243 33.6081 2.56865L34.6149 3.06487L33.6802 4.19009C33.1661 4.80901 32.3566 5.92343 31.8815 6.66667C31.4064 7.40991 31.0992 8.04541 31.1991 8.07874C31.299 8.11226 31.7341 7.93154 32.1662 7.67694C32.5983 7.42253 33.1674 6.95694 33.4308 6.64235C33.6942 6.32757 34.207 5.47694 34.5704 4.75172C35.2309 3.43316 35.2309 3.43316 36.0946 3.99802C36.851 4.4928 36.9444 4.6209 36.8457 5.02919C36.7836 5.28559 36.4039 6.05586 36.0015 6.74073C35.3026 7.93064 35.2851 7.99676 35.6056 8.23244C35.7901 8.36793 36.0526 8.45622 36.1891 8.42865C36.3255 8.40091 36.5618 8.05406 36.7142 7.65766C36.8666 7.26127 37.1872 6.59334 37.4268 6.17334C37.7739 5.56451 37.9227 5.44271 38.1603 5.57226C38.3241 5.66163 38.6958 5.98559 38.9863 6.29226C39.5143 6.84991 39.5143 6.84991 39.1125 7.68091C38.8914 8.13802 38.7562 8.55784 38.8118 8.6137C38.8674 8.66955 39.3167 8.58559 39.81 8.42703C40.707 8.13874 40.707 8.13874 41.2859 8.85838C41.6043 9.25424 41.8891 9.68433 41.9188 9.81406C41.9513 9.95496 41.6393 10.1642 41.1439 10.3337C40.688 10.4899 39.8367 10.7121 39.252 10.8278C38.325 11.011 38.1893 11.0905 38.1891 11.4501C38.1891 11.6769 38.2357 11.9842 38.2926 12.133C38.3826 12.3688 38.523 12.3596 39.3875 12.0607C39.9331 11.8721 40.8327 11.471 41.3867 11.1694C42.394 10.6213 42.394 10.6213 42.7059 11.0314C42.8775 11.2569 43.1156 11.6753 43.235 11.9611C43.4247 12.415 43.4086 12.5132 43.1067 12.7371C42.9168 12.8782 42.2772 13.2245 41.6856 13.507C41.0939 13.7894 40.2668 14.122 39.8478 14.246C39.4286 14.3699 39.0858 14.5703 39.0858 14.6912C39.0858 14.8119 39.205 15.0103 39.3506 15.1317C39.5672 15.3124 39.8282 15.2178 40.7819 14.6124C41.4234 14.2052 42.3129 13.6942 42.7583 13.4768C43.2601 13.2317 43.6273 13.1463 43.7236 13.2523C43.8091 13.3465 44.0062 13.8097 44.1618 14.2818C44.4446 15.1402 44.4446 15.1402 43.334 15.6962C42.7231 16.002 42.11 16.3611 41.9712 16.4941C41.7569 16.6996 41.7942 16.7548 42.2202 16.8622C42.4958 16.9315 43.1739 16.9971 43.7274 17.0078C44.434 17.0213 44.7698 17.1074 44.8553 17.2973C44.9224 17.446 44.983 17.9647 44.9898 18.4501C45.0025 19.3326 45.0025 19.3326 43.4335 19.2305C42.5708 19.1742 41.5016 19.0009 41.0578 18.8451C40.6141 18.6894 40.1142 18.5164 39.9466 18.4609C39.7321 18.3897 39.555 18.5294 39.347 18.9337C39.1035 19.4069 39.094 19.5348 39.2929 19.6642C39.4255 19.7505 39.8567 19.9222 40.2512 20.0456C40.6456 20.1692 41.876 20.2703 42.9853 20.2703C45.0022 20.2703 45.0022 20.2703 44.9998 20.991C44.9986 21.3874 44.9464 21.9033 44.8842 22.1377C44.7709 22.5624 44.7652 22.5633 42.5109 22.4822C40.8206 22.4213 39.9896 22.3056 39.2136 22.0225C38.6429 21.8144 37.5657 21.2263 36.8198 20.7155C36.074 20.2047 35.0735 19.5897 34.5966 19.349C34.1196 19.1083 33.2789 18.8206 32.7279 18.7092C31.9794 18.5582 31.4062 18.5602 30.4599 18.7173C29.7633 18.8328 28.8799 19.0881 28.4967 19.2847C28.1136 19.4811 27.5063 19.9011 27.1474 20.2179C26.7882 20.5346 26.3828 21.0407 26.2462 21.3429C26.052 21.7721 25.973 23.6815 25.8844 30.0901C25.8009 36.1406 25.9968 39.0955 25.9975 39.0986C26.0056 39.1316 25.9936 40.0043 25.9977 39.9991C26.0205 39.9696 19.0005 40.006 19.0052 39.9991C19.0378 39.9521 19.1701 38.8101 19.1836 30.3699C19.1834 22.6595 19.1549 21.8348 18.8698 21.2613C18.6672 20.8539 18.2708 20.4829 17.7496 20.2135C17.1285 19.8923 16.7362 19.8137 16.0463 19.8723C15.5532 19.9141 14.3026 20.2948 13.2672 20.7184C11.6022 21.3995 11.1771 21.4988 9.59161 21.578C7.90874 21.6618 7.74809 21.7043 6.97604 22.269C6.52368 22.5998 5.79753 23.0229 5.36238 23.2088C4.92723 23.395 4.00654 23.678 3.31626 23.8379C2.62597 23.9977 1.71712 24.1546 1.29649 24.1863C0.55761 24.2424 0.526054 24.2229 0.356261 23.6087C0.25962 23.2589 0.180013 22.7993 0.179475 22.5869C0.178937 22.3744 0.306058 22.1515 0.462225 22.0914C0.618033 22.0312 0.989713 21.982 1.28788 21.982C1.58605 21.982 2.32583 21.8541 2.93167 21.6977C3.53769 21.5415 4.11 21.3388 4.20377 21.2472C4.30794 21.1454 3.52603 21.0811 2.18669 21.0811C0 21.0811 0 21.0811 0 20C0 18.9189 0 18.9189 0.850938 18.9132C1.70259 18.9076 1.70259 18.9076 1.22029 18.5078C0.955109 18.2879 0.576615 17.9865 0.379031 17.8378C0.049665 17.5901 0.0355006 17.4804 0.208521 16.5198C0.362895 15.6634 0.451108 15.4926 0.691365 15.5845C0.85309 15.6461 1.33145 15.9 1.75441 16.1485C2.17755 16.3969 2.78715 16.8328 3.10935 17.1171C3.43172 17.4013 3.84536 17.9139 4.0286 18.256C4.34667 18.8496 4.41982 18.884 5.60999 19.0018C6.29633 19.0697 6.92261 19.0588 7.00186 18.9771C7.08093 18.8955 7.19873 18.613 7.26345 18.3494C7.37623 17.8905 7.33965 17.8611 6.41287 17.6678C5.88019 17.5566 4.94337 17.2276 4.33089 16.9366C3.71842 16.6454 2.87644 16.1663 2.45994 15.8719C2.04326 15.5775 1.47578 15.149 1.19859 14.9198C0.694771 14.5031 0.694771 14.5031 1.09227 13.4593C1.37914 12.706 1.56274 12.4436 1.7519 12.5166C1.89623 12.5723 2.41189 12.9771 2.89778 13.4162C3.38403 13.8553 4.26419 14.4571 4.85408 14.7533C5.44396 15.0496 6.36787 15.391 6.90737 15.5124C7.68462 15.6872 8.09539 15.6865 8.8859 15.5087C9.43455 15.3852 9.91918 15.1899 9.96257 15.0746C10.006 14.9593 9.88637 14.4595 9.69686 13.964C9.40873 13.2108 9.28358 13.0697 8.93395 13.104C8.70392 13.1265 8.11242 13.1959 7.61936 13.2582C7.12629 13.3204 6.23878 13.2809 5.6471 13.1703C5.05543 13.0598 3.97768 12.6861 3.25225 12.3404C2.18615 11.8319 1.95594 11.6508 2.05114 11.3962C2.11587 11.2229 2.36455 10.7816 2.60373 10.4157C3.03871 9.75028 3.03871 9.75028 3.81129 10.1843C4.2364 10.4229 5.02494 10.7332 5.56373 10.8735C6.10251 11.0139 6.57621 11.0987 6.61602 11.062C6.656 11.0254 6.30189 10.6497 5.82909 10.2274C5.35646 9.80505 4.71871 9.24181 4.41193 8.97586C3.85414 8.49226 3.85414 8.49226 4.61203 7.72145C5.36991 6.95046 5.36991 6.95045 5.81385 7.30415C6.05787 7.49856 6.75658 8.10091 7.36637 8.64271C8.28185 9.45604 8.45093 9.55028 8.33726 9.18325C8.26141 8.93874 7.8485 8.0337 7.41944 7.17208C6.6395 5.60559 6.6395 5.60559 7.20931 5.19009C7.52272 4.96163 7.92004 4.67208 8.09216 4.54667C8.37061 4.34379 8.47424 4.44361 9.0279 5.44757C9.37036 6.06847 9.91434 7.22523 10.2367 8.01802C10.5591 8.81082 10.8479 9.4928 10.8786 9.53334C10.9091 9.57406 11.381 9.50685 11.9275 9.38397L12.9208 9.16055ZM9.68323 19.4595C9.89068 19.4595 10.4151 19.3696 10.849 19.2598C11.2827 19.1501 11.7729 18.9609 11.9382 18.8395C12.2142 18.6366 12.2154 18.5831 11.9544 18.1833C11.7978 17.9436 11.559 17.5957 11.4235 17.4096C11.1988 17.1016 11.1171 17.0933 10.5026 17.3166C10.1316 17.4512 9.76553 17.6845 9.68861 17.8348C9.61187 17.9851 9.49443 18.4121 9.42773 18.7838C9.3189 19.389 9.34562 19.4595 9.68323 19.4595ZM20.4083 19.264C20.4408 19.1759 20.2551 18.6364 19.9954 18.0652C19.736 17.4942 19.2254 16.7133 18.8607 16.3299C18.4962 15.9465 17.8751 15.482 17.4806 15.2978C17.0709 15.1065 16.3546 14.9611 15.8105 14.9589C15.2256 14.9564 14.5122 15.1043 13.9636 15.3415C13.3538 15.6051 13.1003 15.8088 13.1664 15.982C13.2197 16.1216 13.5058 16.5901 13.8022 17.0231C14.3412 17.8101 14.3412 17.8101 15.6631 17.7097C16.6516 17.6346 17.2395 17.6896 17.9925 17.9276C18.5465 18.1027 19.3035 18.5112 19.6747 18.8351C20.0456 19.1593 20.3759 19.3523 20.4083 19.264ZM25.2445 18.747C25.412 18.5038 26.1071 17.5714 26.7895 16.675C27.4721 15.7786 28.2551 14.6901 28.5299 14.2562C28.8048 13.8224 29.1268 13.0314 29.2455 12.4984C29.3642 11.9654 29.407 11.4748 29.3407 11.4079C29.2742 11.3413 28.9588 11.4144 28.6395 11.5706C28.3203 11.7267 27.7032 12.1642 27.2682 12.5425C26.8332 12.9211 26.1273 13.7087 25.6994 14.2928C24.9214 15.355 24.9214 15.355 24.9307 17.2721C24.9399 19.1301 24.9496 19.1755 25.2445 18.747ZM22.7413 17.7478C22.7751 17.1532 22.7632 16.0586 22.715 15.3153C22.6668 14.5721 22.5217 13.7326 22.3924 13.4497C22.2632 13.167 21.9671 12.8629 21.7348 12.7741C21.5022 12.6852 20.8268 12.6126 20.2337 12.6126C19.1554 12.6126 19.1554 12.6126 19.2806 13.1858C19.3537 13.5202 19.7546 14.102 20.243 14.5822C20.7036 15.035 21.2903 15.7849 21.5469 16.2487C21.8035 16.7126 22.1635 17.4829 22.3467 17.9604C22.6802 18.8288 22.6802 18.8288 22.7413 17.7478ZM37.1135 18.175C37.1628 18.1852 37.3749 17.9269 37.5851 17.6007C37.9562 17.0243 37.958 16.995 37.643 16.5606C37.4648 16.3146 37.1315 15.7566 36.9023 15.3204C36.6061 14.7564 36.3305 14.4849 35.9481 14.3798C35.6523 14.2986 34.8666 14.1456 34.2023 14.0395C33.207 13.8807 32.8196 13.898 32.0002 14.1373C31.1141 14.3962 30.9431 14.529 30.429 15.3573C30.1117 15.8685 29.8275 16.3447 29.7975 16.4153C29.7678 16.4863 30.2381 16.4991 30.8426 16.444C31.4474 16.3888 32.4918 16.4425 33.1635 16.5631C33.8727 16.6905 34.9379 17.0705 35.7043 17.4694C36.43 17.8472 37.0642 18.1647 37.1135 18.175ZM12.8638 13.4117C13.3455 13.18 14.2919 12.9016 14.9667 12.7933C15.6416 12.6851 16.3018 12.638 16.4337 12.689C16.5657 12.7398 16.6738 12.7171 16.6738 12.6384C16.6738 12.5596 16.4922 12.3243 16.2704 12.1155C16.0484 11.9067 15.6398 11.6492 15.3622 11.5434C15.0845 11.4378 14.4547 11.3514 13.9623 11.3514C13.4701 11.3514 12.7002 11.4442 12.2515 11.5578C11.4697 11.7555 11.4396 11.7876 11.5289 12.3236C11.58 12.6312 11.7043 13.0966 11.8048 13.3578C11.9877 13.833 11.9877 13.833 12.8638 13.4117ZM24.3756 12.2523C24.4366 12.2523 24.887 11.8391 25.3763 11.3342C25.8658 10.8292 26.6943 10.1701 27.2176 9.86956C27.784 9.54451 28.1338 9.23028 28.0819 9.0937C28.0336 8.96757 27.6924 8.43082 27.3236 7.90073C26.9548 7.37064 26.5559 6.82829 26.437 6.6955C26.2568 6.49424 26.1338 6.49946 25.6963 6.72667C25.4078 6.87658 24.8298 7.37208 24.4118 7.82775C23.652 8.65622 23.652 8.65622 23.7621 10.0488C23.8227 10.8148 23.9606 11.6238 24.0685 11.8469C24.1764 12.0697 24.3147 12.2523 24.3756 12.2523ZM35.724 12.0523C35.9682 12.0678 36.0377 11.9287 36.0377 11.4245C36.0377 10.9056 35.958 10.7562 35.6363 10.6715C35.4154 10.6135 34.8069 10.3398 34.2841 10.0634C33.3332 9.56091 33.3332 9.56091 32.3962 10.0225C31.4808 10.4739 31.4609 10.5004 31.5254 11.1796C31.5914 11.875 31.5914 11.875 32.6939 11.7831C33.3003 11.7326 34.1596 11.7681 34.6034 11.862C35.0471 11.9557 35.5513 12.0414 35.724 12.0523ZM20.3318 10.4505C21.7009 10.4505 21.7009 10.4505 21.5815 9.95496C21.5159 9.68235 21.3877 9.25694 21.2968 9.00937C21.2057 8.76181 21.0022 8.41586 20.8444 8.24073C20.5713 7.93748 20.5367 7.94181 20.1227 8.33046C19.8834 8.55496 19.5617 8.98199 19.4077 9.27929C19.2535 9.57658 19.0903 9.96163 19.0452 10.1351C18.972 10.4151 19.1162 10.4505 20.3318 10.4505Z" fill="#01A7B9"/>
</svg>
