<svg width="184" height="113" viewBox="0 0 184 113" fill="none" xmlns="http://www.w3.org/2000/svg">
<rect width="184" height="113" rx="10" fill="#FF8F00"/>
<path d="M74.4219 17.3594L65.3281 38H61.3438L70.4219 18.2969H58.6562V15.25H74.4219V17.3594ZM78.4844 26.7188L79.7188 15.25H91.9375V18.5312H82.875L82.25 23.9688C83.3021 23.3646 84.4896 23.0625 85.8125 23.0625C87.9792 23.0625 89.6615 23.7552 90.8594 25.1406C92.0677 26.526 92.6719 28.3906 92.6719 30.7344C92.6719 33.0469 92.0052 34.8906 90.6719 36.2656C89.3385 37.6302 87.5104 38.3125 85.1875 38.3125C83.1042 38.3125 81.375 37.724 80 36.5469C78.6354 35.3594 77.8958 33.7969 77.7812 31.8594H81.4531C81.599 32.9635 81.9948 33.8125 82.6406 34.4062C83.2865 34.9896 84.1302 35.2812 85.1719 35.2812C86.3385 35.2812 87.2448 34.8646 87.8906 34.0312C88.5469 33.1979 88.875 32.0625 88.875 30.625C88.875 29.2396 88.5156 28.1458 87.7969 27.3438C87.0781 26.5312 86.0885 26.125 84.8281 26.125C84.1406 26.125 83.5573 26.2188 83.0781 26.4062C82.599 26.5833 82.0781 26.9375 81.5156 27.4688L78.4844 26.7188ZM103.469 19.625C103.469 18.25 103.911 17.125 104.797 16.25C105.682 15.3646 106.844 14.9219 108.281 14.9219C109.74 14.9219 110.906 15.3646 111.781 16.25C112.667 17.125 113.109 18.276 113.109 19.7031V20.8281C113.109 22.1927 112.667 23.3125 111.781 24.1875C110.906 25.0625 109.75 25.5 108.312 25.5C106.906 25.5 105.745 25.0729 104.828 24.2188C103.922 23.3542 103.469 22.1927 103.469 20.7344V19.625ZM106.125 20.8281C106.125 21.5469 106.323 22.1302 106.719 22.5781C107.125 23.0156 107.656 23.2344 108.312 23.2344C108.958 23.2344 109.479 23.0156 109.875 22.5781C110.271 22.1302 110.469 21.526 110.469 20.7656V19.625C110.469 18.9062 110.266 18.3229 109.859 17.875C109.464 17.4271 108.938 17.2031 108.281 17.2031C107.625 17.2031 107.099 17.4323 106.703 17.8906C106.318 18.3385 106.125 18.9323 106.125 19.6719V20.8281ZM114.406 32.4219C114.406 31.026 114.859 29.8958 115.766 29.0312C116.672 28.1667 117.828 27.7344 119.234 27.7344C120.651 27.7344 121.807 28.1667 122.703 29.0312C123.609 29.8958 124.062 31.0625 124.062 32.5312V33.6406C124.062 34.9948 123.625 36.1146 122.75 37C121.885 37.875 120.724 38.3125 119.266 38.3125C117.807 38.3125 116.63 37.8802 115.734 37.0156C114.849 36.1406 114.406 34.9896 114.406 33.5625V32.4219ZM117.062 33.6406C117.062 34.349 117.266 34.9323 117.672 35.3906C118.089 35.8385 118.62 36.0625 119.266 36.0625C119.932 36.0625 120.453 35.849 120.828 35.4219C121.214 34.9844 121.406 34.375 121.406 33.5938V32.4219C121.406 31.6927 121.203 31.1094 120.797 30.6719C120.391 30.2344 119.87 30.0156 119.234 30.0156C118.589 30.0156 118.062 30.2344 117.656 30.6719C117.26 31.1094 117.062 31.7135 117.062 32.4844V33.6406ZM109.094 36.2969L107.141 35.1719L118.25 17.3906L120.203 18.5156L109.094 36.2969ZM33.7852 60.1289C33.7852 59.7057 33.6094 59.3835 33.2578 59.1621C32.9128 58.9408 32.3366 58.7454 31.5293 58.5762C30.722 58.4069 30.0482 58.1921 29.5078 57.9316C28.3229 57.3587 27.7305 56.5286 27.7305 55.4414C27.7305 54.5299 28.1146 53.7682 28.8828 53.1562C29.651 52.5443 30.6276 52.2383 31.8125 52.2383C33.0755 52.2383 34.0944 52.5508 34.8691 53.1758C35.6504 53.8008 36.041 54.6113 36.041 55.6074H33.668C33.668 55.1517 33.4987 54.7741 33.1602 54.4746C32.8216 54.1686 32.3724 54.0156 31.8125 54.0156C31.2917 54.0156 30.8652 54.1361 30.5332 54.377C30.2077 54.6178 30.0449 54.9401 30.0449 55.3438C30.0449 55.7083 30.1979 55.9915 30.5039 56.1934C30.8099 56.3952 31.4284 56.6003 32.3594 56.8086C33.2904 57.0104 34.0195 57.2546 34.5469 57.541C35.0807 57.821 35.4746 58.1595 35.7285 58.5566C35.9889 58.9538 36.1191 59.4355 36.1191 60.002C36.1191 60.9525 35.7253 61.724 34.9375 62.3164C34.1497 62.9023 33.1178 63.1953 31.8418 63.1953C30.9759 63.1953 30.2044 63.0391 29.5273 62.7266C28.8503 62.4141 28.3229 61.9844 27.9453 61.4375C27.5677 60.8906 27.3789 60.3014 27.3789 59.6699H29.6836C29.7161 60.2298 29.9277 60.6628 30.3184 60.9688C30.709 61.2682 31.2266 61.418 31.8711 61.418C32.4961 61.418 32.9714 61.3008 33.2969 61.0664C33.6224 60.8255 33.7852 60.513 33.7852 60.1289ZM42.8477 63.1953C41.3438 63.1953 40.123 62.7233 39.1855 61.7793C38.2546 60.8288 37.7891 59.5658 37.7891 57.9902V57.6973C37.7891 56.6426 37.9909 55.7018 38.3945 54.875C38.8047 54.0417 39.3776 53.3939 40.1133 52.9316C40.849 52.4694 41.6693 52.2383 42.5742 52.2383C44.013 52.2383 45.123 52.6973 45.9043 53.6152C46.6921 54.5332 47.0859 55.832 47.0859 57.5117V58.4688H40.1816C40.2533 59.3411 40.543 60.0312 41.0508 60.5391C41.5651 61.0469 42.2096 61.3008 42.9844 61.3008C44.0716 61.3008 44.957 60.8613 45.6406 59.9824L46.9199 61.2031C46.4967 61.8346 45.9303 62.3262 45.2207 62.6777C44.5176 63.0228 43.7266 63.1953 42.8477 63.1953ZM42.5645 54.1426C41.9134 54.1426 41.3861 54.3704 40.9824 54.8262C40.5853 55.2819 40.3314 55.9167 40.2207 56.7305H44.7422V56.5547C44.6901 55.7604 44.4785 55.1615 44.1074 54.7578C43.7363 54.3477 43.222 54.1426 42.5645 54.1426ZM55.25 63C55.1458 62.7982 55.0547 62.4694 54.9766 62.0137C54.2214 62.8014 53.2969 63.1953 52.2031 63.1953C51.1419 63.1953 50.276 62.8926 49.6055 62.2871C48.9349 61.6816 48.5996 60.9329 48.5996 60.041C48.5996 58.9147 49.0163 58.0521 49.8496 57.4531C50.6895 56.8477 51.8874 56.5449 53.4434 56.5449H54.8984V55.8516C54.8984 55.3047 54.7454 54.8685 54.4395 54.543C54.1335 54.2109 53.668 54.0449 53.043 54.0449C52.5026 54.0449 52.0599 54.1816 51.7148 54.4551C51.3698 54.722 51.1973 55.0638 51.1973 55.4805H48.8242C48.8242 54.901 49.0163 54.3607 49.4004 53.8594C49.7845 53.3516 50.3053 52.9544 50.9629 52.668C51.627 52.3815 52.3659 52.2383 53.1797 52.2383C54.4167 52.2383 55.403 52.5508 56.1387 53.1758C56.8743 53.7943 57.252 54.6667 57.2715 55.793V60.5586C57.2715 61.5091 57.4049 62.2676 57.6719 62.834V63H55.25ZM52.6426 61.291C53.1113 61.291 53.5508 61.1771 53.9609 60.9492C54.3776 60.7214 54.6901 60.4154 54.8984 60.0312V58.0391H53.6191C52.7402 58.0391 52.0794 58.1921 51.6367 58.498C51.194 58.804 50.9727 59.237 50.9727 59.7969C50.9727 60.2526 51.1224 60.6172 51.4219 60.8906C51.7279 61.1576 52.1348 61.291 52.6426 61.291ZM65.2891 54.6016C64.9766 54.5495 64.6543 54.5234 64.3223 54.5234C63.235 54.5234 62.5026 54.9401 62.125 55.7734V63H59.752V52.4336H62.0176L62.0762 53.6152C62.6491 52.6973 63.4434 52.2383 64.459 52.2383C64.7975 52.2383 65.0775 52.2839 65.2988 52.375L65.2891 54.6016ZM70.9336 61.3008C71.526 61.3008 72.0176 61.1283 72.4082 60.7832C72.7988 60.4382 73.0072 60.0117 73.0332 59.5039H75.2695C75.2435 60.1615 75.0384 60.7767 74.6543 61.3496C74.2702 61.916 73.7493 62.3652 73.0918 62.6973C72.4342 63.0293 71.7246 63.1953 70.9629 63.1953C69.485 63.1953 68.3132 62.7168 67.4473 61.7598C66.5814 60.8027 66.1484 59.4811 66.1484 57.7949V57.5508C66.1484 55.9427 66.5781 54.6569 67.4375 53.6934C68.2969 52.7233 69.4688 52.2383 70.9531 52.2383C72.2096 52.2383 73.2318 52.6061 74.0195 53.3418C74.8138 54.071 75.2305 55.0312 75.2695 56.2227H73.0332C73.0072 55.6172 72.7988 55.1191 72.4082 54.7285C72.0241 54.3379 71.5326 54.1426 70.9336 54.1426C70.1654 54.1426 69.5729 54.4225 69.1562 54.9824C68.7396 55.5358 68.528 56.3789 68.5215 57.5117V57.8926C68.5215 59.0384 68.7266 59.8945 69.1367 60.4609C69.5534 61.0208 70.1523 61.3008 70.9336 61.3008ZM79.4004 53.5859C80.1751 52.6875 81.1549 52.2383 82.3398 52.2383C84.5924 52.2383 85.735 53.5241 85.7676 56.0957V63H83.3945V56.1836C83.3945 55.4544 83.235 54.9401 82.916 54.6406C82.6035 54.3346 82.1413 54.1816 81.5293 54.1816C80.5788 54.1816 79.8691 54.6048 79.4004 55.4512V63H77.0273V48H79.4004V53.5859ZM107.408 57.8242C107.408 59.4648 107.04 60.7702 106.305 61.7402C105.576 62.7103 104.57 63.1953 103.287 63.1953C102.05 63.1953 101.087 62.7493 100.396 61.8574L100.279 63H98.1309V48H100.504V53.4492C101.188 52.6419 102.109 52.2383 103.268 52.2383C104.557 52.2383 105.569 52.7168 106.305 53.6738C107.04 54.6309 107.408 55.9688 107.408 57.6875V57.8242ZM105.035 57.6191C105.035 56.4733 104.833 55.6139 104.43 55.041C104.026 54.4681 103.44 54.1816 102.672 54.1816C101.643 54.1816 100.921 54.6309 100.504 55.5293V59.8848C100.927 60.8027 101.656 61.2617 102.691 61.2617C103.434 61.2617 104.007 60.985 104.41 60.4316C104.814 59.8783 105.022 59.0417 105.035 57.9219V57.6191ZM115.719 63C115.615 62.7982 115.523 62.4694 115.445 62.0137C114.69 62.8014 113.766 63.1953 112.672 63.1953C111.611 63.1953 110.745 62.8926 110.074 62.2871C109.404 61.6816 109.068 60.9329 109.068 60.041C109.068 58.9147 109.485 58.0521 110.318 57.4531C111.158 56.8477 112.356 56.5449 113.912 56.5449H115.367V55.8516C115.367 55.3047 115.214 54.8685 114.908 54.543C114.602 54.2109 114.137 54.0449 113.512 54.0449C112.971 54.0449 112.529 54.1816 112.184 54.4551C111.839 54.722 111.666 55.0638 111.666 55.4805H109.293C109.293 54.901 109.485 54.3607 109.869 53.8594C110.253 53.3516 110.774 52.9544 111.432 52.668C112.096 52.3815 112.835 52.2383 113.648 52.2383C114.885 52.2383 115.872 52.5508 116.607 53.1758C117.343 53.7943 117.721 54.6667 117.74 55.793V60.5586C117.74 61.5091 117.874 62.2676 118.141 62.834V63H115.719ZM113.111 61.291C113.58 61.291 114.02 61.1771 114.43 60.9492C114.846 60.7214 115.159 60.4154 115.367 60.0312V58.0391H114.088C113.209 58.0391 112.548 58.1921 112.105 58.498C111.663 58.804 111.441 59.237 111.441 59.7969C111.441 60.2526 111.591 60.6172 111.891 60.8906C112.197 61.1576 112.604 61.291 113.111 61.291ZM126.148 60.1289C126.148 59.7057 125.973 59.3835 125.621 59.1621C125.276 58.9408 124.7 58.7454 123.893 58.5762C123.085 58.4069 122.411 58.1921 121.871 57.9316C120.686 57.3587 120.094 56.5286 120.094 55.4414C120.094 54.5299 120.478 53.7682 121.246 53.1562C122.014 52.5443 122.991 52.2383 124.176 52.2383C125.439 52.2383 126.458 52.5508 127.232 53.1758C128.014 53.8008 128.404 54.6113 128.404 55.6074H126.031C126.031 55.1517 125.862 54.7741 125.523 54.4746C125.185 54.1686 124.736 54.0156 124.176 54.0156C123.655 54.0156 123.229 54.1361 122.896 54.377C122.571 54.6178 122.408 54.9401 122.408 55.3438C122.408 55.7083 122.561 55.9915 122.867 56.1934C123.173 56.3952 123.792 56.6003 124.723 56.8086C125.654 57.0104 126.383 57.2546 126.91 57.541C127.444 57.821 127.838 58.1595 128.092 58.5566C128.352 58.9538 128.482 59.4355 128.482 60.002C128.482 60.9525 128.089 61.724 127.301 62.3164C126.513 62.9023 125.481 63.1953 124.205 63.1953C123.339 63.1953 122.568 63.0391 121.891 62.7266C121.214 62.4141 120.686 61.9844 120.309 61.4375C119.931 60.8906 119.742 60.3014 119.742 59.6699H122.047C122.079 60.2298 122.291 60.6628 122.682 60.9688C123.072 61.2682 123.59 61.418 124.234 61.418C124.859 61.418 125.335 61.3008 125.66 61.0664C125.986 60.8255 126.148 60.513 126.148 60.1289ZM135.211 63.1953C133.707 63.1953 132.486 62.7233 131.549 61.7793C130.618 60.8288 130.152 59.5658 130.152 57.9902V57.6973C130.152 56.6426 130.354 55.7018 130.758 54.875C131.168 54.0417 131.741 53.3939 132.477 52.9316C133.212 52.4694 134.033 52.2383 134.938 52.2383C136.376 52.2383 137.486 52.6973 138.268 53.6152C139.055 54.5332 139.449 55.832 139.449 57.5117V58.4688H132.545C132.617 59.3411 132.906 60.0312 133.414 60.5391C133.928 61.0469 134.573 61.3008 135.348 61.3008C136.435 61.3008 137.32 60.8613 138.004 59.9824L139.283 61.2031C138.86 61.8346 138.294 62.3262 137.584 62.6777C136.881 63.0228 136.09 63.1953 135.211 63.1953ZM134.928 54.1426C134.277 54.1426 133.749 54.3704 133.346 54.8262C132.949 55.2819 132.695 55.9167 132.584 56.7305H137.105V56.5547C137.053 55.7604 136.842 55.1615 136.471 54.7578C136.1 54.3477 135.585 54.1426 134.928 54.1426ZM140.855 57.6387C140.855 56.0111 141.233 54.7057 141.988 53.7227C142.743 52.7331 143.756 52.2383 145.025 52.2383C146.145 52.2383 147.05 52.6289 147.74 53.4102V48H150.113V63H147.965L147.848 61.9062C147.138 62.7656 146.191 63.1953 145.006 63.1953C143.769 63.1953 142.766 62.6973 141.998 61.7012C141.236 60.7051 140.855 59.3509 140.855 57.6387ZM143.229 57.8438C143.229 58.918 143.434 59.7578 143.844 60.3633C144.26 60.9622 144.85 61.2617 145.611 61.2617C146.581 61.2617 147.291 60.8288 147.74 59.9629V55.4512C147.304 54.6048 146.601 54.1816 145.631 54.1816C144.863 54.1816 144.27 54.4876 143.854 55.0996C143.437 55.7051 143.229 56.6198 143.229 57.8438ZM28.2969 82.6191C28.2969 81.584 28.502 80.653 28.9121 79.8262C29.3223 78.9928 29.8984 78.3548 30.6406 77.9121C31.3828 77.4629 32.2357 77.2383 33.1992 77.2383C34.625 77.2383 35.7806 77.6973 36.666 78.6152C37.5579 79.5332 38.0397 80.7507 38.1113 82.2676L38.1211 82.8242C38.1211 83.8659 37.9193 84.7969 37.5156 85.6172C37.1185 86.4375 36.5456 87.0723 35.7969 87.5215C35.0547 87.9707 34.1953 88.1953 33.2188 88.1953C31.7279 88.1953 30.5332 87.7005 29.6348 86.7109C28.7428 85.7148 28.2969 84.39 28.2969 82.7363V82.6191ZM30.6699 82.8242C30.6699 83.9115 30.8945 84.7643 31.3438 85.3828C31.793 85.9948 32.418 86.3008 33.2188 86.3008C34.0195 86.3008 34.6413 85.9883 35.084 85.3633C35.5332 84.7383 35.7578 83.8236 35.7578 82.6191C35.7578 81.5514 35.5267 80.7051 35.0645 80.0801C34.6087 79.4551 33.987 79.1426 33.1992 79.1426C32.4245 79.1426 31.8092 79.4518 31.3535 80.0703C30.8978 80.6823 30.6699 81.6003 30.6699 82.8242ZM42.3301 77.4336L42.3984 78.6543C43.1797 77.7103 44.2051 77.2383 45.4746 77.2383C47.6751 77.2383 48.7949 78.498 48.834 81.0176V88H46.4609V81.1543C46.4609 80.4837 46.3145 79.9889 46.0215 79.6699C45.735 79.3444 45.263 79.1816 44.6055 79.1816C43.6484 79.1816 42.9355 79.6146 42.4668 80.4805V88H40.0938V77.4336H42.3301ZM58.7656 88H56.3926V77.4336H58.7656V88ZM56.2461 74.6895C56.2461 74.3249 56.36 74.0221 56.5879 73.7812C56.8223 73.5404 57.1543 73.4199 57.584 73.4199C58.0137 73.4199 58.3457 73.5404 58.5801 73.7812C58.8145 74.0221 58.9316 74.3249 58.9316 74.6895C58.9316 75.0475 58.8145 75.347 58.5801 75.5879C58.3457 75.8223 58.0137 75.9395 57.584 75.9395C57.1543 75.9395 56.8223 75.8223 56.5879 75.5879C56.36 75.347 56.2461 75.0475 56.2461 74.6895ZM63.5605 77.4336L63.6289 78.6543C64.4102 77.7103 65.4355 77.2383 66.7051 77.2383C68.9056 77.2383 70.0254 78.498 70.0645 81.0176V88H67.6914V81.1543C67.6914 80.4837 67.5449 79.9889 67.252 79.6699C66.9655 79.3444 66.4935 79.1816 65.8359 79.1816C64.8789 79.1816 64.166 79.6146 63.6973 80.4805V88H61.3242V77.4336H63.5605ZM72.0762 82.6387C72.0762 80.998 72.4603 79.6895 73.2285 78.7129C74.0033 77.7298 75.0286 77.2383 76.3047 77.2383C77.5091 77.2383 78.4564 77.6582 79.1465 78.498L79.2539 77.4336H81.3926V87.6777C81.3926 89.0645 80.9596 90.1582 80.0938 90.959C79.2344 91.7598 78.0723 92.1602 76.6074 92.1602C75.8327 92.1602 75.0742 91.9974 74.332 91.6719C73.5964 91.3529 73.0365 90.9329 72.6523 90.4121L73.7754 88.9863C74.5046 89.8522 75.403 90.2852 76.4707 90.2852C77.2585 90.2852 77.8802 90.0703 78.3359 89.6406C78.7917 89.2174 79.0195 88.5924 79.0195 87.7656V87.0527C78.3359 87.8145 77.4245 88.1953 76.2852 88.1953C75.0482 88.1953 74.0358 87.7038 73.248 86.7207C72.4668 85.7376 72.0762 84.377 72.0762 82.6387ZM74.4395 82.8438C74.4395 83.9049 74.6543 84.7415 75.084 85.3535C75.5202 85.959 76.1224 86.2617 76.8906 86.2617C77.8477 86.2617 78.5573 85.8516 79.0195 85.0312V80.3828C78.5703 79.582 77.8672 79.1816 76.9102 79.1816C76.1289 79.1816 75.5202 79.4909 75.084 80.1094C74.6543 80.7279 74.4395 81.6393 74.4395 82.8438ZM89.3711 79.6016C89.0586 79.5495 88.7363 79.5234 88.4043 79.5234C87.3171 79.5234 86.5846 79.9401 86.207 80.7734V88H83.834V77.4336H86.0996L86.1582 78.6152C86.7311 77.6973 87.5254 77.2383 88.541 77.2383C88.8796 77.2383 89.1595 77.2839 89.3809 77.375L89.3711 79.6016ZM95.3281 88.1953C93.8242 88.1953 92.6035 87.7233 91.666 86.7793C90.735 85.8288 90.2695 84.5658 90.2695 82.9902V82.6973C90.2695 81.6426 90.4714 80.7018 90.875 79.875C91.2852 79.0417 91.8581 78.3939 92.5938 77.9316C93.3294 77.4694 94.1497 77.2383 95.0547 77.2383C96.4935 77.2383 97.6035 77.6973 98.3848 78.6152C99.1725 79.5332 99.5664 80.832 99.5664 82.5117V83.4688H92.6621C92.7337 84.3411 93.0234 85.0312 93.5312 85.5391C94.0456 86.0469 94.6901 86.3008 95.4648 86.3008C96.5521 86.3008 97.4375 85.8613 98.1211 84.9824L99.4004 86.2031C98.9772 86.8346 98.4108 87.3262 97.7012 87.6777C96.998 88.0228 96.207 88.1953 95.3281 88.1953ZM95.0449 79.1426C94.3939 79.1426 93.8665 79.3704 93.4629 79.8262C93.0658 80.2819 92.8118 80.9167 92.7012 81.7305H97.2227V81.5547C97.1706 80.7604 96.959 80.1615 96.5879 79.7578C96.2168 79.3477 95.7025 79.1426 95.0449 79.1426ZM100.973 82.6387C100.973 81.0111 101.35 79.7057 102.105 78.7227C102.861 77.7331 103.873 77.2383 105.143 77.2383C106.262 77.2383 107.167 77.6289 107.857 78.4102V73H110.23V88H108.082L107.965 86.9062C107.255 87.7656 106.308 88.1953 105.123 88.1953C103.886 88.1953 102.883 87.6973 102.115 86.7012C101.354 85.7051 100.973 84.3509 100.973 82.6387ZM103.346 82.8438C103.346 83.918 103.551 84.7578 103.961 85.3633C104.378 85.9622 104.967 86.2617 105.729 86.2617C106.699 86.2617 107.408 85.8288 107.857 84.9629V80.4512C107.421 79.6048 106.718 79.1816 105.748 79.1816C104.98 79.1816 104.387 79.4876 103.971 80.0996C103.554 80.7051 103.346 81.6198 103.346 82.8438ZM115.23 88H112.857V77.4336H115.23V88ZM112.711 74.6895C112.711 74.3249 112.825 74.0221 113.053 73.7812C113.287 73.5404 113.619 73.4199 114.049 73.4199C114.479 73.4199 114.811 73.5404 115.045 73.7812C115.279 74.0221 115.396 74.3249 115.396 74.6895C115.396 75.0475 115.279 75.347 115.045 75.5879C114.811 75.8223 114.479 75.9395 114.049 75.9395C113.619 75.9395 113.287 75.8223 113.053 75.5879C112.825 75.347 112.711 75.0475 112.711 74.6895ZM122.477 88.1953C120.973 88.1953 119.752 87.7233 118.814 86.7793C117.883 85.8288 117.418 84.5658 117.418 82.9902V82.6973C117.418 81.6426 117.62 80.7018 118.023 79.875C118.434 79.0417 119.007 78.3939 119.742 77.9316C120.478 77.4694 121.298 77.2383 122.203 77.2383C123.642 77.2383 124.752 77.6973 125.533 78.6152C126.321 79.5332 126.715 80.832 126.715 82.5117V83.4688H119.811C119.882 84.3411 120.172 85.0312 120.68 85.5391C121.194 86.0469 121.839 86.3008 122.613 86.3008C123.701 86.3008 124.586 85.8613 125.27 84.9824L126.549 86.2031C126.126 86.8346 125.559 87.3262 124.85 87.6777C124.146 88.0228 123.355 88.1953 122.477 88.1953ZM122.193 79.1426C121.542 79.1426 121.015 79.3704 120.611 79.8262C120.214 80.2819 119.96 80.9167 119.85 81.7305H124.371V81.5547C124.319 80.7604 124.107 80.1615 123.736 79.7578C123.365 79.3477 122.851 79.1426 122.193 79.1426ZM130.768 77.4336L130.836 78.6543C131.617 77.7103 132.643 77.2383 133.912 77.2383C136.113 77.2383 137.232 78.498 137.271 81.0176V88H134.898V81.1543C134.898 80.4837 134.752 79.9889 134.459 79.6699C134.173 79.3444 133.701 79.1816 133.043 79.1816C132.086 79.1816 131.373 79.6146 130.904 80.4805V88H128.531V77.4336H130.768ZM142.672 74.8652V77.4336H144.537V79.1914H142.672V85.0898C142.672 85.4935 142.75 85.7865 142.906 85.9688C143.069 86.1445 143.355 86.2324 143.766 86.2324C144.039 86.2324 144.316 86.1999 144.596 86.1348V87.9707C144.055 88.1204 143.535 88.1953 143.033 88.1953C141.21 88.1953 140.299 87.1895 140.299 85.1777V79.1914H138.561V77.4336H140.299V74.8652H142.672ZM152.281 85.1289C152.281 84.7057 152.105 84.3835 151.754 84.1621C151.409 83.9408 150.833 83.7454 150.025 83.5762C149.218 83.4069 148.544 83.1921 148.004 82.9316C146.819 82.3587 146.227 81.5286 146.227 80.4414C146.227 79.5299 146.611 78.7682 147.379 78.1562C148.147 77.5443 149.124 77.2383 150.309 77.2383C151.572 77.2383 152.59 77.5508 153.365 78.1758C154.146 78.8008 154.537 79.6113 154.537 80.6074H152.164C152.164 80.1517 151.995 79.7741 151.656 79.4746C151.318 79.1686 150.868 79.0156 150.309 79.0156C149.788 79.0156 149.361 79.1361 149.029 79.377C148.704 79.6178 148.541 79.9401 148.541 80.3438C148.541 80.7083 148.694 80.9915 149 81.1934C149.306 81.3952 149.924 81.6003 150.855 81.8086C151.786 82.0104 152.516 82.2546 153.043 82.541C153.577 82.821 153.971 83.1595 154.225 83.5566C154.485 83.9538 154.615 84.4355 154.615 85.002C154.615 85.9525 154.221 86.724 153.434 87.3164C152.646 87.9023 151.614 88.1953 150.338 88.1953C149.472 88.1953 148.701 88.0391 148.023 87.7266C147.346 87.4141 146.819 86.9844 146.441 86.4375C146.064 85.8906 145.875 85.3014 145.875 84.6699H148.18C148.212 85.2298 148.424 85.6628 148.814 85.9688C149.205 86.2682 149.723 86.418 150.367 86.418C150.992 86.418 151.467 86.3008 151.793 86.0664C152.118 85.8255 152.281 85.513 152.281 85.1289Z" fill="white"/>
</svg>
