<svg width="184" height="113" viewBox="0 0 184 113" fill="none" xmlns="http://www.w3.org/2000/svg">
<rect width="184" height="113" rx="10" fill="#FF8F00"/>
<path d="M73.6094 21.25C73.6094 22.3646 73.3229 23.3594 72.75 24.2344C72.1771 25.099 71.3958 25.7812 70.4062 26.2812C71.5938 26.8333 72.5052 27.5885 73.1406 28.5469C73.7865 29.5052 74.1094 30.5885 74.1094 31.7969C74.1094 33.7969 73.4323 35.3854 72.0781 36.5625C70.724 37.7292 68.9219 38.3125 66.6719 38.3125C64.4115 38.3125 62.599 37.724 61.2344 36.5469C59.8802 35.3698 59.2031 33.7865 59.2031 31.7969C59.2031 30.5781 59.526 29.4844 60.1719 28.5156C60.8177 27.5469 61.724 26.8021 62.8906 26.2812C61.9115 25.7812 61.1354 25.099 60.5625 24.2344C60 23.3594 59.7188 22.3646 59.7188 21.25C59.7188 19.3125 60.3438 17.776 61.5938 16.6406C62.8438 15.5052 64.5312 14.9375 66.6562 14.9375C68.7917 14.9375 70.4844 15.5052 71.7344 16.6406C72.9844 17.776 73.6094 19.3125 73.6094 21.25ZM70.3125 31.6094C70.3125 30.4844 69.974 29.5781 69.2969 28.8906C68.6302 28.1927 67.7448 27.8438 66.6406 27.8438C65.5365 27.8438 64.651 28.1875 63.9844 28.875C63.3281 29.5625 63 30.474 63 31.6094C63 32.724 63.3229 33.6146 63.9688 34.2812C64.625 34.9479 65.526 35.2812 66.6719 35.2812C67.8177 35.2812 68.7083 34.9583 69.3438 34.3125C69.9896 33.6667 70.3125 32.7656 70.3125 31.6094ZM69.8281 21.3906C69.8281 20.401 69.5417 19.5885 68.9688 18.9531C68.3958 18.3073 67.625 17.9844 66.6562 17.9844C65.6875 17.9844 64.9219 18.2917 64.3594 18.9062C63.7969 19.5104 63.5156 20.3385 63.5156 21.3906C63.5156 22.4323 63.7969 23.2604 64.3594 23.875C64.9323 24.4896 65.7031 24.7969 66.6719 24.7969C67.6406 24.7969 68.4062 24.4896 68.9688 23.875C69.5417 23.2604 69.8281 22.4323 69.8281 21.3906ZM92.2969 28.4219C92.2969 31.6927 91.6823 34.1615 90.4531 35.8281C89.2344 37.4844 87.375 38.3125 84.875 38.3125C82.4167 38.3125 80.5625 37.5052 79.3125 35.8906C78.0729 34.2656 77.4375 31.8646 77.4062 28.6875V24.75C77.4062 21.4792 78.0156 19.026 79.2344 17.3906C80.4635 15.7552 82.3333 14.9375 84.8438 14.9375C87.3333 14.9375 89.1875 15.7344 90.4062 17.3281C91.6354 18.9219 92.2656 21.3073 92.2969 24.4844V28.4219ZM88.5 24.1719C88.5 22.0365 88.2083 20.474 87.625 19.4844C87.0417 18.4844 86.1146 17.9844 84.8438 17.9844C83.6042 17.9844 82.6927 18.4583 82.1094 19.4062C81.526 20.3438 81.2188 21.8125 81.1875 23.8125V28.9688C81.1875 31.0938 81.4844 32.6771 82.0781 33.7188C82.6719 34.7604 83.6042 35.2812 84.875 35.2812C86.0938 35.2812 86.9948 34.8021 87.5781 33.8438C88.1615 32.875 88.4688 31.3646 88.5 29.3125V24.1719ZM103.469 19.625C103.469 18.25 103.911 17.125 104.797 16.25C105.682 15.3646 106.844 14.9219 108.281 14.9219C109.74 14.9219 110.906 15.3646 111.781 16.25C112.667 17.125 113.109 18.276 113.109 19.7031V20.8281C113.109 22.1927 112.667 23.3125 111.781 24.1875C110.906 25.0625 109.75 25.5 108.312 25.5C106.906 25.5 105.745 25.0729 104.828 24.2188C103.922 23.3542 103.469 22.1927 103.469 20.7344V19.625ZM106.125 20.8281C106.125 21.5469 106.323 22.1302 106.719 22.5781C107.125 23.0156 107.656 23.2344 108.312 23.2344C108.958 23.2344 109.479 23.0156 109.875 22.5781C110.271 22.1302 110.469 21.526 110.469 20.7656V19.625C110.469 18.9062 110.266 18.3229 109.859 17.875C109.464 17.4271 108.938 17.2031 108.281 17.2031C107.625 17.2031 107.099 17.4323 106.703 17.8906C106.318 18.3385 106.125 18.9323 106.125 19.6719V20.8281ZM114.406 32.4219C114.406 31.026 114.859 29.8958 115.766 29.0312C116.672 28.1667 117.828 27.7344 119.234 27.7344C120.651 27.7344 121.807 28.1667 122.703 29.0312C123.609 29.8958 124.062 31.0625 124.062 32.5312V33.6406C124.062 34.9948 123.625 36.1146 122.75 37C121.885 37.875 120.724 38.3125 119.266 38.3125C117.807 38.3125 116.63 37.8802 115.734 37.0156C114.849 36.1406 114.406 34.9896 114.406 33.5625V32.4219ZM117.062 33.6406C117.062 34.349 117.266 34.9323 117.672 35.3906C118.089 35.8385 118.62 36.0625 119.266 36.0625C119.932 36.0625 120.453 35.849 120.828 35.4219C121.214 34.9844 121.406 34.375 121.406 33.5938V32.4219C121.406 31.6927 121.203 31.1094 120.797 30.6719C120.391 30.2344 119.87 30.0156 119.234 30.0156C118.589 30.0156 118.062 30.2344 117.656 30.6719C117.26 31.1094 117.062 31.7135 117.062 32.4844V33.6406ZM109.094 36.2969L107.141 35.1719L118.25 17.3906L120.203 18.5156L109.094 36.2969ZM18.7461 54.6016C18.4336 54.5495 18.1113 54.5234 17.7793 54.5234C16.6921 54.5234 15.9596 54.9401 15.582 55.7734V63H13.209V52.4336H15.4746L15.5332 53.6152C16.1061 52.6973 16.9004 52.2383 17.916 52.2383C18.2546 52.2383 18.5345 52.2839 18.7559 52.375L18.7461 54.6016ZM24.7031 63.1953C23.1992 63.1953 21.9785 62.7233 21.041 61.7793C20.11 60.8288 19.6445 59.5658 19.6445 57.9902V57.6973C19.6445 56.6426 19.8464 55.7018 20.25 54.875C20.6602 54.0417 21.2331 53.3939 21.9688 52.9316C22.7044 52.4694 23.5247 52.2383 24.4297 52.2383C25.8685 52.2383 26.9785 52.6973 27.7598 53.6152C28.5475 54.5332 28.9414 55.832 28.9414 57.5117V58.4688H22.0371C22.1087 59.3411 22.3984 60.0312 22.9062 60.5391C23.4206 61.0469 24.0651 61.3008 24.8398 61.3008C25.9271 61.3008 26.8125 60.8613 27.4961 59.9824L28.7754 61.2031C28.3522 61.8346 27.7858 62.3262 27.0762 62.6777C26.373 63.0228 25.582 63.1953 24.7031 63.1953ZM24.4199 54.1426C23.7689 54.1426 23.2415 54.3704 22.8379 54.8262C22.4408 55.2819 22.1868 55.9167 22.0762 56.7305H26.5977V56.5547C26.5456 55.7604 26.334 55.1615 25.9629 54.7578C25.5918 54.3477 25.0775 54.1426 24.4199 54.1426ZM33.3164 63H30.9434V48H33.3164V63ZM39.6055 59.6016L41.7539 52.4336H44.2832L40.084 64.6016C39.4395 66.3789 38.3457 67.2676 36.8027 67.2676C36.4577 67.2676 36.0768 67.209 35.6602 67.0918V65.2559L36.1094 65.2852C36.7083 65.2852 37.1576 65.1745 37.457 64.9531C37.763 64.7383 38.0039 64.3737 38.1797 63.8594L38.5215 62.9512L34.8105 52.4336H37.3691L39.6055 59.6016ZM50.1914 57.6191C50.1914 56.584 50.3965 55.653 50.8066 54.8262C51.2168 53.9928 51.793 53.3548 52.5352 52.9121C53.2773 52.4629 54.1302 52.2383 55.0938 52.2383C56.5195 52.2383 57.6751 52.6973 58.5605 53.6152C59.4525 54.5332 59.9342 55.7507 60.0059 57.2676L60.0156 57.8242C60.0156 58.8659 59.8138 59.7969 59.4102 60.6172C59.013 61.4375 58.4401 62.0723 57.6914 62.5215C56.9492 62.9707 56.0898 63.1953 55.1133 63.1953C53.6224 63.1953 52.4277 62.7005 51.5293 61.7109C50.6374 60.7148 50.1914 59.39 50.1914 57.7363V57.6191ZM52.5645 57.8242C52.5645 58.9115 52.7891 59.7643 53.2383 60.3828C53.6875 60.9948 54.3125 61.3008 55.1133 61.3008C55.9141 61.3008 56.5358 60.9883 56.9785 60.3633C57.4277 59.7383 57.6523 58.8236 57.6523 57.6191C57.6523 56.5514 57.4212 55.7051 56.959 55.0801C56.5033 54.4551 55.8815 54.1426 55.0938 54.1426C54.319 54.1426 53.7038 54.4518 53.248 55.0703C52.7923 55.6823 52.5645 56.6003 52.5645 57.8242ZM64.2246 52.4336L64.293 53.6543C65.0742 52.7103 66.0996 52.2383 67.3691 52.2383C69.5697 52.2383 70.6895 53.498 70.7285 56.0176V63H68.3555V56.1543C68.3555 55.4837 68.209 54.9889 67.916 54.6699C67.6296 54.3444 67.1576 54.1816 66.5 54.1816C65.543 54.1816 64.8301 54.6146 64.3613 55.4805V63H61.9883V52.4336H64.2246ZM89.2637 61.1543C88.7493 61.8249 88.0365 62.3327 87.125 62.6777C86.2135 63.0228 85.1784 63.1953 84.0195 63.1953C82.8281 63.1953 81.7734 62.9251 80.8555 62.3848C79.9375 61.8444 79.2279 61.0729 78.7266 60.0703C78.2318 59.0612 77.9746 57.8861 77.9551 56.5449V55.4316C77.9551 53.2832 78.4694 51.6068 79.498 50.4023C80.5267 49.1914 81.9622 48.5859 83.8047 48.5859C85.3867 48.5859 86.6432 48.9766 87.5742 49.7578C88.5052 50.5391 89.0651 51.6654 89.2539 53.1367H86.832C86.5586 51.4245 85.5658 50.5684 83.8535 50.5684C82.7467 50.5684 81.9036 50.9688 81.3242 51.7695C80.7513 52.5638 80.4551 53.7324 80.4355 55.2754V56.3691C80.4355 57.9056 80.7578 59.1003 81.4023 59.9531C82.0534 60.7995 82.9551 61.2227 84.1074 61.2227C85.3704 61.2227 86.2689 60.9362 86.8027 60.3633V57.5801H83.873V55.7051H89.2637V61.1543ZM91.3047 57.6191C91.3047 56.584 91.5098 55.653 91.9199 54.8262C92.3301 53.9928 92.9062 53.3548 93.6484 52.9121C94.3906 52.4629 95.2435 52.2383 96.207 52.2383C97.6328 52.2383 98.7884 52.6973 99.6738 53.6152C100.566 54.5332 101.048 55.7507 101.119 57.2676L101.129 57.8242C101.129 58.8659 100.927 59.7969 100.523 60.6172C100.126 61.4375 99.5534 62.0723 98.8047 62.5215C98.0625 62.9707 97.2031 63.1953 96.2266 63.1953C94.7357 63.1953 93.541 62.7005 92.6426 61.7109C91.7507 60.7148 91.3047 59.39 91.3047 57.7363V57.6191ZM93.6777 57.8242C93.6777 58.9115 93.9023 59.7643 94.3516 60.3828C94.8008 60.9948 95.4258 61.3008 96.2266 61.3008C97.0273 61.3008 97.6491 60.9883 98.0918 60.3633C98.541 59.7383 98.7656 58.8236 98.7656 57.6191C98.7656 56.5514 98.5345 55.7051 98.0723 55.0801C97.6165 54.4551 96.9948 54.1426 96.207 54.1426C95.4323 54.1426 94.8171 54.4518 94.3613 55.0703C93.9056 55.6823 93.6777 56.6003 93.6777 57.8242ZM102.691 57.6191C102.691 56.584 102.896 55.653 103.307 54.8262C103.717 53.9928 104.293 53.3548 105.035 52.9121C105.777 52.4629 106.63 52.2383 107.594 52.2383C109.02 52.2383 110.175 52.6973 111.061 53.6152C111.952 54.5332 112.434 55.7507 112.506 57.2676L112.516 57.8242C112.516 58.8659 112.314 59.7969 111.91 60.6172C111.513 61.4375 110.94 62.0723 110.191 62.5215C109.449 62.9707 108.59 63.1953 107.613 63.1953C106.122 63.1953 104.928 62.7005 104.029 61.7109C103.137 60.7148 102.691 59.39 102.691 57.7363V57.6191ZM105.064 57.8242C105.064 58.9115 105.289 59.7643 105.738 60.3828C106.188 60.9948 106.812 61.3008 107.613 61.3008C108.414 61.3008 109.036 60.9883 109.479 60.3633C109.928 59.7383 110.152 58.8236 110.152 57.6191C110.152 56.5514 109.921 55.7051 109.459 55.0801C109.003 54.4551 108.382 54.1426 107.594 54.1426C106.819 54.1426 106.204 54.4518 105.748 55.0703C105.292 55.6823 105.064 56.6003 105.064 57.8242ZM114.107 57.6387C114.107 55.998 114.492 54.6895 115.26 53.7129C116.035 52.7298 117.06 52.2383 118.336 52.2383C119.54 52.2383 120.488 52.6582 121.178 53.498L121.285 52.4336H123.424V62.6777C123.424 64.0645 122.991 65.1582 122.125 65.959C121.266 66.7598 120.104 67.1602 118.639 67.1602C117.864 67.1602 117.105 66.9974 116.363 66.6719C115.628 66.3529 115.068 65.9329 114.684 65.4121L115.807 63.9863C116.536 64.8522 117.434 65.2852 118.502 65.2852C119.29 65.2852 119.911 65.0703 120.367 64.6406C120.823 64.2174 121.051 63.5924 121.051 62.7656V62.0527C120.367 62.8145 119.456 63.1953 118.316 63.1953C117.079 63.1953 116.067 62.7038 115.279 61.7207C114.498 60.7376 114.107 59.377 114.107 57.6387ZM116.471 57.8438C116.471 58.9049 116.686 59.7415 117.115 60.3535C117.551 60.959 118.154 61.2617 118.922 61.2617C119.879 61.2617 120.589 60.8516 121.051 60.0312V55.3828C120.602 54.582 119.898 54.1816 118.941 54.1816C118.16 54.1816 117.551 54.4909 117.115 55.1094C116.686 55.7279 116.471 56.6393 116.471 57.8438ZM128.395 63H126.021V48H128.395V63ZM135.641 63.1953C134.137 63.1953 132.916 62.7233 131.979 61.7793C131.048 60.8288 130.582 59.5658 130.582 57.9902V57.6973C130.582 56.6426 130.784 55.7018 131.188 54.875C131.598 54.0417 132.171 53.3939 132.906 52.9316C133.642 52.4694 134.462 52.2383 135.367 52.2383C136.806 52.2383 137.916 52.6973 138.697 53.6152C139.485 54.5332 139.879 55.832 139.879 57.5117V58.4688H132.975C133.046 59.3411 133.336 60.0312 133.844 60.5391C134.358 61.0469 135.003 61.3008 135.777 61.3008C136.865 61.3008 137.75 60.8613 138.434 59.9824L139.713 61.2031C139.29 61.8346 138.723 62.3262 138.014 62.6777C137.311 63.0228 136.52 63.1953 135.641 63.1953ZM135.357 54.1426C134.706 54.1426 134.179 54.3704 133.775 54.8262C133.378 55.2819 133.124 55.9167 133.014 56.7305H137.535V56.5547C137.483 55.7604 137.271 55.1615 136.9 54.7578C136.529 54.3477 136.015 54.1426 135.357 54.1426ZM147.545 63V54.1914H145.934V52.4336H147.545V51.4668C147.545 50.2949 147.87 49.39 148.521 48.752C149.173 48.1139 150.084 47.7949 151.256 47.7949C151.673 47.7949 152.115 47.8535 152.584 47.9707L152.525 49.8262C152.265 49.7741 151.962 49.748 151.617 49.748C150.484 49.748 149.918 50.3307 149.918 51.4961V52.4336H152.066V54.1914H149.918V63H147.545ZM153.355 57.6191C153.355 56.584 153.561 55.653 153.971 54.8262C154.381 53.9928 154.957 53.3548 155.699 52.9121C156.441 52.4629 157.294 52.2383 158.258 52.2383C159.684 52.2383 160.839 52.6973 161.725 53.6152C162.617 54.5332 163.098 55.7507 163.17 57.2676L163.18 57.8242C163.18 58.8659 162.978 59.7969 162.574 60.6172C162.177 61.4375 161.604 62.0723 160.855 62.5215C160.113 62.9707 159.254 63.1953 158.277 63.1953C156.786 63.1953 155.592 62.7005 154.693 61.7109C153.801 60.7148 153.355 59.39 153.355 57.7363V57.6191ZM155.729 57.8242C155.729 58.9115 155.953 59.7643 156.402 60.3828C156.852 60.9948 157.477 61.3008 158.277 61.3008C159.078 61.3008 159.7 60.9883 160.143 60.3633C160.592 59.7383 160.816 58.8236 160.816 57.6191C160.816 56.5514 160.585 55.7051 160.123 55.0801C159.667 54.4551 159.046 54.1426 158.258 54.1426C157.483 54.1426 156.868 54.4518 156.412 55.0703C155.956 55.6823 155.729 56.6003 155.729 57.8242ZM170.719 54.6016C170.406 54.5495 170.084 54.5234 169.752 54.5234C168.665 54.5234 167.932 54.9401 167.555 55.7734V63H165.182V52.4336H167.447L167.506 53.6152C168.079 52.6973 168.873 52.2383 169.889 52.2383C170.227 52.2383 170.507 52.2839 170.729 52.375L170.719 54.6016ZM38.0137 79.6016C37.7012 79.5495 37.3789 79.5234 37.0469 79.5234C35.9596 79.5234 35.2272 79.9401 34.8496 80.7734V88H32.4766V77.4336H34.7422L34.8008 78.6152C35.3737 77.6973 36.168 77.2383 37.1836 77.2383C37.5221 77.2383 37.8021 77.2839 38.0234 77.375L38.0137 79.6016ZM43.9707 88.1953C42.4668 88.1953 41.2461 87.7233 40.3086 86.7793C39.3776 85.8288 38.9121 84.5658 38.9121 82.9902V82.6973C38.9121 81.6426 39.1139 80.7018 39.5176 79.875C39.9277 79.0417 40.5007 78.3939 41.2363 77.9316C41.972 77.4694 42.7923 77.2383 43.6973 77.2383C45.1361 77.2383 46.2461 77.6973 47.0273 78.6152C47.8151 79.5332 48.209 80.832 48.209 82.5117V83.4688H41.3047C41.3763 84.3411 41.666 85.0312 42.1738 85.5391C42.6882 86.0469 43.3327 86.3008 44.1074 86.3008C45.1947 86.3008 46.0801 85.8613 46.7637 84.9824L48.043 86.2031C47.6198 86.8346 47.0534 87.3262 46.3438 87.6777C45.6406 88.0228 44.8496 88.1953 43.9707 88.1953ZM43.6875 79.1426C43.0365 79.1426 42.5091 79.3704 42.1055 79.8262C41.7083 80.2819 41.4544 80.9167 41.3438 81.7305H45.8652V81.5547C45.8132 80.7604 45.6016 80.1615 45.2305 79.7578C44.8594 79.3477 44.3451 79.1426 43.6875 79.1426ZM54.4004 86.3008C54.9928 86.3008 55.4844 86.1283 55.875 85.7832C56.2656 85.4382 56.474 85.0117 56.5 84.5039H58.7363C58.7103 85.1615 58.5052 85.7767 58.1211 86.3496C57.737 86.916 57.2161 87.3652 56.5586 87.6973C55.901 88.0293 55.1914 88.1953 54.4297 88.1953C52.9518 88.1953 51.7799 87.7168 50.9141 86.7598C50.0482 85.8027 49.6152 84.4811 49.6152 82.7949V82.5508C49.6152 80.9427 50.0449 79.6569 50.9043 78.6934C51.7637 77.7233 52.9355 77.2383 54.4199 77.2383C55.6764 77.2383 56.6986 77.6061 57.4863 78.3418C58.2806 79.071 58.6973 80.0312 58.7363 81.2227H56.5C56.474 80.6172 56.2656 80.1191 55.875 79.7285C55.4909 79.3379 54.9993 79.1426 54.4004 79.1426C53.6322 79.1426 53.0397 79.4225 52.623 79.9824C52.2064 80.5358 51.9948 81.3789 51.9883 82.5117V82.8926C51.9883 84.0384 52.1934 84.8945 52.6035 85.4609C53.0202 86.0208 53.6191 86.3008 54.4004 86.3008ZM63.0527 88H60.6797V77.4336H63.0527V88ZM60.5332 74.6895C60.5332 74.3249 60.6471 74.0221 60.875 73.7812C61.1094 73.5404 61.4414 73.4199 61.8711 73.4199C62.3008 73.4199 62.6328 73.5404 62.8672 73.7812C63.1016 74.0221 63.2188 74.3249 63.2188 74.6895C63.2188 75.0475 63.1016 75.347 62.8672 75.5879C62.6328 75.8223 62.3008 75.9395 61.8711 75.9395C61.4414 75.9395 61.1094 75.8223 60.875 75.5879C60.6471 75.347 60.5332 75.0475 60.5332 74.6895ZM74.8984 82.8242C74.8984 84.4583 74.5273 85.7637 73.7852 86.7402C73.043 87.7103 72.0469 88.1953 70.7969 88.1953C69.638 88.1953 68.7103 87.8145 68.0137 87.0527V92.0625H65.6406V77.4336H67.8281L67.9258 78.5078C68.6224 77.6615 69.5697 77.2383 70.7676 77.2383C72.0566 77.2383 73.0658 77.7201 73.7949 78.6836C74.5306 79.6406 74.8984 80.972 74.8984 82.6777V82.8242ZM72.5352 82.6191C72.5352 81.5645 72.3236 80.7279 71.9004 80.1094C71.4837 79.4909 70.8848 79.1816 70.1035 79.1816C69.1335 79.1816 68.4368 79.582 68.0137 80.3828V85.0703C68.4434 85.8906 69.1465 86.3008 70.123 86.3008C70.8783 86.3008 71.4674 85.998 71.8906 85.3926C72.3203 84.7806 72.5352 83.8561 72.5352 82.6191ZM81.5684 88.1953C80.0645 88.1953 78.8438 87.7233 77.9062 86.7793C76.9753 85.8288 76.5098 84.5658 76.5098 82.9902V82.6973C76.5098 81.6426 76.7116 80.7018 77.1152 79.875C77.5254 79.0417 78.0983 78.3939 78.834 77.9316C79.5697 77.4694 80.39 77.2383 81.2949 77.2383C82.7337 77.2383 83.8438 77.6973 84.625 78.6152C85.4128 79.5332 85.8066 80.832 85.8066 82.5117V83.4688H78.9023C78.974 84.3411 79.2637 85.0312 79.7715 85.5391C80.2858 86.0469 80.9303 86.3008 81.7051 86.3008C82.7923 86.3008 83.6777 85.8613 84.3613 84.9824L85.6406 86.2031C85.2174 86.8346 84.651 87.3262 83.9414 87.6777C83.2383 88.0228 82.4473 88.1953 81.5684 88.1953ZM81.2852 79.1426C80.6341 79.1426 80.1068 79.3704 79.7031 79.8262C79.306 80.2819 79.0521 80.9167 78.9414 81.7305H83.4629V81.5547C83.4108 80.7604 83.1992 80.1615 82.8281 79.7578C82.457 79.3477 81.9427 79.1426 81.2852 79.1426ZM98.5605 85.1289C98.5605 84.7057 98.3848 84.3835 98.0332 84.1621C97.6882 83.9408 97.112 83.7454 96.3047 83.5762C95.4974 83.4069 94.8236 83.1921 94.2832 82.9316C93.0983 82.3587 92.5059 81.5286 92.5059 80.4414C92.5059 79.5299 92.89 78.7682 93.6582 78.1562C94.4264 77.5443 95.403 77.2383 96.5879 77.2383C97.8509 77.2383 98.8698 77.5508 99.6445 78.1758C100.426 78.8008 100.816 79.6113 100.816 80.6074H98.4434C98.4434 80.1517 98.2741 79.7741 97.9355 79.4746C97.597 79.1686 97.1478 79.0156 96.5879 79.0156C96.0671 79.0156 95.6406 79.1361 95.3086 79.377C94.9831 79.6178 94.8203 79.9401 94.8203 80.3438C94.8203 80.7083 94.9733 80.9915 95.2793 81.1934C95.5853 81.3952 96.2038 81.6003 97.1348 81.8086C98.0658 82.0104 98.7949 82.2546 99.3223 82.541C99.8561 82.821 100.25 83.1595 100.504 83.5566C100.764 83.9538 100.895 84.4355 100.895 85.002C100.895 85.9525 100.501 86.724 99.7129 87.3164C98.9251 87.9023 97.8932 88.1953 96.6172 88.1953C95.7513 88.1953 94.9798 88.0391 94.3027 87.7266C93.6257 87.4141 93.0983 86.9844 92.7207 86.4375C92.3431 85.8906 92.1543 85.3014 92.1543 84.6699H94.459C94.4915 85.2298 94.7031 85.6628 95.0938 85.9688C95.4844 86.2682 96.002 86.418 96.6465 86.418C97.2715 86.418 97.7467 86.3008 98.0723 86.0664C98.3978 85.8255 98.5605 85.513 98.5605 85.1289ZM107.623 88.1953C106.119 88.1953 104.898 87.7233 103.961 86.7793C103.03 85.8288 102.564 84.5658 102.564 82.9902V82.6973C102.564 81.6426 102.766 80.7018 103.17 79.875C103.58 79.0417 104.153 78.3939 104.889 77.9316C105.624 77.4694 106.445 77.2383 107.35 77.2383C108.788 77.2383 109.898 77.6973 110.68 78.6152C111.467 79.5332 111.861 80.832 111.861 82.5117V83.4688H104.957C105.029 84.3411 105.318 85.0312 105.826 85.5391C106.34 86.0469 106.985 86.3008 107.76 86.3008C108.847 86.3008 109.732 85.8613 110.416 84.9824L111.695 86.2031C111.272 86.8346 110.706 87.3262 109.996 87.6777C109.293 88.0228 108.502 88.1953 107.623 88.1953ZM107.34 79.1426C106.689 79.1426 106.161 79.3704 105.758 79.8262C105.361 80.2819 105.107 80.9167 104.996 81.7305H109.518V81.5547C109.465 80.7604 109.254 80.1615 108.883 79.7578C108.512 79.3477 107.997 79.1426 107.34 79.1426ZM120.025 88C119.921 87.7982 119.83 87.4694 119.752 87.0137C118.997 87.8014 118.072 88.1953 116.979 88.1953C115.917 88.1953 115.051 87.8926 114.381 87.2871C113.71 86.6816 113.375 85.9329 113.375 85.041C113.375 83.9147 113.792 83.0521 114.625 82.4531C115.465 81.8477 116.663 81.5449 118.219 81.5449H119.674V80.8516C119.674 80.3047 119.521 79.8685 119.215 79.543C118.909 79.2109 118.443 79.0449 117.818 79.0449C117.278 79.0449 116.835 79.1816 116.49 79.4551C116.145 79.722 115.973 80.0638 115.973 80.4805H113.6C113.6 79.901 113.792 79.3607 114.176 78.8594C114.56 78.3516 115.081 77.9544 115.738 77.668C116.402 77.3815 117.141 77.2383 117.955 77.2383C119.192 77.2383 120.178 77.5508 120.914 78.1758C121.65 78.7943 122.027 79.6667 122.047 80.793V85.5586C122.047 86.5091 122.18 87.2676 122.447 87.834V88H120.025ZM117.418 86.291C117.887 86.291 118.326 86.1771 118.736 85.9492C119.153 85.7214 119.465 85.4154 119.674 85.0312V83.0391H118.395C117.516 83.0391 116.855 83.1921 116.412 83.498C115.969 83.804 115.748 84.237 115.748 84.7969C115.748 85.2526 115.898 85.6172 116.197 85.8906C116.503 86.1576 116.91 86.291 117.418 86.291ZM130.064 79.6016C129.752 79.5495 129.43 79.5234 129.098 79.5234C128.01 79.5234 127.278 79.9401 126.9 80.7734V88H124.527V77.4336H126.793L126.852 78.6152C127.424 77.6973 128.219 77.2383 129.234 77.2383C129.573 77.2383 129.853 77.2839 130.074 77.375L130.064 79.6016ZM135.709 86.3008C136.301 86.3008 136.793 86.1283 137.184 85.7832C137.574 85.4382 137.783 85.0117 137.809 84.5039H140.045C140.019 85.1615 139.814 85.7767 139.43 86.3496C139.046 86.916 138.525 87.3652 137.867 87.6973C137.21 88.0293 136.5 88.1953 135.738 88.1953C134.26 88.1953 133.089 87.7168 132.223 86.7598C131.357 85.8027 130.924 84.4811 130.924 82.7949V82.5508C130.924 80.9427 131.354 79.6569 132.213 78.6934C133.072 77.7233 134.244 77.2383 135.729 77.2383C136.985 77.2383 138.007 77.6061 138.795 78.3418C139.589 79.071 140.006 80.0312 140.045 81.2227H137.809C137.783 80.6172 137.574 80.1191 137.184 79.7285C136.799 79.3379 136.308 79.1426 135.709 79.1426C134.941 79.1426 134.348 79.4225 133.932 79.9824C133.515 80.5358 133.303 81.3789 133.297 82.5117V82.8926C133.297 84.0384 133.502 84.8945 133.912 85.4609C134.329 86.0208 134.928 86.3008 135.709 86.3008ZM144.176 78.5859C144.951 77.6875 145.93 77.2383 147.115 77.2383C149.368 77.2383 150.51 78.5241 150.543 81.0957V88H148.17V81.1836C148.17 80.4544 148.01 79.9401 147.691 79.6406C147.379 79.3346 146.917 79.1816 146.305 79.1816C145.354 79.1816 144.645 79.6048 144.176 80.4512V88H141.803V73H144.176V78.5859Z" fill="white"/>
</svg>
