<svg width="122" height="58" viewBox="0 0 122 58" fill="none" xmlns="http://www.w3.org/2000/svg">
<path d="M57.3991 22.0649C58.3134 21.9839 59.2413 22.0315 60.1828 22.2076C61.1242 22.3838 61.8653 22.6446 62.4061 22.99C62.1595 26.33 61.0747 28.8947 59.1517 30.6841C57.2286 32.4735 54.5822 33.3596 51.2124 33.3424C47.8427 33.3253 45.2215 32.1839 43.3489 29.9183C41.5051 27.6243 40.5943 24.4069 40.6167 20.2661C40.6449 15.0687 41.9533 10.7488 44.5422 7.30646C47.1596 3.86426 50.4673 2.15333 54.4653 2.17367C57.064 2.18689 59.0729 3.01102 60.492 4.64604C61.911 6.28106 62.6836 8.64103 62.8097 11.7259C61.7217 12.2344 60.7489 12.5722 59.8913 12.7392C59.0336 12.9062 57.9766 12.9722 56.7203 12.9372C56.7896 10.6815 56.5416 9.00959 55.9763 7.92151C55.4398 6.80502 54.5718 6.24372 53.3724 6.23762C51.8017 6.22963 50.4531 7.4222 49.3264 9.81534C48.2282 12.2086 47.6695 15.1901 47.6502 18.7597C47.6321 22.1009 48.0608 24.6733 48.9364 26.4769C49.8406 28.2521 51.1352 29.144 52.8201 29.1526C54.4193 29.1607 55.6221 28.5386 56.4285 27.2861C57.235 26.0051 57.5586 24.2647 57.3991 22.0649Z" fill="#9BC53D"/>
<path d="M62.7077 21.7921C62.7289 17.8798 63.7742 14.7009 65.8436 12.2554C67.9417 9.78154 70.6328 8.55296 73.9169 8.56967C76.4585 8.5826 78.4388 9.40658 79.8578 11.0416C81.3056 12.6482 82.0218 14.8794 82.0063 17.7351C81.9838 21.9044 80.9653 25.3976 78.951 28.2146C76.9369 31.003 74.2307 32.3886 70.8323 32.3713C68.2622 32.3582 66.2541 31.3913 64.808 29.4706C63.3905 27.55 62.6904 24.9905 62.7077 21.7921ZM75.5694 19.8442C75.5829 17.3312 75.336 15.4736 74.8284 14.2716C74.3209 13.0696 73.5388 12.4659 72.4822 12.4605C71.5113 12.4556 70.6787 13.2653 69.9845 14.8895C69.319 16.4854 68.9797 18.497 68.9666 20.9244C68.955 23.0662 69.2309 24.8667 69.7941 26.326C70.3859 27.7855 71.1816 28.5178 72.1811 28.5229C73.1235 28.5277 73.9135 27.6749 74.551 25.9647C75.2172 24.2261 75.5567 22.1859 75.5694 19.8442Z" fill="#9BC53D"/>
<path d="M82.3921 21.8922C82.4133 17.9799 83.4586 14.801 85.528 12.3556C87.6261 9.88169 90.3172 8.65311 93.6013 8.66982C96.1429 8.68275 98.1232 9.50673 99.5423 11.1418C100.99 12.7484 101.706 14.9795 101.691 17.8352C101.668 22.0046 100.65 25.4978 98.6354 28.3148C96.6213 31.1032 93.9151 32.4888 90.5168 32.4715C87.9466 32.4584 85.9385 31.4915 84.4924 29.5707C83.0749 27.6501 82.3748 25.0907 82.3921 21.8922ZM95.2538 19.9443C95.2674 17.4313 95.0204 15.5738 94.5128 14.3718C94.0053 13.1698 93.2232 12.5661 92.1666 12.5607C91.1957 12.5557 90.3631 13.3654 89.6689 14.9897C89.0034 16.5855 88.6642 18.5972 88.651 21.0245C88.6394 23.1663 88.9153 24.9669 89.4785 26.4262C90.0704 27.8856 90.866 28.6179 91.8655 28.623C92.8079 28.6278 93.5979 27.7751 94.2354 26.0648C94.9016 24.3262 95.2411 22.286 95.2538 19.9443Z" fill="#9BC53D"/>
<path d="M108.255 23.1804C108.244 25.2365 108.291 27.1073 108.396 28.7928C108.501 30.4497 108.663 32.0783 108.883 33.6787C108.139 33.9319 107.325 34.1134 106.439 34.2231C105.581 34.333 104.553 34.3849 103.354 34.3788C102.996 31.921 102.737 29.4922 102.579 27.0925C102.449 24.693 102.392 22.094 102.407 19.2953C102.424 16.1255 102.543 12.6991 102.763 9.01629C103.011 5.30502 103.312 2.40791 103.666 0.324983C104.666 0.301511 105.893 0.407709 107.349 0.643577C108.832 0.851032 109.916 1.11357 110.6 1.43118C110.132 3.48498 109.704 6.02446 109.316 9.04963C108.929 12.0462 108.642 14.972 108.455 17.8268C109.747 16.6054 111.025 15.2268 112.29 13.6912C113.555 12.1555 115.122 10.0787 116.993 7.46088C117.79 7.86475 118.587 8.42568 119.383 9.14368C120.178 9.86168 120.803 10.5788 121.256 11.2951C120.019 12.888 118.683 14.3948 117.247 15.8154C115.812 17.2074 114.091 18.6694 112.083 20.2013C113.247 21.6066 114.582 22.9556 116.088 24.2484C117.623 25.5127 119.544 26.9076 121.848 28.4329C120.842 29.6843 119.966 30.608 119.22 31.2039C118.475 31.7998 117.701 32.2243 116.9 32.4772C115.308 31.1269 113.831 29.7057 112.468 28.2138C111.106 26.6933 109.73 24.9157 108.342 22.881L108.256 22.9234C108.256 22.952 108.256 22.9948 108.255 23.0519C108.255 23.0805 108.255 23.1233 108.255 23.1804Z" fill="#9BC53D"/>
<path d="M60.9974 39.9193C60.2627 38.0755 59.7461 36.5659 59.4477 35.3905C59.1722 34.1921 59.023 32.9129 59 31.5531C59.8954 31.2996 60.8711 31.1383 61.9272 31.0691C62.9833 30.977 63.9934 30.977 64.9577 31.0691C64.8888 32.2676 64.9118 33.5352 65.0266 34.872C65.1413 36.2087 65.3595 37.6837 65.6809 39.2971C65.038 39.4814 64.3034 39.6312 63.4769 39.7465C62.6733 39.8387 61.8468 39.8963 60.9974 39.9193Z" fill="#246EB9"/>
<path d="M71.2605 44.5519C71.536 44.621 71.8001 44.6786 72.0526 44.7247C72.3281 44.7478 72.5577 44.7593 72.7414 44.7593C72.925 44.7593 73.1316 44.7593 73.3612 44.7593C73.6138 44.7362 73.786 44.7132 73.8778 44.6901C74.0155 44.137 74.1189 43.6184 74.1877 43.1344C74.2796 42.6504 74.3255 42.2125 74.3255 41.8207C74.3255 41.3367 74.2566 40.9795 74.1189 40.749C74.0041 40.5186 73.8204 40.4033 73.5679 40.4033C73.1087 40.4033 72.6725 40.7836 72.2592 41.5442C71.846 42.2817 71.5131 43.2843 71.2605 44.5519ZM75.4275 49.8758C76.2999 50.0371 77.1838 50.3598 78.0792 50.8438C78.9975 51.3047 79.7436 51.8348 80.3176 52.4341C80.1339 53.0333 79.7092 53.6786 79.0434 54.37C78.3776 55.0615 77.5856 55.6376 76.6672 56.0986C75.9326 56.4673 75.129 56.7439 74.2566 56.9283C73.4071 57.1357 72.5118 57.2394 71.5705 57.2394C69.1828 57.2394 67.3117 56.548 65.9572 55.1652C64.6256 53.7593 63.9598 51.8579 63.9598 49.4609C63.9598 47.9629 64.1894 46.4994 64.6486 45.0704C65.1307 43.6184 65.8079 42.3047 66.6804 41.1293C67.6676 39.8156 68.804 38.79 70.0897 38.0525C71.3753 37.315 72.6954 36.9462 74.05 36.9462C75.9785 36.9462 77.5167 37.4417 78.6646 38.4328C79.8125 39.4008 80.3865 40.7029 80.3865 42.3393C80.3865 43.0768 80.3061 43.895 80.1454 44.7939C80.0077 45.6697 79.824 46.4302 79.5944 47.0755C78.8827 47.4213 77.9988 47.6863 76.9427 47.8707C75.9096 48.032 74.6699 48.1127 73.2235 48.1127C72.8102 48.1127 72.397 48.0896 71.9837 48.0435C71.5934 47.9974 71.2031 47.9398 70.8129 47.8707C70.7899 48.009 70.7784 48.1703 70.7784 48.3547C70.7784 48.516 70.7784 48.7695 70.7784 49.1152C70.7784 50.4981 70.9506 51.5583 71.295 52.2958C71.6623 53.0333 72.1789 53.402 72.8447 53.402C73.2809 53.402 73.7515 53.0448 74.2566 52.3303C74.7617 51.6159 75.152 50.7977 75.4275 49.8758Z" fill="#246EB9"/>
<path d="M110 43.0307C110 45.2202 109.782 47.7785 109.346 50.7055C108.932 53.6095 108.462 56.041 107.934 58C106.602 58 105.374 57.9424 104.249 57.8271C103.124 57.7119 102.045 57.5391 101.012 57.3086C101.815 53.6671 102.378 50.7631 102.699 48.5967C103.021 46.4302 103.181 44.644 103.181 43.2382C103.181 42.5928 103.09 42.1204 102.906 41.8207C102.722 41.4981 102.435 41.3367 102.045 41.3367C101.678 41.3367 101.31 41.6018 100.943 42.1319C100.576 42.662 100.243 43.411 99.9443 44.379V44.6556C99.9443 46.4533 99.795 48.5275 99.4966 50.8784C99.1981 53.2061 98.8882 54.9693 98.5668 56.1677C97.6943 56.1677 96.7416 56.1216 95.7085 56.0294C94.6753 55.9142 93.493 55.7414 92.1614 55.5109C92.5976 52.9296 92.9075 50.8323 93.0912 49.2189C93.2978 47.6056 93.4011 46.2804 93.4011 45.2433C93.4011 44.598 93.3093 44.1255 93.1256 43.8259C92.942 43.5032 92.655 43.3419 92.2647 43.3419C91.8515 43.3419 91.4497 43.6069 91.0594 44.137C90.6691 44.6671 90.3362 45.4046 90.0607 46.3496C90.0378 48.1933 90.0148 49.5992 89.9918 50.5672C89.9918 51.5122 89.9918 52.3534 89.9918 53.0909C89.9918 53.2522 89.9804 53.6325 89.9574 54.2318C89.9574 54.8079 89.9689 55.315 89.9918 55.7529C89.349 55.9373 88.4766 56.0986 87.3746 56.2369C86.2726 56.3752 85.2509 56.4443 84.3097 56.4443C83.8734 53.2177 83.4946 49.8528 83.1732 46.3496C82.8748 42.8233 82.7255 39.9424 82.7255 37.7068C83.2536 37.4302 83.9997 37.2113 84.964 37.0499C85.9282 36.8886 86.9154 36.8079 87.9256 36.8079C88.3848 36.8079 88.8324 36.831 89.2686 36.8771C89.7049 36.9232 90.1411 36.9923 90.5773 37.0845C90.5084 37.6837 90.4395 38.3521 90.3706 39.0896C90.3018 39.8271 90.2559 40.5762 90.2329 41.3367C90.8987 40.2766 91.6908 39.4814 92.6091 38.9513C93.5274 38.3982 94.5491 38.1216 95.674 38.1216C96.4546 38.1216 97.1319 38.2945 97.7058 38.6402C98.2798 38.9859 98.7389 39.493 99.0833 40.1613C99.818 38.8476 100.725 37.8451 101.804 37.1536C102.883 36.4622 104.1 36.1165 105.454 36.1165C106.947 36.1165 108.071 36.7042 108.829 37.8796C109.61 39.032 110 40.749 110 43.0307Z" fill="#246EB9"/>
<path d="M35.4155 6.46811C35.2227 6.88492 28.6795 20.8938 28.6795 20.8938C28.1211 20.6333 27.0656 20.4671 26.7156 21.2173C26.3095 22.0879 26.7034 22.458 27.727 22.9355L31.263 24.5851C32.2866 25.0626 32.8387 25.0936 33.2294 24.2561C33.5767 23.5117 32.7738 22.8039 32.2155 22.5434C32.2155 22.5434 38.8899 8.2693 38.9716 8.06137C39.3392 7.12554 38.8649 6.347 37.863 5.87957C36.861 5.41213 35.8009 5.63447 35.4155 6.46811Z" fill="black"/>
<path fill-rule="evenodd" clip-rule="evenodd" d="M19.7873 34.646C19.514 34.5257 19.39 34.2066 19.5104 33.9333C20.7683 31.0765 22.8894 28.2546 24.6753 26.1626C25.5716 25.1128 26.3903 24.239 26.9854 23.6271C27.283 23.3211 27.525 23.0803 27.6931 22.9156C27.7772 22.8332 27.8428 22.7697 27.8877 22.7266C27.9101 22.7051 27.9274 22.6886 27.9392 22.6774L27.9528 22.6645L27.9575 22.6601C27.9576 22.66 27.958 22.6596 28.3287 23.0533L27.958 22.6596C28.1754 22.4549 28.5176 22.4652 28.7223 22.6826C28.927 22.9 28.9167 23.2422 28.6993 23.4469M28.6993 23.4469L28.696 23.4501L28.6842 23.4612C28.6737 23.4712 28.6577 23.4865 28.6365 23.5068C28.5942 23.5474 28.5313 23.6082 28.4501 23.6878C28.2875 23.8472 28.0517 24.0818 27.7606 24.3811C27.1782 24.9799 26.3758 25.8363 25.4977 26.8648C23.735 28.9295 21.6944 31.6565 20.5001 34.369C20.3797 34.6423 20.0606 34.7663 19.7873 34.646" fill="black"/>
<path fill-rule="evenodd" clip-rule="evenodd" d="M29.499 23.8652C29.499 23.8652 29.499 23.8652 29.499 23.8652L29.4964 23.869L29.4876 23.8812L29.4525 23.9307C29.4215 23.9745 29.3755 24.0397 29.3162 24.1247C29.1974 24.2946 29.0253 24.5432 28.8126 24.8568C28.3872 25.4841 27.8001 26.3702 27.1545 27.4047C25.8592 29.4801 24.3438 32.1276 23.4167 34.4725C23.3069 34.7502 22.9928 34.8864 22.7151 34.7766C22.4374 34.6668 22.3013 34.3526 22.4111 34.0749C23.375 31.6368 24.9324 28.9227 26.2371 26.8322C26.8915 25.7837 27.4863 24.8858 27.9177 24.2498C28.1334 23.9317 28.3084 23.6789 28.4297 23.5053C28.4904 23.4185 28.5377 23.3514 28.5699 23.3059L28.6068 23.254L28.6164 23.2405L28.6196 23.236C28.6196 23.2359 28.6199 23.2356 29.0595 23.5504L28.6196 23.236C28.7935 22.9932 29.1315 22.9369 29.3743 23.1108C29.6171 23.2847 29.6729 23.6225 29.499 23.8652Z" fill="black"/>
<path fill-rule="evenodd" clip-rule="evenodd" d="M28.9934 23.704L28.9918 23.7139L28.9851 23.7555C28.979 23.7927 28.9696 23.8487 28.9567 23.9222C28.9311 24.0691 28.8915 24.286 28.8368 24.5624C28.7272 25.1152 28.5567 25.9056 28.3137 26.8506C27.8271 28.7431 27.0528 31.2445 25.9012 33.6982C25.7744 33.9685 25.8907 34.2905 26.161 34.4173C26.4313 34.5442 26.7533 34.4279 26.8802 34.1576C28.0698 31.6229 28.8642 29.0523 29.361 27.1199C29.6097 26.1525 29.7846 25.3422 29.8975 24.7726C29.954 24.4877 29.995 24.2628 30.022 24.1084C30.0355 24.0311 30.0455 23.9715 30.0522 23.9308L30.0597 23.884L30.0617 23.8715L30.0624 23.8671C30.0624 23.867 30.0625 23.8665 29.5281 23.784L30.0625 23.8665C30.1081 23.5714 29.9058 23.2952 29.6107 23.2496C29.3156 23.2041 29.0394 23.4064 28.9938 23.7015L28.9934 23.704Z" fill="black"/>
<path fill-rule="evenodd" clip-rule="evenodd" d="M30.4648 24.2743L31.0052 24.2914C31.0147 23.9929 30.7804 23.7433 30.4819 23.7339C30.1835 23.7244 29.9339 23.9586 29.9244 24.2571L29.9243 24.2601L29.9239 24.2708L29.9222 24.3152C29.9207 24.3547 29.9182 24.4138 29.9145 24.4908C29.9071 24.645 29.8949 24.8709 29.8759 25.1558C29.8377 25.7257 29.7721 26.5302 29.662 27.466C29.4412 29.3436 29.0447 31.7246 28.3447 33.7962C28.2491 34.0791 28.4009 34.3859 28.6838 34.4815C28.9667 34.5771 29.2735 34.4252 29.3691 34.1423C30.1042 31.967 30.5116 29.5005 30.736 27.5923C30.8485 26.6352 30.9157 25.8123 30.9548 25.228C30.9744 24.9357 30.9869 24.7029 30.9946 24.5425C30.9985 24.4623 31.0011 24.4002 31.0028 24.3578L31.0046 24.3092L31.005 24.2964L31.0052 24.2914C31.0052 24.2913 31.0052 24.2914 30.4648 24.2743Z" fill="black"/>
<path d="M38.0833 34.0319H0.810303C0.810303 43.8598 10.661 50.2375 13.0572 50.2375H27.1677C27.1677 50.2375 38.0833 43.9644 38.0833 34.0319Z" fill="#FF8F00"/>
<path fill-rule="evenodd" clip-rule="evenodd" d="M0 33.2216H38.8936V33.6267C38.8936 38.8975 36.3089 43.0449 33.542 45.8613C32.1575 47.2705 30.7201 48.3546 29.5201 49.0885C28.9204 49.4554 28.3752 49.7377 27.9213 49.9297C27.4848 50.1145 27.0833 50.2375 26.7903 50.2375H12.3752C11.9977 50.2375 11.5277 50.124 11.0142 49.9317C10.4933 49.7365 9.89932 49.4494 9.26507 49.0772C7.99644 48.3325 6.54779 47.2359 5.17917 45.8183C2.44278 42.9839 0 38.8371 0 33.6267V33.2216ZM0.821149 34.0319C0.943435 38.7882 3.20524 42.6029 5.76815 45.2575C7.08537 46.6219 8.47554 47.6725 9.68025 48.3796C10.2827 48.7332 10.834 48.9981 11.3022 49.1735C11.7778 49.3517 12.1408 49.4272 12.3752 49.4272H26.7903C26.9054 49.4272 27.1753 49.3646 27.6015 49.1843C28.0103 49.0113 28.5191 48.7492 29.0922 48.3986C30.2381 47.6977 31.6225 46.6548 32.9579 45.2955C35.558 42.6489 37.9443 38.8338 38.0722 34.0319H0.821149Z" fill="black"/>
<path d="M12.1542 50.2375H26.7393V55.0992H12.1542V50.2375Z" fill="#FF8F00"/>
<path fill-rule="evenodd" clip-rule="evenodd" d="M25.929 51.0478H12.9645V54.289H25.929V51.0478ZM12.1542 50.2375V55.0992H26.7393V50.2375H12.1542Z" fill="black"/>
<path fill-rule="evenodd" clip-rule="evenodd" d="M8.33761 38.4955C8.33755 38.4954 8.33749 38.4953 8.71136 38.3382C9.08523 38.1812 9.08519 38.1811 9.08516 38.181L9.0861 38.1832L9.09023 38.1928C9.09407 38.2017 9.10008 38.2155 9.10828 38.234C9.12467 38.2709 9.1498 38.3265 9.18373 38.3987C9.2516 38.543 9.35462 38.7535 9.49339 39.014C9.7711 39.5353 10.1909 40.2548 10.7574 41.043C11.8936 42.6239 13.6018 44.4566 15.9126 45.5408L15.5681 46.275C13.0849 45.11 11.2786 43.1578 10.0988 41.5163C9.50727 40.6932 9.06875 39.9419 8.77758 39.3953C8.63191 39.1219 8.52287 38.8992 8.44979 38.7438C8.41324 38.6661 8.38567 38.6051 8.36698 38.563C8.35764 38.542 8.35052 38.5256 8.34561 38.5143L8.33989 38.5009L8.33828 38.4971L8.33761 38.4955Z" fill="black"/>
<path d="M57.3991 22.0649C58.3134 21.9839 59.2413 22.0315 60.1828 22.2076C61.1242 22.3838 61.8653 22.6446 62.4061 22.99C62.1595 26.33 61.0747 28.8947 59.1517 30.6841C57.2286 32.4735 54.5822 33.3596 51.2124 33.3424C47.8427 33.3253 45.2215 32.1839 43.3489 29.9183C41.5051 27.6243 40.5943 24.4069 40.6167 20.2661C40.6449 15.0687 41.9533 10.7488 44.5422 7.30646C47.1596 3.86426 50.4673 2.15333 54.4653 2.17367C57.064 2.18689 59.0729 3.01102 60.492 4.64604C61.911 6.28106 62.6836 8.64103 62.8097 11.7259C61.7217 12.2344 60.7489 12.5722 59.8913 12.7392C59.0336 12.9062 57.9766 12.9722 56.7203 12.9372C56.7896 10.6815 56.5416 9.00959 55.9763 7.92151C55.4398 6.80502 54.5718 6.24372 53.3724 6.23762C51.8017 6.22963 50.4531 7.4222 49.3264 9.81534C48.2282 12.2086 47.6695 15.1901 47.6502 18.7597C47.6321 22.1009 48.0608 24.6733 48.9364 26.4769C49.8406 28.2521 51.1352 29.144 52.8201 29.1526C54.4193 29.1607 55.6221 28.5386 56.4285 27.2861C57.235 26.0051 57.5586 24.2647 57.3991 22.0649Z" fill="#9BC53D"/>
<path d="M62.7077 21.7921C62.7289 17.8798 63.7742 14.7009 65.8436 12.2554C67.9417 9.78154 70.6328 8.55296 73.9169 8.56967C76.4585 8.5826 78.4388 9.40658 79.8578 11.0416C81.3056 12.6482 82.0218 14.8794 82.0063 17.7351C81.9838 21.9044 80.9653 25.3976 78.951 28.2146C76.9369 31.003 74.2307 32.3886 70.8323 32.3713C68.2622 32.3582 66.2541 31.3913 64.808 29.4706C63.3905 27.55 62.6904 24.9905 62.7077 21.7921ZM75.5694 19.8442C75.5829 17.3312 75.336 15.4736 74.8284 14.2716C74.3209 13.0696 73.5388 12.4659 72.4822 12.4605C71.5113 12.4556 70.6787 13.2653 69.9845 14.8895C69.319 16.4854 68.9797 18.497 68.9666 20.9244C68.955 23.0662 69.2309 24.8667 69.7941 26.326C70.3859 27.7855 71.1816 28.5178 72.1811 28.5229C73.1235 28.5277 73.9135 27.6749 74.551 25.9647C75.2172 24.2261 75.5567 22.1859 75.5694 19.8442Z" fill="#9BC53D"/>
<path d="M82.3921 21.8922C82.4133 17.9799 83.4586 14.801 85.528 12.3556C87.6261 9.88169 90.3172 8.65311 93.6013 8.66982C96.1429 8.68275 98.1232 9.50673 99.5423 11.1418C100.99 12.7484 101.706 14.9795 101.691 17.8352C101.668 22.0046 100.65 25.4978 98.6354 28.3148C96.6213 31.1032 93.9151 32.4888 90.5168 32.4715C87.9466 32.4584 85.9385 31.4915 84.4924 29.5707C83.0749 27.6501 82.3748 25.0907 82.3921 21.8922ZM95.2538 19.9443C95.2674 17.4313 95.0204 15.5738 94.5128 14.3718C94.0053 13.1698 93.2232 12.5661 92.1666 12.5607C91.1957 12.5557 90.3631 13.3654 89.6689 14.9897C89.0034 16.5855 88.6642 18.5972 88.651 21.0245C88.6394 23.1663 88.9153 24.9669 89.4785 26.4262C90.0704 27.8856 90.866 28.6179 91.8655 28.623C92.8079 28.6278 93.5979 27.7751 94.2354 26.0648C94.9016 24.3262 95.2411 22.286 95.2538 19.9443Z" fill="#9BC53D"/>
<path d="M108.255 23.1804C108.244 25.2365 108.291 27.1073 108.396 28.7928C108.501 30.4497 108.663 32.0783 108.883 33.6787C108.139 33.9319 107.325 34.1134 106.439 34.2231C105.581 34.333 104.553 34.3849 103.354 34.3788C102.996 31.921 102.737 29.4922 102.579 27.0925C102.449 24.693 102.392 22.094 102.407 19.2953C102.424 16.1255 102.543 12.6991 102.763 9.01629C103.011 5.30502 103.312 2.40791 103.666 0.324983C104.666 0.301511 105.893 0.407709 107.349 0.643577C108.832 0.851032 109.916 1.11357 110.6 1.43118C110.132 3.48498 109.704 6.02446 109.316 9.04963C108.929 12.0462 108.642 14.972 108.455 17.8268C109.747 16.6054 111.025 15.2268 112.29 13.6912C113.555 12.1555 115.122 10.0787 116.993 7.46088C117.79 7.86475 118.587 8.42568 119.383 9.14368C120.178 9.86168 120.803 10.5788 121.256 11.2951C120.019 12.888 118.683 14.3948 117.247 15.8154C115.812 17.2074 114.091 18.6694 112.083 20.2013C113.247 21.6066 114.582 22.9556 116.088 24.2484C117.623 25.5127 119.544 26.9076 121.848 28.4329C120.842 29.6843 119.966 30.608 119.22 31.2039C118.475 31.7998 117.701 32.2243 116.9 32.4772C115.308 31.1269 113.831 29.7057 112.468 28.2138C111.106 26.6933 109.73 24.9157 108.342 22.881L108.256 22.9234C108.256 22.952 108.256 22.9948 108.255 23.0519C108.255 23.0805 108.255 23.1233 108.255 23.1804Z" fill="#9BC53D"/>
<path d="M60.9974 39.9193C60.2627 38.0755 59.7461 36.5659 59.4477 35.3905C59.1722 34.1921 59.023 32.9129 59 31.5531C59.8954 31.2996 60.8711 31.1383 61.9272 31.0691C62.9833 30.977 63.9934 30.977 64.9577 31.0691C64.8888 32.2676 64.9118 33.5352 65.0266 34.872C65.1413 36.2087 65.3595 37.6837 65.6809 39.2971C65.038 39.4814 64.3034 39.6312 63.4769 39.7465C62.6733 39.8387 61.8468 39.8963 60.9974 39.9193Z" fill="#246EB9"/>
<path d="M71.2605 44.5519C71.536 44.621 71.8001 44.6786 72.0526 44.7247C72.3281 44.7478 72.5577 44.7593 72.7414 44.7593C72.925 44.7593 73.1316 44.7593 73.3612 44.7593C73.6138 44.7362 73.786 44.7132 73.8778 44.6901C74.0155 44.137 74.1189 43.6184 74.1877 43.1344C74.2796 42.6504 74.3255 42.2125 74.3255 41.8207C74.3255 41.3367 74.2566 40.9795 74.1189 40.749C74.0041 40.5186 73.8204 40.4033 73.5679 40.4033C73.1087 40.4033 72.6725 40.7836 72.2592 41.5442C71.846 42.2817 71.5131 43.2843 71.2605 44.5519ZM75.4275 49.8758C76.2999 50.0371 77.1838 50.3598 78.0792 50.8438C78.9975 51.3047 79.7436 51.8348 80.3176 52.4341C80.1339 53.0333 79.7092 53.6786 79.0434 54.37C78.3776 55.0615 77.5856 55.6376 76.6672 56.0986C75.9326 56.4673 75.129 56.7439 74.2566 56.9283C73.4071 57.1357 72.5118 57.2394 71.5705 57.2394C69.1828 57.2394 67.3117 56.548 65.9572 55.1652C64.6256 53.7593 63.9598 51.8579 63.9598 49.4609C63.9598 47.9629 64.1894 46.4994 64.6486 45.0704C65.1307 43.6184 65.8079 42.3047 66.6804 41.1293C67.6676 39.8156 68.804 38.79 70.0897 38.0525C71.3753 37.315 72.6954 36.9462 74.05 36.9462C75.9785 36.9462 77.5167 37.4417 78.6646 38.4328C79.8125 39.4008 80.3865 40.7029 80.3865 42.3393C80.3865 43.0768 80.3061 43.895 80.1454 44.7939C80.0077 45.6697 79.824 46.4302 79.5944 47.0755C78.8827 47.4213 77.9988 47.6863 76.9427 47.8707C75.9096 48.032 74.6699 48.1127 73.2235 48.1127C72.8102 48.1127 72.397 48.0896 71.9837 48.0435C71.5934 47.9974 71.2031 47.9398 70.8129 47.8707C70.7899 48.009 70.7784 48.1703 70.7784 48.3547C70.7784 48.516 70.7784 48.7695 70.7784 49.1152C70.7784 50.4981 70.9506 51.5583 71.295 52.2958C71.6623 53.0333 72.1789 53.402 72.8447 53.402C73.2809 53.402 73.7515 53.0448 74.2566 52.3303C74.7617 51.6159 75.152 50.7977 75.4275 49.8758Z" fill="#246EB9"/>
<path d="M110 43.0307C110 45.2202 109.782 47.7785 109.346 50.7055C108.932 53.6095 108.462 56.041 107.934 58C106.602 58 105.374 57.9424 104.249 57.8271C103.124 57.7119 102.045 57.5391 101.012 57.3086C101.815 53.6671 102.378 50.7631 102.699 48.5967C103.021 46.4302 103.181 44.644 103.181 43.2382C103.181 42.5928 103.09 42.1204 102.906 41.8207C102.722 41.4981 102.435 41.3367 102.045 41.3367C101.678 41.3367 101.31 41.6018 100.943 42.1319C100.576 42.662 100.243 43.411 99.9443 44.379V44.6556C99.9443 46.4533 99.795 48.5275 99.4966 50.8784C99.1981 53.2061 98.8882 54.9693 98.5668 56.1677C97.6943 56.1677 96.7416 56.1216 95.7085 56.0294C94.6753 55.9142 93.493 55.7414 92.1614 55.5109C92.5976 52.9296 92.9075 50.8323 93.0912 49.2189C93.2978 47.6056 93.4011 46.2804 93.4011 45.2433C93.4011 44.598 93.3093 44.1255 93.1256 43.8259C92.942 43.5032 92.655 43.3419 92.2647 43.3419C91.8515 43.3419 91.4497 43.6069 91.0594 44.137C90.6691 44.6671 90.3362 45.4046 90.0607 46.3496C90.0378 48.1933 90.0148 49.5992 89.9918 50.5672C89.9918 51.5122 89.9918 52.3534 89.9918 53.0909C89.9918 53.2522 89.9804 53.6325 89.9574 54.2318C89.9574 54.8079 89.9689 55.315 89.9918 55.7529C89.349 55.9373 88.4766 56.0986 87.3746 56.2369C86.2726 56.3752 85.2509 56.4443 84.3097 56.4443C83.8734 53.2177 83.4946 49.8528 83.1732 46.3496C82.8748 42.8233 82.7255 39.9424 82.7255 37.7068C83.2536 37.4302 83.9997 37.2113 84.964 37.0499C85.9282 36.8886 86.9154 36.8079 87.9256 36.8079C88.3848 36.8079 88.8324 36.831 89.2686 36.8771C89.7049 36.9232 90.1411 36.9923 90.5773 37.0845C90.5084 37.6837 90.4395 38.3521 90.3706 39.0896C90.3018 39.8271 90.2559 40.5762 90.2329 41.3367C90.8987 40.2766 91.6908 39.4814 92.6091 38.9513C93.5274 38.3982 94.5491 38.1216 95.674 38.1216C96.4546 38.1216 97.1319 38.2945 97.7058 38.6402C98.2798 38.9859 98.7389 39.493 99.0833 40.1613C99.818 38.8476 100.725 37.8451 101.804 37.1536C102.883 36.4622 104.1 36.1165 105.454 36.1165C106.947 36.1165 108.071 36.7042 108.829 37.8796C109.61 39.032 110 40.749 110 43.0307Z" fill="#246EB9"/>
<path d="M35.4155 6.46811C35.2227 6.88492 28.6795 20.8938 28.6795 20.8938C28.1211 20.6333 27.0656 20.4671 26.7156 21.2173C26.3095 22.0879 26.7034 22.458 27.727 22.9355L31.263 24.5851C32.2866 25.0626 32.8387 25.0936 33.2294 24.2561C33.5767 23.5117 32.7738 22.8039 32.2155 22.5434C32.2155 22.5434 38.8899 8.2693 38.9716 8.06137C39.3392 7.12554 38.8649 6.347 37.863 5.87957C36.861 5.41213 35.8009 5.63447 35.4155 6.46811Z" fill="black"/>
<path fill-rule="evenodd" clip-rule="evenodd" d="M19.7873 34.646C19.514 34.5257 19.39 34.2066 19.5104 33.9333C20.7683 31.0765 22.8894 28.2546 24.6753 26.1626C25.5716 25.1128 26.3903 24.239 26.9854 23.6271C27.283 23.3211 27.525 23.0803 27.6931 22.9156C27.7772 22.8332 27.8428 22.7697 27.8877 22.7266C27.9101 22.7051 27.9274 22.6886 27.9392 22.6774L27.9528 22.6645L27.9575 22.6601C27.9576 22.66 27.958 22.6596 28.3287 23.0533L27.958 22.6596C28.1754 22.4549 28.5176 22.4652 28.7223 22.6826C28.927 22.9 28.9167 23.2422 28.6993 23.4469M28.6993 23.4469L28.696 23.4501L28.6842 23.4612C28.6737 23.4712 28.6577 23.4865 28.6365 23.5068C28.5942 23.5474 28.5313 23.6082 28.4501 23.6878C28.2875 23.8472 28.0517 24.0818 27.7606 24.3811C27.1782 24.9799 26.3758 25.8363 25.4977 26.8648C23.735 28.9295 21.6944 31.6565 20.5001 34.369C20.3797 34.6423 20.0606 34.7663 19.7873 34.646" fill="black"/>
<path fill-rule="evenodd" clip-rule="evenodd" d="M29.499 23.8652C29.499 23.8652 29.499 23.8652 29.499 23.8652L29.4964 23.869L29.4876 23.8812L29.4525 23.9307C29.4215 23.9745 29.3755 24.0397 29.3162 24.1247C29.1974 24.2946 29.0253 24.5432 28.8126 24.8568C28.3872 25.4841 27.8001 26.3702 27.1545 27.4047C25.8592 29.4801 24.3438 32.1276 23.4167 34.4725C23.3069 34.7502 22.9928 34.8864 22.7151 34.7766C22.4374 34.6668 22.3013 34.3526 22.4111 34.0749C23.375 31.6368 24.9324 28.9227 26.2371 26.8322C26.8915 25.7837 27.4863 24.8858 27.9177 24.2498C28.1334 23.9317 28.3084 23.6789 28.4297 23.5053C28.4904 23.4185 28.5377 23.3514 28.5699 23.3059L28.6068 23.254L28.6164 23.2405L28.6196 23.236C28.6196 23.2359 28.6199 23.2356 29.0595 23.5504L28.6196 23.236C28.7935 22.9932 29.1315 22.9369 29.3743 23.1108C29.6171 23.2847 29.6729 23.6225 29.499 23.8652Z" fill="black"/>
<path fill-rule="evenodd" clip-rule="evenodd" d="M28.9934 23.704L28.9918 23.7139L28.9851 23.7555C28.979 23.7927 28.9696 23.8487 28.9567 23.9222C28.9311 24.0691 28.8915 24.286 28.8368 24.5624C28.7272 25.1152 28.5567 25.9056 28.3137 26.8506C27.8271 28.7431 27.0528 31.2445 25.9012 33.6982C25.7744 33.9685 25.8907 34.2905 26.161 34.4173C26.4313 34.5442 26.7533 34.4279 26.8802 34.1576C28.0698 31.6229 28.8642 29.0523 29.361 27.1199C29.6097 26.1525 29.7846 25.3422 29.8975 24.7726C29.954 24.4877 29.995 24.2628 30.022 24.1084C30.0355 24.0311 30.0455 23.9715 30.0522 23.9308L30.0597 23.884L30.0617 23.8715L30.0624 23.8671C30.0624 23.867 30.0625 23.8665 29.5281 23.784L30.0625 23.8665C30.1081 23.5714 29.9058 23.2952 29.6107 23.2496C29.3156 23.2041 29.0394 23.4064 28.9938 23.7015L28.9934 23.704Z" fill="black"/>
<path fill-rule="evenodd" clip-rule="evenodd" d="M30.4648 24.2743L31.0052 24.2914C31.0147 23.9929 30.7804 23.7433 30.4819 23.7339C30.1835 23.7244 29.9339 23.9586 29.9244 24.2571L29.9243 24.2601L29.9239 24.2708L29.9222 24.3152C29.9207 24.3547 29.9182 24.4138 29.9145 24.4908C29.9071 24.645 29.8949 24.8709 29.8759 25.1558C29.8377 25.7257 29.7721 26.5302 29.662 27.466C29.4412 29.3436 29.0447 31.7246 28.3447 33.7962C28.2491 34.0791 28.4009 34.3859 28.6838 34.4815C28.9667 34.5771 29.2735 34.4252 29.3691 34.1423C30.1042 31.967 30.5116 29.5005 30.736 27.5923C30.8485 26.6352 30.9157 25.8123 30.9548 25.228C30.9744 24.9357 30.9869 24.7029 30.9946 24.5425C30.9985 24.4623 31.0011 24.4002 31.0028 24.3578L31.0046 24.3092L31.005 24.2964L31.0052 24.2914C31.0052 24.2913 31.0052 24.2914 30.4648 24.2743Z" fill="black"/>
<path d="M38.0833 34.0319H0.810303C0.810303 43.8598 10.661 50.2375 13.0572 50.2375H27.1677C27.1677 50.2375 38.0833 43.9644 38.0833 34.0319Z" fill="#FF8F00"/>
<path fill-rule="evenodd" clip-rule="evenodd" d="M0 33.2216H38.8936V33.6267C38.8936 38.8975 36.3089 43.0449 33.542 45.8613C32.1575 47.2705 30.7201 48.3546 29.5201 49.0885C28.9204 49.4554 28.3752 49.7377 27.9213 49.9297C27.4848 50.1145 27.0833 50.2375 26.7903 50.2375H12.3752C11.9977 50.2375 11.5277 50.124 11.0142 49.9317C10.4933 49.7365 9.89932 49.4494 9.26507 49.0772C7.99644 48.3325 6.54779 47.2359 5.17917 45.8183C2.44278 42.9839 0 38.8371 0 33.6267V33.2216ZM0.821149 34.0319C0.943435 38.7882 3.20524 42.6029 5.76815 45.2575C7.08537 46.6219 8.47554 47.6725 9.68025 48.3796C10.2827 48.7332 10.834 48.9981 11.3022 49.1735C11.7778 49.3517 12.1408 49.4272 12.3752 49.4272H26.7903C26.9054 49.4272 27.1753 49.3646 27.6015 49.1843C28.0103 49.0113 28.5191 48.7492 29.0922 48.3986C30.2381 47.6977 31.6225 46.6548 32.9579 45.2955C35.558 42.6489 37.9443 38.8338 38.0722 34.0319H0.821149Z" fill="black"/>
<path d="M12.1542 50.2375H26.7393V55.0992H12.1542V50.2375Z" fill="#FF8F00"/>
<path fill-rule="evenodd" clip-rule="evenodd" d="M25.929 51.0478H12.9645V54.289H25.929V51.0478ZM12.1542 50.2375V55.0992H26.7393V50.2375H12.1542Z" fill="black"/>
<path fill-rule="evenodd" clip-rule="evenodd" d="M8.33761 38.4955C8.33755 38.4954 8.33749 38.4953 8.71136 38.3382C9.08523 38.1812 9.08519 38.1811 9.08516 38.181L9.0861 38.1832L9.09023 38.1928C9.09407 38.2017 9.10008 38.2155 9.10828 38.234C9.12467 38.2709 9.1498 38.3265 9.18373 38.3987C9.2516 38.543 9.35462 38.7535 9.49339 39.014C9.7711 39.5353 10.1909 40.2548 10.7574 41.043C11.8936 42.6239 13.6018 44.4566 15.9126 45.5408L15.5681 46.275C13.0849 45.11 11.2786 43.1578 10.0988 41.5163C9.50727 40.6932 9.06875 39.9419 8.77758 39.3953C8.63191 39.1219 8.52287 38.8992 8.44979 38.7438C8.41324 38.6661 8.38567 38.6051 8.36698 38.563C8.35764 38.542 8.35052 38.5256 8.34561 38.5143L8.33989 38.5009L8.33828 38.4971L8.33761 38.4955Z" fill="black"/>
</svg>
